<svg id="Group_453" data-name="Group 453" xmlns="http://www.w3.org/2000/svg" width="55" height="66.786" viewBox="0 0 55 66.786">
  <rect id="Rectangle_523" data-name="Rectangle 523" width="2.342" height="4.684" transform="translate(32.788 0)" fill="#17a754"/>
  <rect id="Rectangle_524" data-name="Rectangle 524" width="18.736" height="62.064" transform="translate(32.788 4.684)" fill="#17a754"/>
  <rect id="Rectangle_525" data-name="Rectangle 525" width="7.026" height="62.064" transform="translate(25.762 4.684)" fill="#3f3d56"/>
  <rect id="Rectangle_526" data-name="Rectangle 526" width="2.753" height="2.753" transform="translate(44.904 10.045)" fill="#fff"/>
  <rect id="Rectangle_527" data-name="Rectangle 527" width="2.753" height="2.753" transform="translate(40.469 10.045)" fill="#fff"/>
  <rect id="Rectangle_528" data-name="Rectangle 528" width="2.753" height="2.753" transform="translate(36.034 10.045)" fill="#fff"/>
  <rect id="Rectangle_529" data-name="Rectangle 529" width="3.513" height="2.342" transform="translate(44.498 16.394)" fill="#fff"/>
  <rect id="Rectangle_530" data-name="Rectangle 530" width="3.513" height="2.342" transform="translate(39.814 16.394)" fill="#fff"/>
  <rect id="Rectangle_531" data-name="Rectangle 531" width="2.342" height="2.342" transform="translate(36.301 16.394)" fill="#fff"/>
  <rect id="Rectangle_532" data-name="Rectangle 532" width="2.753" height="2.753" transform="translate(44.751 22.585)" fill="#fff"/>
  <rect id="Rectangle_533" data-name="Rectangle 533" width="2.753" height="2.753" transform="translate(40.316 22.585)" fill="#fff"/>
  <rect id="Rectangle_534" data-name="Rectangle 534" width="2.753" height="2.753" transform="translate(35.881 22.585)" fill="#fff"/>
  <rect id="Rectangle_535" data-name="Rectangle 535" width="3.513" height="2.342" transform="translate(44.498 29.275)" fill="#fff"/>
  <rect id="Rectangle_536" data-name="Rectangle 536" width="3.513" height="2.342" transform="translate(39.814 29.275)" fill="#fff"/>
  <rect id="Rectangle_537" data-name="Rectangle 537" width="2.342" height="2.342" transform="translate(36.301 29.275)" fill="#fff"/>
  <rect id="Rectangle_538" data-name="Rectangle 538" width="2.753" height="2.753" transform="translate(44.598 35.125)" fill="#fff"/>
  <rect id="Rectangle_539" data-name="Rectangle 539" width="2.753" height="2.753" transform="translate(40.163 35.125)" fill="#fff"/>
  <rect id="Rectangle_540" data-name="Rectangle 540" width="2.753" height="2.753" transform="translate(35.728 35.125)" fill="#fff"/>
  <rect id="Rectangle_541" data-name="Rectangle 541" width="2.342" height="3.513" transform="translate(44.498 40.985)" fill="#fff"/>
  <rect id="Rectangle_542" data-name="Rectangle 542" width="3.513" height="3.513" transform="translate(39.814 40.985)" fill="#fff"/>
  <rect id="Rectangle_543" data-name="Rectangle 543" width="3.513" height="3.513" transform="translate(35.13 40.985)" fill="#fff"/>
  <rect id="Rectangle_544" data-name="Rectangle 544" width="2.753" height="2.753" transform="translate(44.445 47.665)" fill="#fff"/>
  <rect id="Rectangle_545" data-name="Rectangle 545" width="2.753" height="2.753" transform="translate(40.01 47.665)" fill="#fff"/>
  <rect id="Rectangle_546" data-name="Rectangle 546" width="2.753" height="2.753" transform="translate(35.575 47.665)" fill="#fff"/>
  <rect id="Rectangle_547" data-name="Rectangle 547" width="2.342" height="2.342" transform="translate(44.498 53.867)" fill="#fff"/>
  <rect id="Rectangle_548" data-name="Rectangle 548" width="2.342" height="2.342" transform="translate(39.814 53.867)" fill="#fff"/>
  <rect id="Rectangle_549" data-name="Rectangle 549" width="2.342" height="5.855" transform="translate(39.814 60.893)" fill="#fff"/>
  <rect id="Rectangle_550" data-name="Rectangle 550" width="3.513" height="2.342" transform="translate(35.13 53.867)" fill="#fff"/>
  <rect id="Rectangle_551" data-name="Rectangle 551" width="1.171" height="4.684" transform="translate(31.617 0)" fill="#3f3d56"/>
  <rect id="Rectangle_552" data-name="Rectangle 552" width="2.141" height="3.172" transform="translate(9.654 27.02)" fill="#17a754"/>
  <rect id="Rectangle_553" data-name="Rectangle 553" width="18.198" height="36.708" transform="translate(9.807 29.92)" fill="#17a754"/>
  <rect id="Rectangle_554" data-name="Rectangle 554" width="7.341" height="36.708" transform="translate(2.466 29.92)" fill="#3f3d56"/>
  <rect id="Rectangle_555" data-name="Rectangle 555" width="2.753" height="2.753" transform="translate(21.659 35.125)" fill="#fff"/>
  <rect id="Rectangle_556" data-name="Rectangle 556" width="2.753" height="2.753" transform="translate(17.224 35.125)" fill="#fff"/>
  <rect id="Rectangle_557" data-name="Rectangle 557" width="2.753" height="2.753" transform="translate(12.789 35.125)" fill="#fff"/>
  <rect id="Rectangle_558" data-name="Rectangle 558" width="3.513" height="3.513" transform="translate(21.078 40.985)" fill="#fff"/>
  <rect id="Rectangle_559" data-name="Rectangle 559" width="2.342" height="3.513" transform="translate(17.565 40.985)" fill="#fff"/>
  <rect id="Rectangle_560" data-name="Rectangle 560" width="2.342" height="3.513" transform="translate(12.881 40.985)" fill="#fff"/>
  <rect id="Rectangle_561" data-name="Rectangle 561" width="2.753" height="2.753" transform="translate(21.506 47.665)" fill="#fff"/>
  <rect id="Rectangle_562" data-name="Rectangle 562" width="2.753" height="2.753" transform="translate(17.071 47.665)" fill="#fff"/>
  <rect id="Rectangle_563" data-name="Rectangle 563" width="2.753" height="2.753" transform="translate(12.636 47.665)" fill="#fff"/>
  <rect id="Rectangle_564" data-name="Rectangle 564" width="3.513" height="2.342" transform="translate(21.078 53.867)" fill="#fff"/>
  <rect id="Rectangle_565" data-name="Rectangle 565" width="2.342" height="2.342" transform="translate(17.565 53.867)" fill="#fff"/>
  <rect id="Rectangle_566" data-name="Rectangle 566" width="2.342" height="5.855" transform="translate(17.565 60.893)" fill="#fff"/>
  <rect id="Rectangle_567" data-name="Rectangle 567" width="2.342" height="2.342" transform="translate(12.881 53.867)" fill="#fff"/>
  <rect id="Rectangle_568" data-name="Rectangle 568" width="1.223" height="3.082" transform="translate(8.583 27.02)" fill="#3f3d56"/>
  <rect id="Rectangle_569" data-name="Rectangle 569" width="55" height="0.343" transform="translate(0 66.444)" fill="#3f3d56"/>
  <path id="Path_1197" data-name="Path 1197" d="M532.011,673.291a2.129,2.129,0,0,1,1.066.286,2.291,2.291,0,0,1,3.828,1.7h-7.027A2.14,2.14,0,0,1,532.011,673.291Z" transform="translate(-485.196 -608.651)" fill="#3f3d56"/>
  <path id="Path_1198" data-name="Path 1198" d="M687.011,673.291a2.129,2.129,0,0,1,1.066.286,2.291,2.291,0,0,1,3.828,1.7h-7.027A2.139,2.139,0,0,1,687.011,673.291Z" transform="translate(-663.9 -608.651)" fill="#3f3d56"/>
</svg>
