<svg id="Group_456" data-name="Group 456" xmlns="http://www.w3.org/2000/svg" width="66.007" height="70.747" viewBox="0 0 66.007 70.747">
  <path id="Path_1248" data-name="Path 1248" d="M314.315,302.142h-9.824v-5.256a4.912,4.912,0,1,1,9.824,0Z" transform="translate(-278.709 -291.974)" fill="#2f2e41"/>
  <path id="Path_1249" data-name="Path 1249" d="M232.041,453.654h2.113l1.005-8.15h-3.118Z" transform="translate(-192.05 -385.002)" fill="#ffb6b6"/>
  <path id="Path_1250" data-name="Path 1250" d="M383.808,686.315h4.161a2.652,2.652,0,0,1,2.652,2.652v.086h-6.813Z" transform="translate(-344.356 -618.352)" fill="#2f2e41"/>
  <path id="Path_1251" data-name="Path 1251" d="M85.489,442.349l1.84,1.039,4.882-6.6L89.5,435.252Z" transform="translate(-70.755 -376.517)" fill="#ffb6b6"/>
  <path id="Path_1252" data-name="Path 1252" d="M233.163,668.934l3.624,2.046h0a2.652,2.652,0,0,1,1.005,3.613l-.042.075-5.933-3.349Z" transform="translate(-218.559 -603.968)" fill="#2f2e41"/>
  <path id="Path_1253" data-name="Path 1253" d="M254.918,444.368l-.163.815s-.489.489-.245.734.163,1.386.163,1.386c-.137,2.081-2.856,13.776-3.343,16.06a24.568,24.568,0,0,0-6.685,7.256c-2.935,4.81-3.016,6.033-3.016,6.033l3.261,1.386,8.153-9.865a12.5,12.5,0,0,0,3.1-2.609c.815-1.223,5.87-13.859,5.87-13.859l2.853,13.207a37.654,37.654,0,0,0,.571,7.908,33.182,33.182,0,0,1,.815,5.951l3.832-.408s-.245-11.577-.652-12.8c0,0,1.712-14.1-1.712-19.729l-2.76-7.357-2.7-1.04Z" transform="translate(-226.681 -412.368)" fill="#2f2e41"/>
  <path id="Path_1254" data-name="Path 1254" d="M314.173,299.43c5.144.088,5.143,7.739,0,7.826C309.029,307.168,309.03,299.517,314.173,299.43Z" transform="translate(-283.529 -298.145)" fill="#ffb8b8"/>
  <path id="Path_1255" data-name="Path 1255" d="M317.533,298.649h-.874l-.238-.6.119.6h-4.782l.156-1.245-1.162,1.245h-1.159v-.675a3.97,3.97,0,1,1,7.941,0Z" transform="translate(-282.931 -293.654)" fill="#2f2e41"/>
  <path id="Path_1256" data-name="Path 1256" d="M316.791,358.1l-9.721.079,2.055,20.839s11.368-.6,11.375-4.07l-1.065-3.083Z" transform="translate(-280.843 -346.707)" fill="#17a754"/>
  <path id="Path_138" data-name="Path 138" d="M284.055,474.125l-33.886,7.017c-.347.071-.746-.445-.893-1.154l-3.562-17.2c-.147-.709.016-1.341.362-1.414l33.886-7.017c.347-.071.746.445.893,1.154l3.562,17.2C284.563,473.42,284.4,474.053,284.055,474.125Z" transform="translate(-230.017 -426.367)" fill="#fff"/>
  <g id="Group_38" data-name="Group 38" transform="translate(24.958 36.112)">
    <circle id="Ellipse_7" data-name="Ellipse 7" cx="3.026" cy="3.026" r="3.026" transform="translate(0.382 0.423)" fill="#f0f0f0"/>
    <path id="Path_63" data-name="Path 63" d="M314.3,512.165l-14.536,3.01a.3.3,0,0,1-.055.007l4.409-13.332a.491.491,0,0,1,.838-.174l6.269,7.036.3.337Z" transform="translate(-299.711 -501.508)" fill="#e4e4e4"/>
    <path id="Path_65" data-name="Path 65" d="M370.958,518.271l-12.573,2.6,1.7-4.043.122-.291,2.22-5.269a.656.656,0,0,1,.942-.255.583.583,0,0,1,.057.047Z" transform="translate(-348.273 -509.29)" fill="#e4e4e4"/>
  </g>
  <path id="Path_138-2" data-name="Path 138" d="M284.055,474.125l-33.886,7.017c-.347.071-.746-.445-.893-1.154l-3.562-17.2c-.147-.709.016-1.341.362-1.414l33.886-7.017c.347-.071.746.445.893,1.154l3.562,17.2C284.563,473.42,284.4,474.053,284.055,474.125Zm-37.873-12.236c-.208.043-.3.423-.217.848l3.562,17.2c.088.425.328.735.536.693l33.886-7.017c.208-.043.3-.423.217-.848l-3.562-17.2c-.088-.425-.328-.735-.536-.692Z" transform="translate(-230.017 -426.367)" fill="#cacaca"/>
  <path id="Path_1257" data-name="Path 1257" d="M397.779,442.236a1.616,1.616,0,0,1-.633-2.4l-1.969-3.125,1.607-1.659,2.718,4.451a1.625,1.625,0,0,1-1.723,2.728Z" transform="translate(-353.766 -410.397)" fill="#ffb6b6"/>
  <path id="Path_1258" data-name="Path 1258" d="M354.808,358.4l1.41-.929s1.088.244,2.246,2.47,5.825,12.18,5.825,12.18l-1.919,1.948-5.119-7.809Z" transform="translate(-320.354 -346.186)" fill="#17a754"/>
  <path id="Path_1259" data-name="Path 1259" d="M290.774,458.013a1.616,1.616,0,0,0-.466-2.434l.422-3.669-2.167-.8-.524,5.189a1.625,1.625,0,0,0,2.734,1.714Z" transform="translate(-264.964 -423.684)" fill="#ffb6b6"/>
  <path id="Path_1260" data-name="Path 1260" d="M291.317,360.334l-1.279-1.788s-.875-.194-1.909,1.012-1.637,16.286-1.637,16.286l3.792.862,2.241-10.685Z" transform="translate(-263.811 -347.063)" fill="#17a754"/>
  <path id="Path_1261" data-name="Path 1261" d="M220.728,700.819H155.065a.172.172,0,1,1,0-.345h65.663a.172.172,0,1,1,0,.345Z" transform="translate(-154.893 -630.072)" fill="#cacaca"/>
  <path id="Path_1262" data-name="Path 1262" d="M259.1,494.594l-5.608,1.191a13.315,13.315,0,0,0-1.191-5.608l5.608-1.191A7.127,7.127,0,0,0,259.1,494.594Z" transform="translate(-235.511 -455.032)" fill="#17a754"/>
  <rect id="Rectangle_622" data-name="Rectangle 622" width="3.475" height="0.695" transform="translate(17.889 36.153) rotate(-11.987)" fill="#fff"/>
  <rect id="Rectangle_623" data-name="Rectangle 623" width="3.475" height="0.695" transform="translate(18.178 37.513) rotate(-11.987)" fill="#fff"/>
  <rect id="Rectangle_624" data-name="Rectangle 624" width="3.475" height="0.695" transform="translate(18.466 38.872) rotate(-11.987)" fill="#fff"/>
</svg>
