<svg xmlns="http://www.w3.org/2000/svg" width="36" height="36" viewBox="0 0 36 36">
  <g id="Group_515" data-name="Group 515" transform="translate(-360 -374)">
    <rect id="Rectangle_669" data-name="Rectangle 669" width="36" height="36" rx="8" transform="translate(360 374)" fill="#00c057"/>
    <path id="Icon_ionic-ios-arrow-down" data-name="Icon ionic-ios-arrow-down" d="M14.986,18.272l6.651-6.657a1.252,1.252,0,0,1,1.775,0,1.268,1.268,0,0,1,0,1.781l-7.537,7.542a1.255,1.255,0,0,1-1.734.037L6.554,13.4A1.257,1.257,0,1,1,8.33,11.621Z" transform="translate(363.874 372.254)" fill="#e8e8e8"/>
    <path id="Icon_ionic-ios-arrow-down-2" data-name="Icon ionic-ios-arrow-down" d="M14.986,18.272l6.651-6.657a1.252,1.252,0,0,1,1.775,0,1.268,1.268,0,0,1,0,1.781l-7.537,7.542a1.255,1.255,0,0,1-1.734.037L6.554,13.4A1.257,1.257,0,1,1,8.33,11.621Z" transform="translate(363.874 380.447)" fill="#e8e8e8"/>
  </g>
</svg>
