<svg id="Group_455" data-name="Group 455" xmlns="http://www.w3.org/2000/svg" width="50.169" height="67.288" viewBox="0 0 50.169 67.288">
  <path id="Path_1221" data-name="Path 1221" d="M616.153,507.735H614.5l-.786-6.368h2.437Z" transform="translate(-584.91 -442.205)" fill="#9f616a"/>
  <path id="Path_1222" data-name="Path 1222" d="M831.877,713.235h-5.323v-.067a2.072,2.072,0,0,1,2.072-2.072h3.252Z" transform="translate(-800.214 -646.105)" fill="#2f2e41"/>
  <path id="Path_1223" data-name="Path 1223" d="M522.317,504.667l-1.565-.525,1.279-6.287,2.31.775Z" transform="translate(-507.166 -439.268)" fill="#9f616a"/>
  <path id="Path_1224" data-name="Path 1224" d="M731.763,707.483l-5.047-1.692.021-.064a2.072,2.072,0,0,1,2.623-1.306h0l3.083,1.034Z" transform="translate(-716.72 -640.432)" fill="#2f2e41"/>
  <path id="Path_1225" data-name="Path 1225" d="M752.382,481.728l-3.575,30.243,3.507.3s5.516-29.735,7.216-26.213,3.784,25.552,3.784,25.552h3.48s.892-34.373-2.751-36.073Z" transform="translate(-735.195 -449.109)" fill="#2f2e41"/>
  <circle id="Ellipse_66" data-name="Ellipse 66" cx="3.522" cy="3.522" r="3.522" transform="translate(18.905 9.95) rotate(-80.009)" fill="#9f616a"/>
  <path id="Path_1226" data-name="Path 1226" d="M769.992,386.879l4.494.364s3.583.061,5.041,1.032-1.4,6.984-1.4,6.984-.742,2.384-.182,3.462a12.088,12.088,0,0,1,1.547,6.191s-3.734.854-10.171,2.554c0,0-4.008,1.579-3.887.729s1.336-10.567,1.336-10.567V387.547Z" transform="translate(-749.1 -374.968)" fill="#3f3d56"/>
  <path id="Path_1227" data-name="Path 1227" d="M787.641,320.836a7.723,7.723,0,0,0-1.48-3.5h.085a.851.851,0,0,0,.787-.387.672.672,0,0,0-.123-.67,1.978,1.978,0,0,0-.561-.439c.216.131.522.253.7.068a.375.375,0,0,0,.042-.4.993.993,0,0,0-.27-.326,6.64,6.64,0,0,0-1.187-.838c-.329-.182-.762-.328-1.057-.1s-.253.7-.175,1.074a1.236,1.236,0,0,0-.553-.167.423.423,0,0,0-.424.326.435.435,0,0,0,.2.38,7.9,7.9,0,0,0-4.542.9,3.186,3.186,0,0,0-1.933,3.035,4.3,4.3,0,0,0,.128,1.15c.1.439.472,2.592.03,3.463l2.215.789.025-1.327c-1.722-2.485-.871-3.4-.2-4.892a.016.016,0,0,1,.028,0c.124.213.6.941,2.232.941l-.631-.631a17.413,17.413,0,0,0,3.788,1.136s.758.505,0,1.263-2.416,1.873-1.532,3.262.808,1.882.808,1.882l2.02-1.136s1.234-2.441,1.453-3.16A3.627,3.627,0,0,0,787.641,320.836Z" transform="translate(-758.888 -314.125)" fill="#2f2e41"/>
  <path id="Path_1228" data-name="Path 1228" d="M465.118,348.182h40.189v22.276h-5.1v6.126l-5.5-6.126H465.118Z" transform="translate(-460.64 -314.099)" fill="#17a754"/>
  <rect id="Rectangle_606" data-name="Rectangle 606" width="27.009" height="1.207" transform="translate(11.068 40.627)" fill="#fff"/>
  <rect id="Rectangle_607" data-name="Rectangle 607" width="27.009" height="1.207" transform="translate(11.068 44.618)" fill="#fff"/>
  <rect id="Rectangle_608" data-name="Rectangle 608" width="27.009" height="1.207" transform="translate(11.068 48.609)" fill="#fff"/>
  <path id="Path_1229" data-name="Path 1229" d="M825.65,435.125l-2.357.573-.018,4.771-2.651,9.151a1.481,1.481,0,1,0,2.328.7l3.17-9.473Z" transform="translate(-794.784 -415.315)" fill="#9f616a"/>
  <path id="Path_1230" data-name="Path 1230" d="M758.369,434.513l2.828.808.018,4.771,2.651,9.151a1.481,1.481,0,1,1-2.328.7l-3.169-9.473Z" transform="translate(-743.192 -414.803)" fill="#9f616a"/>
  <path id="Path_1231" data-name="Path 1231" d="M832.591,391.135l.584-.19a1.329,1.329,0,0,1,.995.069h0s1.7.121,1.943,1.336.834,11.831.834,11.831l-3.6-1.146Z" transform="translate(-805.263 -378.313)" fill="#3f3d56"/>
  <path id="Path_1232" data-name="Path 1232" d="M759.671,391.341l-1.034-.052-.327-.164s-1.918.216-2.161,1.43-.95,12.158-.95,12.158l3.6-.982Z" transform="translate(-740.54 -378.519)" fill="#3f3d56"/>
  <path id="Path_1235" data-name="Path 1235" d="M402.188,723.453H352.181c-.045,0-.081-.073-.081-.164s.036-.164.081-.164h50.007c.045,0,.081.073.081.164S402.233,723.453,402.188,723.453Z" transform="translate(-352.1 -656.165)" fill="#cbcbcb"/>
</svg>
