<svg id="Group_454" data-name="Group 454" xmlns="http://www.w3.org/2000/svg" width="80.353" height="45.644" viewBox="0 0 80.353 45.644">
  <rect id="Rectangle_570" data-name="Rectangle 570" width="2.138" height="7.401" transform="translate(75.632 26.621)" fill="#3f3d56"/>
  <path id="Path_1199" data-name="Path 1199" d="M636.2,300.359l-5.322-6.4H620.519l-6.332,6.168.128.082h-.046V313.04h21.875V300.211Z" transform="translate(-556.976 -267.422)" fill="#3f3d56"/>
  <path id="Path_1200" data-name="Path 1200" d="M949.941,431.948c0,.009,0,.018,0,.028a6.226,6.226,0,0,0,.453,1.04,2.594,2.594,0,0,0-.132.832c0,.975.5,1.765,1.123,1.765s1.123-.79,1.123-1.765a2.67,2.67,0,0,0-.073-.627,1.314,1.314,0,0,1,1.947-1.708,3.124,3.124,0,0,1,.658-3.313,1.284,1.284,0,0,0-2.532.3c0,.019,0,.037,0,.056a3.259,3.259,0,0,1-3.046,1.092,1.283,1.283,0,0,0,.479,2.3Z" transform="translate(-874.722 -407.751)" fill="#e2e2e2"/>
  <path id="Path_1201" data-name="Path 1201" d="M725.171,293.125l-6.5,7.617v11.544h11.677V299.293Z" transform="translate(-651.184 -266.668)" fill="#17a754"/>
  <rect id="Rectangle_571" data-name="Rectangle 571" width="2.385" height="2.108" transform="translate(72.178 39.233)" fill="#3f3d56"/>
  <rect id="Rectangle_572" data-name="Rectangle 572" width="2.385" height="2.074" transform="translate(72.178 35.585)" fill="#3f3d56"/>
  <rect id="Rectangle_573" data-name="Rectangle 573" width="2.385" height="2.108" transform="translate(72.178 39.233)" fill="#fff"/>
  <rect id="Rectangle_574" data-name="Rectangle 574" width="2.385" height="2.074" transform="translate(72.178 35.585)" fill="#fff"/>
  <path id="Path_1202" data-name="Path 1202" d="M127.719,152.049l-9.432-11.233H99.743L88.41,151.854l.229.147h-.082v22.96h39.149V152Z" transform="translate(-82.925 -129.343)" fill="#3f3d56"/>
  <rect id="Rectangle_575" data-name="Rectangle 575" width="2.138" height="7.401" transform="translate(36.981 10.421)" fill="#3f3d56"/>
  <rect id="Rectangle_576" data-name="Rectangle 576" width="2.138" height="7.401" transform="translate(58.609 19.22)" fill="#3f3d56"/>
  <rect id="Rectangle_577" data-name="Rectangle 577" width="2.138" height="7.401" transform="translate(58.609 18.48)" fill="#3f3d56"/>
  <path id="Path_1206" data-name="Path 1206" d="M404.655,228.553l-7.3-8.668H383.037l-8.751,8.524.177.114H374.4v17.729h30.23V228.522Z" transform="translate(-340.677 -200.634)" fill="#3f3d56"/>
  <path id="Path_1207" data-name="Path 1207" d="M527.662,218.73l-8.978,10.526V245.21h16.138V227.254Z" transform="translate(-470.869 -199.592)" fill="#17a754"/>
  <path id="Path_1208" data-name="Path 1208" d="M287.037,139.32,275.41,152.951v20.661h20.9V150.358Z" transform="translate(-251.528 -127.995)" fill="#17a754"/>
  <path id="Path_1209" data-name="Path 1209" d="M341.806,680.452a.963.963,0,0,1,1.1-.947" transform="translate(-327.332 -635.211)" fill="#e6e6e6"/>
  <circle id="Ellipse_60" data-name="Ellipse 60" cx="0.525" cy="0.525" r="0.525" transform="translate(13.653 43.173)" fill="#ffc000"/>
  <rect id="Rectangle_578" data-name="Rectangle 578" width="0.148" height="1.036" transform="translate(14.092 44.581)" fill="#e6e6e6"/>
  <path id="Path_1210" data-name="Path 1210" d="M389.452,680.452a.963.963,0,0,1,1.1-.947" transform="translate(-370.29 -635.211)" fill="#e6e6e6"/>
  <circle id="Ellipse_61" data-name="Ellipse 61" cx="0.525" cy="0.525" r="0.525" transform="translate(18.341 43.173)" fill="#ffc000"/>
  <rect id="Rectangle_579" data-name="Rectangle 579" width="0.148" height="1.036" transform="translate(18.78 44.581)" fill="#e6e6e6"/>
  <path id="Path_1211" data-name="Path 1211" d="M662.789,680.452a.963.963,0,0,1,1.1-.947" transform="translate(-616.737 -635.211)" fill="#e6e6e6"/>
  <circle id="Ellipse_62" data-name="Ellipse 62" cx="0.525" cy="0.525" r="0.525" transform="translate(45.231 43.173)" fill="#ffc000"/>
  <rect id="Rectangle_580" data-name="Rectangle 580" width="0.148" height="1.036" transform="translate(45.671 44.581)" fill="#e6e6e6"/>
  <path id="Path_1212" data-name="Path 1212" d="M864.24,680.452a.963.963,0,0,1,1.1-.947" transform="translate(-798.369 -635.211)" fill="#e6e6e6"/>
  <circle id="Ellipse_63" data-name="Ellipse 63" cx="0.525" cy="0.525" r="0.525" transform="translate(65.05 43.173)" fill="#ffc000"/>
  <rect id="Rectangle_581" data-name="Rectangle 581" width="0.148" height="1.036" transform="translate(65.489 44.581)" fill="#e6e6e6"/>
  <path id="Path_1213" data-name="Path 1213" d="M276.606,680.452a.963.963,0,0,1,1.1-.947" transform="translate(-268.546 -635.211)" fill="#e6e6e6"/>
  <circle id="Ellipse_64" data-name="Ellipse 64" cx="0.525" cy="0.525" r="0.525" transform="translate(7.239 43.173)" fill="#ffc000"/>
  <rect id="Rectangle_582" data-name="Rectangle 582" width="0.148" height="1.036" transform="translate(7.678 44.581)" fill="#e6e6e6"/>
  <path id="Path_1214" data-name="Path 1214" d="M775.172,336.326c0,.011,0,.021,0,.032a7.127,7.127,0,0,0,.519,1.191,2.969,2.969,0,0,0-.152.953c0,1.117.576,2.022,1.287,2.022s1.286-.905,1.286-2.022a3.064,3.064,0,0,0-.084-.718,1.5,1.5,0,0,1,2.23-1.956,3.579,3.579,0,0,1,.754-3.8,1.47,1.47,0,0,0-2.9.343c0,.022,0,.043,0,.064a3.732,3.732,0,0,1-3.49,1.251,1.47,1.47,0,0,0,.548,2.635Z" transform="translate(-717.013 -320.915)" fill="#e2e2e2"/>
  <path id="Path_1215" data-name="Path 1215" d="M133,217.9l-1.841,2.547-.178-5.052-.22,7.459-1.7-2.347,1.681,2.863-.557,18.86h1.738L131.181,221Z" transform="translate(-119.582 -196.586)" fill="#e2e2e2"/>
  <path id="Path_1216" data-name="Path 1216" d="M37.814,134.063,35.4,137.4l-.233-6.619-.289,9.772-2.223-3.075,2.2,3.751-.73,24.711h2.277l-.98-27.814Z" transform="translate(-32.657 -120.296)" fill="#3f3d56"/>
  <path id="Path_1219" data-name="Path 1219" d="M549.719,235.72c0,.013,0,.025,0,.038a1.721,1.721,0,0,0,.523,1.237,1.7,1.7,0,0,0,.086.161,3.486,3.486,0,0,0-.178,1.118c0,1.311.676,2.373,1.51,2.373s1.51-1.062,1.51-2.373a3.587,3.587,0,0,0-.1-.843,1.766,1.766,0,0,1,2.618-2.3,1.726,1.726,0,0,0-.2-2.432,1.726,1.726,0,1,0-2.324-1.619c0,.025,0,.05,0,.075a4.381,4.381,0,0,1-4.1,1.468,1.726,1.726,0,0,0,.644,3.093Z" transform="translate(-513.558 -229.357)" fill="#e2e2e2"/>
  <rect id="Rectangle_583" data-name="Rectangle 583" width="4.268" height="4.364" transform="translate(26.569 27.662)" fill="#3f3d56"/>
  <rect id="Rectangle_584" data-name="Rectangle 584" width="4.268" height="4.364" transform="translate(26.569 33.6)" fill="#3f3d56"/>
  <rect id="Rectangle_585" data-name="Rectangle 585" width="4.268" height="4.364" transform="translate(26.569 27.662)" fill="#fff"/>
  <rect id="Rectangle_586" data-name="Rectangle 586" width="4.268" height="4.364" transform="translate(26.569 33.6)" fill="#fff"/>
  <rect id="Rectangle_587" data-name="Rectangle 587" width="4.268" height="4.364" transform="translate(32.472 27.662)" fill="#3f3d56"/>
  <rect id="Rectangle_588" data-name="Rectangle 588" width="4.268" height="4.364" transform="translate(32.472 33.6)" fill="#3f3d56"/>
  <rect id="Rectangle_589" data-name="Rectangle 589" width="4.268" height="4.364" transform="translate(32.472 27.662)" fill="#fff"/>
  <rect id="Rectangle_590" data-name="Rectangle 590" width="4.268" height="4.364" transform="translate(32.472 33.6)" fill="#fff"/>
  <rect id="Rectangle_591" data-name="Rectangle 591" width="4.268" height="4.364" transform="translate(38.374 27.662)" fill="#3f3d56"/>
  <rect id="Rectangle_592" data-name="Rectangle 592" width="4.268" height="4.364" transform="translate(38.374 33.6)" fill="#3f3d56"/>
  <rect id="Rectangle_593" data-name="Rectangle 593" width="4.268" height="4.364" transform="translate(38.374 27.662)" fill="#fff"/>
  <rect id="Rectangle_594" data-name="Rectangle 594" width="4.268" height="4.364" transform="translate(38.374 33.6)" fill="#fff"/>
  <rect id="Rectangle_595" data-name="Rectangle 595" width="3.296" height="3.191" transform="translate(52.018 36.517)" fill="#3f3d56"/>
  <rect id="Rectangle_596" data-name="Rectangle 596" width="3.296" height="3.191" transform="translate(52.018 31.753)" fill="#3f3d56"/>
  <rect id="Rectangle_597" data-name="Rectangle 597" width="3.296" height="3.191" transform="translate(52.018 36.517)" fill="#fff"/>
  <rect id="Rectangle_598" data-name="Rectangle 598" width="3.296" height="3.191" transform="translate(52.018 31.753)" fill="#fff"/>
  <rect id="Rectangle_599" data-name="Rectangle 599" width="3.296" height="3.191" transform="translate(56.839 36.517)" fill="#3f3d56"/>
  <rect id="Rectangle_600" data-name="Rectangle 600" width="3.296" height="3.191" transform="translate(56.839 31.753)" fill="#3f3d56"/>
  <rect id="Rectangle_601" data-name="Rectangle 601" width="3.296" height="3.191" transform="translate(56.839 36.517)" fill="#fff"/>
  <rect id="Rectangle_602" data-name="Rectangle 602" width="3.296" height="3.191" transform="translate(56.839 31.753)" fill="#fff"/>
</svg>
