<svg xmlns="http://www.w3.org/2000/svg" width="768" height="57" viewBox="0 0 768 57">
  <g id="Group_437" data-name="Group 437" transform="translate(-336 -1463)">
    <g id="Group_425" data-name="Group 425" transform="translate(3 164)">
      <text id="Active" transform="translate(364 1311)" fill="#636363" stroke="rgba(0,0,0,0)" stroke-width="1" font-size="14" font-family="Objectivity-Bold, Objectivity" font-weight="700"><tspan x="0" y="0">Active</tspan></text>
      <text id="Hover" transform="translate(692 1311)" fill="#636363" stroke="rgba(0,0,0,0)" stroke-width="1" font-size="14" font-family="Objectivity-Bold, Objectivity" font-weight="700"><tspan x="0" y="0">Hover</tspan></text>
      <text id="Disabled" transform="translate(1002 1311)" fill="#636363" stroke="rgba(0,0,0,0)" stroke-width="1" font-size="14" font-family="Objectivity-Bold, Objectivity" font-weight="700"><tspan x="0" y="0">Disabled</tspan></text>
    </g>
    <g id="Group_494" data-name="Group 494" transform="translate(336 1484)">
      <g id="Delete_box" data-name="Delete box" fill="#fff">
        <path d="M 119.2156829833984 35 L 8.784317016601562 35 C 4.4920334815979 35 1 31.80193328857422 1 27.8709659576416 L 1 8.129033088684082 C 1 4.198066711425781 4.4920334815979 1 8.784317016601562 1 L 119.2156829833984 1 C 123.5079650878906 1 127 4.198066711425781 127 8.129033088684082 L 127 27.8709659576416 C 127 31.80193328857422 123.5079650878906 35 119.2156829833984 35 Z" stroke="none"/>
        <path d="M 8.784309387207031 2 C 5.043434143066406 2 2 4.749473571777344 2 8.129035949707031 L 2 27.87096405029297 C 2 31.25052642822266 5.043434143066406 34 8.784309387207031 34 L 119.2156753540039 34 C 122.9565658569336 34 126 31.25052642822266 126 27.87096405029297 L 126 8.129035949707031 C 126 4.749473571777344 122.9565658569336 2 119.2156753540039 2 L 8.784309387207031 2 M 8.784309387207031 0 L 119.2156753540039 0 C 124.0671234130859 0 128 3.639492034912109 128 8.129035949707031 L 128 27.87096405029297 C 128 32.36050796508789 124.0671234130859 36 119.2156753540039 36 L 8.784309387207031 36 C 3.932868957519531 36 0 32.36050796508789 0 27.87096405029297 L 0 8.129035949707031 C 0 3.639492034912109 3.932868957519531 0 8.784309387207031 0 Z" stroke="none" fill="#17a754"/>
      </g>
      <text id="Slet" transform="translate(13 23)" fill="#17a754" font-size="16" font-family="Objectivity-Medium, Objectivity" font-weight="500"><tspan x="0" y="0">Search</tspan></text>
      <path id="Icon_awesome-search" data-name="Icon awesome-search" d="M12.66,11.1l-2.5-2.5a.6.6,0,0,0-.426-.175H9.326a5.212,5.212,0,1,0-.9.9v.409a.6.6,0,0,0,.175.426l2.5,2.5a.6.6,0,0,0,.85,0l.709-.709a.6.6,0,0,0,0-.852ZM5.214,8.423A3.209,3.209,0,1,1,8.423,5.214,3.207,3.207,0,0,1,5.214,8.423Z" transform="translate(102.004 11)" fill="#17a754"/>
    </g>
    <g id="Group_495" data-name="Group 495" transform="translate(656 1484)">
      <g id="Delete_box-2" data-name="Delete box" fill="#fff">
        <path d="M 119.2156829833984 35 L 8.784317016601562 35 C 4.4920334815979 35 1 31.80193328857422 1 27.8709659576416 L 1 8.129033088684082 C 1 4.198066711425781 4.4920334815979 1 8.784317016601562 1 L 119.2156829833984 1 C 123.5079650878906 1 127 4.198066711425781 127 8.129033088684082 L 127 27.8709659576416 C 127 31.80193328857422 123.5079650878906 35 119.2156829833984 35 Z" stroke="none"/>
        <path d="M 8.784309387207031 2 C 5.043434143066406 2 2 4.749473571777344 2 8.129035949707031 L 2 27.87096405029297 C 2 31.25052642822266 5.043434143066406 34 8.784309387207031 34 L 119.2156753540039 34 C 122.9565658569336 34 126 31.25052642822266 126 27.87096405029297 L 126 8.129035949707031 C 126 4.749473571777344 122.9565658569336 2 119.2156753540039 2 L 8.784309387207031 2 M 8.784309387207031 0 L 119.2156753540039 0 C 124.0671234130859 0 128 3.639492034912109 128 8.129035949707031 L 128 27.87096405029297 C 128 32.36050796508789 124.0671234130859 36 119.2156753540039 36 L 8.784309387207031 36 C 3.932868957519531 36 0 32.36050796508789 0 27.87096405029297 L 0 8.129035949707031 C 0 3.639492034912109 3.932868957519531 0 8.784309387207031 0 Z" stroke="none" fill="#128643"/>
      </g>
      <text id="Slet-2" data-name="Slet" transform="translate(13 23)" fill="#128643" font-size="16" font-family="Objectivity-Medium, Objectivity" font-weight="500"><tspan x="0" y="0">Search</tspan></text>
      <path id="Icon_awesome-search-2" data-name="Icon awesome-search" d="M12.66,11.1l-2.5-2.5a.6.6,0,0,0-.426-.175H9.326a5.212,5.212,0,1,0-.9.9v.409a.6.6,0,0,0,.175.426l2.5,2.5a.6.6,0,0,0,.85,0l.709-.709a.6.6,0,0,0,0-.852ZM5.214,8.423A3.209,3.209,0,1,1,8.423,5.214,3.207,3.207,0,0,1,5.214,8.423Z" transform="translate(102.004 11)" fill="#128643"/>
    </g>
    <g id="Group_496" data-name="Group 496" transform="translate(976 1484)">
      <g id="Delete_box-3" data-name="Delete box" fill="#fff">
        <path d="M 119.2156829833984 35 L 8.784317016601562 35 C 4.4920334815979 35 1 31.80193328857422 1 27.8709659576416 L 1 8.129033088684082 C 1 4.198066711425781 4.4920334815979 1 8.784317016601562 1 L 119.2156829833984 1 C 123.5079650878906 1 127 4.198066711425781 127 8.129033088684082 L 127 27.8709659576416 C 127 31.80193328857422 123.5079650878906 35 119.2156829833984 35 Z" stroke="none"/>
        <path d="M 8.784309387207031 2 C 5.043434143066406 2 2 4.749473571777344 2 8.129035949707031 L 2 27.87096405029297 C 2 31.25052642822266 5.043434143066406 34 8.784309387207031 34 L 119.2156753540039 34 C 122.9565658569336 34 126 31.25052642822266 126 27.87096405029297 L 126 8.129035949707031 C 126 4.749473571777344 122.9565658569336 2 119.2156753540039 2 L 8.784309387207031 2 M 8.784309387207031 0 L 119.2156753540039 0 C 124.0671234130859 0 128 3.639492034912109 128 8.129035949707031 L 128 27.87096405029297 C 128 32.36050796508789 124.0671234130859 36 119.2156753540039 36 L 8.784309387207031 36 C 3.932868957519531 36 0 32.36050796508789 0 27.87096405029297 L 0 8.129035949707031 C 0 3.639492034912109 3.932868957519531 0 8.784309387207031 0 Z" stroke="none" fill="#8f98a6"/>
      </g>
      <text id="Slet-3" data-name="Slet" transform="translate(13 23)" fill="#8f98a6" font-size="16" font-family="Objectivity-Medium, Objectivity" font-weight="500"><tspan x="0" y="0">Search</tspan></text>
      <path id="Icon_awesome-search-3" data-name="Icon awesome-search" d="M12.66,11.1l-2.5-2.5a.6.6,0,0,0-.426-.175H9.326a5.212,5.212,0,1,0-.9.9v.409a.6.6,0,0,0,.175.426l2.5,2.5a.6.6,0,0,0,.85,0l.709-.709a.6.6,0,0,0,0-.852ZM5.214,8.423A3.209,3.209,0,1,1,8.423,5.214,3.207,3.207,0,0,1,5.214,8.423Z" transform="translate(102.004 11)" fill="#8f98a6"/>
    </g>
  </g>
</svg>
