<svg xmlns="http://www.w3.org/2000/svg" xmlns:xlink="http://www.w3.org/1999/xlink" width="78" height="48" viewBox="0 0 78 48">
  <defs>
    <clipPath id="clip-path">
      <rect id="Rectangle_492" data-name="Rectangle 492" width="78" height="48" transform="translate(0 -0.227)"/>
    </clipPath>
  </defs>
  <g id="WeUse_team" data-name="WeUse team" transform="translate(0 0.227)" clip-path="url(#clip-path)">
    <path id="Path_837" data-name="Path 837" d="M1.55.131A6.405,6.405,0,0,0,.75.092L.489.079.424.066a.818.818,0,0,0-.1-.026C.245.03.163.031.082.026.011,0,.041,0,0,0" transform="matrix(-0.871, -0.491, 0.491, -0.871, 38.194, 15.698)" fill="none" stroke="#d79d75" stroke-miterlimit="8" stroke-width="0.667" fill-rule="evenodd"/>
    <path id="Path_838" data-name="Path 838" d="M.9.892C.87.887.834.9.816.879S.81.825.8.8A.183.183,0,0,0,.767.761.211.211,0,0,0,.75.708C.727.671.68.676.636.669c-.124-.1.02,0-.1-.052S.6.609.44.577C.415.473.454.534.375.5.341.483.277.446.277.446.272.424.276.4.261.38S.223.378.212.367a.541.541,0,0,1-.049-.1C.154.244.14.228.13.21.072.093.128.167.065.092A.169.169,0,0,0,.049.039.233.233,0,0,0,0,0" transform="matrix(-0.871, -0.491, 0.491, -0.871, 36.332, 16.409)" fill="none" stroke="#d79d75" stroke-miterlimit="8" stroke-width="0.667" fill-rule="evenodd"/>
    <path id="Path_839" data-name="Path 839" d="M-713,202l5.252.016.916,16.5-.888.058-2.1-14.577-.752-.041c-.016,4.941-.035,9.619-.051,14.561l-.907-.016Z" transform="translate(734.542 -172.191)" fill="#2b384c" fill-rule="evenodd"/>
    <path id="Path_840" data-name="Path 840" d="M-712.753,381.585c.883-.093.814-.39,1.221-.585.305.081.907-.081.925.121,0,.235-.009.573-.009.827l-.593.065-.027-.13-.8.1C-712.974,382.019-713.259,381.756-712.753,381.585Z" transform="translate(734.543 -334.712)" fill="#272727" fill-rule="evenodd"/>
    <path id="Path_841" data-name="Path 841" d="M-711.855,381.585c.9-.092.8-.485,1.239-.585.312.079.808-.052.826.146,0,.232-.055.2-.055.448a12.084,12.084,0,0,1-1.285.2C-711.357,381.866-712.372,381.835-711.855,381.585Z" transform="translate(733.635 -334.712)" fill="#4a4a4a" fill-rule="evenodd"/>
    <path id="Path_842" data-name="Path 842" d="M.257.427c.917.093.845.39,1.268.585.317-.081.942.081.96-.121,0-.235-.009-.573-.009-.827L1.861,0,1.833.13,1,.028C.027-.006-.268.257.257.427Z" transform="translate(29.184 47.301) rotate(180)" fill="#272727" fill-rule="evenodd"/>
    <path id="Path_843" data-name="Path 843" d="M.145.243c.9.091.8.485,1.239.585C1.7.749,2.191.88,2.209.682c0-.232-.055-.2-.055-.448A12.1,12.1,0,0,0,.87.033C.643-.037-.372-.007.145.243Z" transform="translate(29.092 47.117) rotate(180)" fill="#4a4a4a" fill-rule="evenodd"/>
    <path id="Path_844" data-name="Path 844" d="M-609.45,60.581l.827-1.238,1.3.863,3.148-3.74.893-.4c.029.129-.241.308-.718,1.171l-2.142,4.008C-607.349,62.729-607.406,62.233-609.45,60.581Z" transform="translate(640.526 -39.694)" fill="#f5b591" stroke="#f5b591" stroke-miterlimit="8" stroke-width="1.333" fill-rule="evenodd"/>
    <path id="Path_845" data-name="Path 845" d="M-769.17,57.21c-1.037.75-1.325,1.047-2.362,1.768a2.3,2.3,0,0,1-.968-1.607,12.286,12.286,0,0,1,3.257-2.7,16.306,16.306,0,0,1,3.051-1.169c1.252,0,2.327.106,3.579.111a34.357,34.357,0,0,1,3.537,1.434,34.675,34.675,0,0,1,2.957,2.205,3.851,3.851,0,0,1-.487,2.3,17.958,17.958,0,0,0-2.951-2.245c-1.752,2.183-1.528,9.979-2.072,10.145-1.262.9-3.668.6-5.81.248C-767.394,64.48-767.336,59.64-769.17,57.21Z" transform="translate(788.565 -37.362)" fill="#17a754" stroke="#17a754" stroke-miterlimit="8" stroke-width="0.2" fill-rule="evenodd"/>
    <path id="Path_846" data-name="Path 846" d="M-727,114a2.937,2.937,0,0,1,.46,1.749A13.52,13.52,0,0,0-727,114Z" transform="translate(747.254 -92.292)" fill="#146c3b" fill-rule="evenodd"/>
    <path id="Path_847" data-name="Path 847" d="M0,1.749A3.512,3.512,0,0,0,.368,0,16.315,16.315,0,0,1,0,1.749Z" transform="translate(28.171 23.641) rotate(180)" fill="#146c3b" fill-rule="evenodd"/>
    <path id="Path_848" data-name="Path 848" d="M-601.835,93.538a3.665,3.665,0,0,0,.4-2.3c.05-.153.275-.169.306.074a3.318,3.318,0,0,1-.494,2.412C-601.658,93.765-601.767,93.78-601.835,93.538Z" transform="translate(633.612 -71.525)" fill="#146c3b" fill-rule="evenodd"/>
    <path id="Path_849" data-name="Path 849" d="M-711.378,203.579a9.362,9.362,0,0,1-5.7-.011q-.059-.027-.114-.055" transform="translate(738.348 -173.564)" fill="none" stroke="#595959" stroke-miterlimit="8" stroke-width="0.1" fill-rule="evenodd"/>
    <path id="Path_850" data-name="Path 850" d="M-787.92,95.5l.767,1.521-.349.271,4.88,7.047.488,3.272c-.282.318-.353.635-.847.953-.161.165.038.293-.129.367-.084,0-.311.11-.377-.367-.186-.027-.714-.035-.727-.128-.015-.212-.1-.612.424-.467.218-.075.261.137.12-.156-.522-.145-.532-.295-.746-1.347.156-.3.378-.422.635-.33-.147-1.029-.064-1.353.3-1.631l-5.718-6.758c-.529-.773-.247-.877-.04-1.219Z" transform="translate(804 -75.496)" fill="#f5b591" stroke="#f5b591" stroke-miterlimit="8" stroke-width="0.2" fill-rule="evenodd"/>
    <path id="Path_851" data-name="Path 851" d="M-729.948,213.5a.43.43,0,0,1-.026.055c-.007.01-.018.014-.026.022s-.017.022-.026.033,0,.041-.009.055-.023.005-.034.011c-.083.046.039,0-.06.033-.127.081,0,.011-.337.033-.027,0-.025.009-.035.033" transform="translate(750.431 -182.632)" fill="#f5b591" stroke="#d79d75" stroke-miterlimit="8" stroke-width="0.1" fill-rule="evenodd"/>
    <path id="Path_852" data-name="Path 852" d="M-728.5,212.5c-.007-.024,0,.088.045.11.015.091,0,0,.022.077.031.091-.02-.029.022.066C-728.4,212.862-728.49,212.527-728.5,212.5Z" transform="translate(748.615 -181.724)" fill="#f5b591" stroke="#d79d75" stroke-miterlimit="8" stroke-width="1" fill-rule="evenodd"/>
    <path id="Path_853" data-name="Path 853" d="M-731.4,222.5l-.377.087c-.009,0-.018.007-.027.01l-.09.019c-.053.057,0,.009-.1.039-.01,0-.017.014-.027.019a.2.2,0,0,1-.027.01l-.386-.019a.069.069,0,0,1-.027-.01.261.261,0,0,1-.027-.019l-.018-.029" transform="translate(752.247 -190.804)" fill="#f5b591" stroke="#d79d75" stroke-miterlimit="8" stroke-width="0.1" fill-rule="evenodd"/>
    <path id="Path_854" data-name="Path 854" d="M-718.229,226.5c.027-.011-.071.011-.107.018-.009,0-.016.008-.025.009-.041.008-.082.012-.123.018-.005.012-.01.025-.016.037C-718.518,226.62-718.256,226.513-718.229,226.5Z" transform="translate(739.537 -194.435)" fill="#f5b591" stroke="#d79d75" stroke-miterlimit="8" stroke-width="1" fill-rule="evenodd"/>
    <path id="Path_855" data-name="Path 855" d="M-726.856,227.5c-.259.629-.065.431-.644.431" transform="translate(747.708 -195.343)" fill="#f5b591" stroke="#d79d75" stroke-miterlimit="8" stroke-width="0.1" fill-rule="evenodd"/>
    <path id="Path_856" data-name="Path 856" d="M-726.5,229.592l.4-.031a.327.327,0,0,0,.061-.031V229.5" transform="translate(746.8 -197.159)" fill="#f5b591" stroke="#d79d75" stroke-miterlimit="8" stroke-width="0.1" fill-rule="evenodd"/>
    <path id="Path_857" data-name="Path 857" d="M-696.826,30.1l2-.1c.014,1.175.119,1.672.132,2.847-.663.052-.777,1.32-1.161,1.2s-.367-.987-1.141-1.523Z" transform="translate(720.015 -16.026)" fill="#f5b591" fill-rule="evenodd"/>
    <path id="Path_858" data-name="Path 858" d="M-695.918,34c.538.482.94.535,1.943,0l-.036.434a5.322,5.322,0,0,1-1.989.395A2.931,2.931,0,0,1-695.918,34Z" transform="translate(719.108 -19.657)" fill="#f5b591" fill-rule="evenodd"/>
    <path id="Path_859" data-name="Path 859" d="M.8,2.658C.928,2.782.782,1.921.79,1.507c.1-.527.72-.761.567-.868C1,.268.141-.177.074.073-.1,1.281-.016,2.28.8,2.658Z" transform="translate(26.054 17.749) rotate(180)" fill="#146c3b" fill-rule="evenodd"/>
    <path id="Path_860" data-name="Path 860" d="M.809,2.486l.019-.14A12.633,12.633,0,0,1,.35,0L0,.355a17.433,17.433,0,0,0,.356,1.97C.571,2.44.754,2.4.809,2.486Z" transform="translate(24.442 19.544) rotate(180)" fill="#17a754" stroke="#595959" stroke-miterlimit="8" stroke-width="0.1" fill-rule="evenodd"/>
    <path id="Path_861" data-name="Path 861" d="M-684.849,64.5l.362.363a3.286,3.286,0,0,0-.383,2.03l-.63-.048a6.263,6.263,0,0,1,.376-2.28Z" transform="translate(709.574 -47.35)" fill="#17a754" stroke="#595959" stroke-miterlimit="8" stroke-width="0.1" fill-rule="evenodd"/>
    <path id="Path_862" data-name="Path 862" d="M-704.2,42.013c.125-.129-.021.762-.013,1.191.1.545.72.787.567.9-.356.384-1.215.844-1.283.586C-705.1,43.436-705.016,42.4-704.2,42.013Z" transform="translate(727.279 -26.921)" fill="#146c3b" fill-rule="evenodd"/>
    <path id="Path_863" data-name="Path 863" d="M-668.007,78.753l.687-.668a.134.134,0,0,1,.186,0l.548.543,0-.139a.09.09,0,0,1,.179,0v.373a.108.108,0,0,1-.108.105l-.359,0a.091.091,0,0,1,0-.181l.131,0-.487-.469h0l-.616.6C-667.988,79.041-668.145,78.861-668.007,78.753Z" transform="translate(693.74 -59.65)" fill="#fff" fill-rule="evenodd"/>
    <path id="Path_864" data-name="Path 864" d="M-669.257,90.965h-1.323c-.218.007-.231-.087-.231-.194l0-.417-.1.092c-.088.067-.2-.039-.128-.119l.275-.253a.117.117,0,0,1,.155,0l.256.238c.076.07-.044.2-.134.123l-.1-.085v.4h1.218l0-.59c-.01-.116.226-.159.229,0l0,.593C-669.13,90.874-669.114,90.95-669.257,90.965Z" transform="translate(696.465 -70.544)" fill="#fff" fill-rule="evenodd"/>
    <path id="Path_865" data-name="Path 865" d="M-773.757,93.03l.954,1.788c-.11.008-.012.239-.33.024l-.82-1.489C-774.071,93.245-773.952,92.9-773.757,93.03Z" transform="translate(789.927 -73.226)" fill="#146c3b" fill-rule="evenodd"/>
    <path id="Path_866" data-name="Path 866" d="M-683,78.138a.138.138,0,0,1,.138-.138.138.138,0,0,1,.138.138.138.138,0,0,1-.138.138A.138.138,0,0,1-683,78.138Z" transform="translate(707.304 -59.607)" fill="#146c3b" fill-rule="evenodd"/>
    <path id="Path_867" data-name="Path 867" d="M-681,69.138a.138.138,0,0,1,.138-.138.138.138,0,0,1,.138.138.138.138,0,0,1-.138.138A.138.138,0,0,1-681,69.138Z" transform="translate(705.489 -51.435)" fill="#146c3b" fill-rule="evenodd"/>
    <path id="Path_868" data-name="Path 868" d="M-739.642-81.6c1.2-.938,5.874-1.386,7.276-1.4.587-.042.4.595.6,1.469a18.513,18.513,0,0,1,.319,4.235c.476-.825,1.273.038,1,1.153-.155.4-.65,1.66-1.331,1.251-.046,2.863-.865,3.323-2.51,3.979a4.006,4.006,0,0,1-2.365.052c-2.427-.662-2.2-1.721-2.618-4-.573.124-.935-.116-1.293-1.239-.362-1.589.519-1.821.981-1.268A17.539,17.539,0,0,1-739.642-81.6Z" transform="translate(759.644 86.575)" fill="#f5b591" fill-rule="evenodd"/>
    <path id="Path_869" data-name="Path 869" d="M.412,5.28c.5-.23.619-.4,1.118-.631-.26-.208-.27-.166-.458-.489C1.007,3.348.871,1.349.79,0L.575.063A1.45,1.45,0,0,1,.148,1.246C-.036,3.167-.142,4.023.412,5.28Z" transform="translate(28.424 10.283) rotate(-175.123)" fill="#834a36" fill-rule="evenodd"/>
    <path id="Path_870" data-name="Path 870" d="M-734.647-70.662c.516.187.6.6,1.112.783a1.166,1.166,0,0,0-.415.527c.005.813.039,2.816.073,4.168l-.219-.045c-.054-.561-.035-.819-.526-1.142A7.846,7.846,0,0,1-734.647-70.662Z" transform="translate(754.458 75.37)" fill="#834a36" fill-rule="evenodd"/>
    <path id="Path_871" data-name="Path 871" d="M-727-104.552c.557.32,1.187.282,1.283,1.411.195.084.74.62.63,1.965-.382.126-.82.091-1.183.227a4.08,4.08,0,0,0-3.32-.028,4.019,4.019,0,0,0-3.2,0c-.574-.085-.737.18-1.207-.216a4.477,4.477,0,0,1,.774-2.361c.422-.342.575-.51.986-.536.3-.412.633-.51.876-.386.379-.235.75-.19.71-.292-.059.071-.124.354-.083.254.138-.13.14-.212.295-.3a2.952,2.952,0,0,1,.931-.151c-.111.078-.467.441-.212.273.686-.458,1.335-.337,1.41-.056.053-.077-.084-.177.129-.141.471.077,1.041.254,1.124.47Z" transform="translate(753.609 106.546)" fill="#4c2f12" fill-rule="evenodd"/>
    <path id="Path_872" data-name="Path 872" d="M-732-82.058c.145-.314.108-.686.436-.942a2.533,2.533,0,0,0,.392,1.381C-731.735-81.829-731.654-81.761-732-82.058Z" transform="translate(751.793 86.571)" fill="#633c18" fill-rule="evenodd"/>
    <path id="Path_873" data-name="Path 873" d="M-725.913-94.526c.086.068.079.073.149.264a.442.442,0,0,1,.182-.427c.068-.119.24-.134.155.186.087-.052.2-.487.37-.5a2.8,2.8,0,0,0,.255,2.3A1.3,1.3,0,0,1-725.913-94.526Z" transform="translate(746.346 97.467)" fill="#633c18" fill-rule="evenodd"/>
    <path id="Path_874" data-name="Path 874" d="M-682.929-72.225c.078-.007.442-.622.541-.618-.118.274-.222.359-.389.706.181-.017.282-.108.473-.038a6.734,6.734,0,0,1-1.2.279,4.614,4.614,0,0,0-3.307-.069c-.562-.035.319-.287.167-.828.229.146-.065.653.037.631s.272.044.343-.075a1.589,1.589,0,0,0,.111-.6c.158.239-.042.589.065.556s.2-.013.3-.094c.213-.06.222-.457.259-.4a.641.641,0,0,1-.093.48,2.434,2.434,0,0,0,.76-.16c.215-.173.246-.135.343-.546.208.334-.32.719-.2.612.474.016.363-.5.482-.612.08.182-.191.595-.074.593.232.025.153.091.287.028.343-.124.36-.386.445-.33,0,.291-.451.567-.259.452.584.116.715-.6.926-.65a6.639,6.639,0,0,1-.463.782C-683.019-72.146-683.025-72.17-682.929-72.225Z" transform="translate(710.936 77.492)" fill="#351f0b" fill-rule="evenodd"/>
    <path id="Path_875" data-name="Path 875" d="M4.043.351c.078.007.35.568.449.563-.119-.27-.129-.307-.3-.65.181.017.217.078.408.009A1.647,1.647,0,0,0,3.468.025,4.687,4.687,0,0,1,.155.094C-.369.206.593.218.7.362S.972.447.991.706C1.149.471.773.376.879.409s.2.012.3.093c.213.059.288.4.325.344s-.042-.2-.158-.427A2.471,2.471,0,0,1,2.1.576c.215.17.246.031.343.437.209-.33-.32-.607-.2-.5a.794.794,0,0,1,.714.344c.08-.18-.34-.336-.223-.334C2.967.5,2.8.44,2.939.5c.343.122.425.492.51.437,0-.287-.517-.671-.325-.557.585-.115.438.22.65.269a1.369,1.369,0,0,0-.186-.4C3.952.272,3.947.3,4.043.351Z" transform="translate(24.212 5.597) rotate(180)" fill="#351f0b" fill-rule="evenodd"/>
    <path id="Path_876" data-name="Path 876" d="M-715-95.02a1.894,1.894,0,0,1,.289-.98,3.235,3.235,0,0,0,.263,2.209A2.176,2.176,0,0,1-715-95.02Z" transform="translate(736.358 98.375)" fill="#633c18" fill-rule="evenodd"/>
    <path id="Path_877" data-name="Path 877" d="M-712-96.941A2.34,2.34,0,0,1-711.493-98a3.009,3.009,0,0,0,.137,2.3C-711.817-95.967-711.982-96.812-712-96.941Z" transform="translate(733.635 100.19)" fill="#633c18" fill-rule="evenodd"/>
    <path id="Path_878" data-name="Path 878" d="M-706-100.568c.136-.343.377-.905.506-1.312a1.331,1.331,0,0,0,.323-.119c-.508,1.1-.716,1.682-.386,2.486C-705.969-99.785-705.984-100.439-706-100.568Z" transform="translate(728.187 103.822)" fill="#633c18" fill-rule="evenodd"/>
    <path id="Path_879" data-name="Path 879" d="M-696.1-101.648a4.151,4.151,0,0,1,.572-.352c-1.639,1.345-.342,1.922-.745,3.222-.506-.488-.1-.632-.454-.108-.355-1.179-.584-1.762.76-3.077Z" transform="translate(720.015 103.822)" fill="#633c18" fill-rule="evenodd"/>
    <path id="Path_880" data-name="Path 880" d="M-685.079-95.7c-1.114-.25-1.274-2.064-.166-2.286-.081-.161-.488,1.005-.391,1.414A9.307,9.307,0,0,1-685.079-95.7Z" transform="translate(710.028 100.19)" fill="#633c18" fill-rule="evenodd"/>
    <path id="Path_881" data-name="Path 881" d="M-675.621-99.238c.179-.53-.754-.737-.2-1.43.4-.275-.074-1.306.038-1.331.237.245.323.166.407.286s.1.41.145.409-.018-.478.068-.409.15.014.193.143c.152.184.082.285.087.589.16-.245.049-.777.106-.523.411.313-.1.937-.114,1.186.128.344.153.814-.321.98-.068.119.021-.387-.087-.266C-675.423-99.425-675.308-99.229-675.621-99.238Z" transform="translate(700.949 103.822)" fill="#633c18" fill-rule="evenodd"/>
    <path id="Path_882" data-name="Path 882" d="M-659.8-97.514c-.033-.376-.446-.522.01-1.139a1.351,1.351,0,0,0-.029-1.31c.062-.164.36.262.522.342a1.174,1.174,0,0,1,.244.938c.123.333.091.586-.347.951-.066.115.02-.376-.084-.258C-659.6-97.815-659.5-97.505-659.8-97.514Z" transform="translate(686.422 102.006)" fill="#633c18" fill-rule="evenodd"/>
    <path id="Path_883" data-name="Path 883" d="M-652-89.251A2.5,2.5,0,0,0-651.4-91a1.506,1.506,0,0,1,.2.413c.047.095-.03.4,0,.447s.132-.259.18-.157c.113.2.282.321.188.476A2.368,2.368,0,0,1-652-89.251Z" transform="translate(679.158 93.835)" fill="#633c18" fill-rule="evenodd"/>
    <path id="Path_884" data-name="Path 884" d="M-717.663-23.748c.093-.346.668-.284,1-.426.311.143.809.194.97.428.161.087-.089.7-1,.771C-717.219-22.916-717.76-23.3-717.663-23.748Z" transform="translate(738.786 33.161)" fill="#fff" fill-rule="evenodd"/>
    <path id="Path_885" data-name="Path 885" d="M-713.834-24.489a.578.578,0,0,1,.582-.568.578.578,0,0,1,.646.493.578.578,0,0,1-.582.568A.578.578,0,0,1-713.834-24.489Z" transform="translate(735.3 33.964)" fill="#503d00" stroke="#7f6000" stroke-miterlimit="8" stroke-width="0.067" fill-rule="evenodd"/>
    <path id="Path_886" data-name="Path 886" d="M-711.323-23.05a.344.344,0,0,1,.322-.364.344.344,0,0,1,.364.322.344.344,0,0,1-.322.364A.344.344,0,0,1-711.323-23.05Z" transform="translate(733.021 32.472)" fill-rule="evenodd"/>
    <path id="Path_887" data-name="Path 887" d="M-712.778-22.588a.219.219,0,0,1,.2-.232.219.219,0,0,1,.232.2.219.219,0,0,1-.2.232A.219.219,0,0,1-712.778-22.588Z" transform="translate(734.342 31.931)" fill="#fff" fill-rule="evenodd"/>
    <path id="Path_888" data-name="Path 888" d="M-717.995-25.311c-.048-.283.6-.646.871-.651.221,0,1.091-.048,1.176.63a1.636,1.636,0,0,0-.948-.327A1.988,1.988,0,0,0-717.995-25.311Z" transform="translate(739.08 34.786)" fill="#332a27" fill-rule="evenodd"/>
    <path id="Path_889" data-name="Path 889" d="M-714.44-27.215a1.119,1.119,0,0,1,1.405-.057" transform="translate(735.85 36.174)" fill="none" stroke="#977961" stroke-miterlimit="8" stroke-width="0.1" fill-rule="evenodd"/>
    <path id="Path_890" data-name="Path 890" d="M.019.833c.114.34.684.243,1.026.364.3-.162.8-.243.942-.486C2.142.614,1.855.017.942,0,.41-.025-.105.394.019.833Z" transform="matrix(-0.998, -0.061, 0.061, -0.998, 27.127, 10.268)" fill="#fff" fill-rule="evenodd"/>
    <path id="Path_891" data-name="Path 891" d="M0,.531a.578.578,0,0,0,.615.531A.578.578,0,0,0,1.23.531.578.578,0,0,0,.615,0,.578.578,0,0,0,0,.531Z" transform="matrix(-0.998, -0.061, 0.061, -0.998, 26.784, 10.028)" fill="#503d00" stroke="#7f6000" stroke-miterlimit="8" stroke-width="0.067" fill-rule="evenodd"/>
    <path id="Path_892" data-name="Path 892" d="M0,.344A.344.344,0,1,0,.344,0,.344.344,0,0,0,0,.344Z" transform="matrix(-0.998, -0.061, 0.061, -0.998, 26.564, 9.788)" fill-rule="evenodd"/>
    <path id="Path_893" data-name="Path 893" d="M0,.219A.219.219,0,1,0,.219,0,.219.219,0,0,0,0,.219Z" transform="matrix(-0.998, -0.061, 0.061, -0.998, 26.192, 9.607)" fill="#fff" fill-rule="evenodd"/>
    <path id="Path_894" data-name="Path 894" d="M0,.1C-.03.389.643.712.91.7,1.131.692,2,.682,2.045,0a1.635,1.635,0,0,1-.926.384A1.988,1.988,0,0,1,0,.1Z" transform="matrix(-0.998, -0.061, 0.061, -0.998, 27.193, 9.603)" fill="#332a27" fill-rule="evenodd"/>
    <path id="Path_895" data-name="Path 895" d="M0,1.118A1.119,1.119,0,0,0,.853,0" transform="translate(25.957 9.624) rotate(-125.005)" fill="none" stroke="#977961" stroke-miterlimit="8" stroke-width="0.1" fill-rule="evenodd"/>
    <path id="Path_896" data-name="Path 896" d="M-694.9-13.777c.088.383-.35.383.794.583a2.8,2.8,0,0,0,.689-.251,9.819,9.819,0,0,0-.31-1.9c.106.347.773,1.942.339,2.16a1.392,1.392,0,0,1-.989.148C-695.328-13.194-695.108-13.491-694.9-13.777Z" transform="translate(718.272 25.149)" fill="#c3815d" fill-rule="evenodd"/>
    <path id="Path_897" data-name="Path 897" d="M-721.8-36.8a2.051,2.051,0,0,1,1.519-.1c.344.105.975.74.544.727a3.808,3.808,0,0,0-2.388,0C-722.586-36.028-722.075-36.645-721.8-36.8Z" transform="translate(742.997 44.805)" fill="#4b4434" fill-rule="evenodd"/>
    <path id="Path_898" data-name="Path 898" d="M.6.964A2.051,2.051,0,0,0,2.113.812c.322-.16.842-.889.418-.805A3.808,3.808,0,0,1,.175.4C-.3.329.306.855.6.964Z" transform="translate(27.434 9.063) rotate(-170.635)" fill="#4b4434" fill-rule="evenodd"/>
    <path id="Path_899" data-name="Path 899" d="M-706.9,15.724c-2.043.9-3.648-.336-3.692-.984a6.23,6.23,0,0,1,.227-1.855c.127-.388,1.323-.41,2-.374s1.905-.089,2.064.588l.271,1.209A2.314,2.314,0,0,1-706.9,15.724Z" transform="translate(732.371 -0.135)" fill="#e9aa85" fill-rule="evenodd"/>
    <path id="Path_900" data-name="Path 900" d="M-704.577,18.889l3.229.048c-.017.763.006.875.008,1.552.022.539-.442.88-1.15.553-.371-.2-.352-.505-.988.041-.868.253-1.158-.14-1.14-.621Z" transform="translate(726.933 -5.937)" fill="#f5b591" fill-rule="evenodd"/>
    <path id="Path_901" data-name="Path 901" d="M-699.257,21.835c-.281-.342.535-.08,1.161.005.748-.05,1.4-.244,1.2,0a3.236,3.236,0,0,1-.44.515,1.421,1.421,0,0,1-1.416.044C-698.991,22.338-699,22.133-699.257,21.835Z" transform="translate(722.116 -8.457)" fill="#fff" stroke="#c3815d" stroke-miterlimit="8" stroke-width="0.2" fill-rule="evenodd"/>
    <path id="Path_902" data-name="Path 902" d="M0,.383C.83-.039.82.135,1.636.24A1.25,1.25,0,0,0,0,.383Z" transform="matrix(0.998, 0.061, -0.061, 0.998, 23.208, 14.318)" fill="#c3815d" fill-rule="evenodd"/>
    <path id="Path_904" data-name="Path 904" d="M-728-27.359c-.007-.306.274-.68,1.732-.638s1.674.3,1.674.805-.048.979-1.634,1.031S-727.993-27.053-728-27.359Z" transform="translate(748.162 36.635)" fill="rgba(255,255,255,0.2)" stroke="#707070" stroke-width="0.1" fill-rule="evenodd"/>
    <path id="Path_906" data-name="Path 906" d="M0,1.2c-.007.306.274.68,1.732.638s1.674-.3,1.674-.805S3.358.054,1.773,0,.007.894,0,1.2Z" transform="translate(28.079 10.476) rotate(180)" fill="rgba(255,255,255,0.2)" stroke="#707070" stroke-width="0.1" fill-rule="evenodd"/>
    <path id="Path_907" data-name="Path 907" d="M-611.053,49.191c.069-.384,2.179.4,2.178.125,0-.172-2.166-.941-2.006-1.293s1.63.578,2.31.688c-.122-.331-2.426-1.215-2.051-1.758.155-.407,2.549,1.557,2.385,1.1-.214-.274-2.344-1.522-2.044-2,.22-.376,2.315,1.449,3.08,1.688.64-.073-.494-1.548.33-1.929.22-.1.322,1.173.674,1.862a11.3,11.3,0,0,1,.094,1.613,3.873,3.873,0,0,0,.255.31c.15.486-.132.782-.395.717a3.862,3.862,0,0,1-.415-.252,1.541,1.541,0,0,1-1.414.095C-608.775,50.023-611.123,49.58-611.053,49.191Z" transform="translate(641.983 -30.382)" fill="#fcd3b5" fill-rule="evenodd"/>
    <path id="Path_908" data-name="Path 908" d="M-585.672,69.285a6.392,6.392,0,0,1-.373.708c-.041.077-.081.154-.122.231-.007.021-.016.042-.022.063a.8.8,0,0,1-.027.1c-.033.074-.075.145-.113.217-.011.075,0,.049-.019.084" transform="translate(619.55 -51.694)" fill="none" stroke="#d79d75" stroke-miterlimit="8" stroke-width="0.667" fill-rule="evenodd"/>
    <path id="Path_909" data-name="Path 909" d="M-568.651,67.768c-.01.026-.036.053-.03.077s.043.032.06.054a.183.183,0,0,1,.017.048.208.208,0,0,1,.037.041c.02.039-.008.077-.024.118.023.158.006-.02,0,.111-.01.115.038-.051-.016.1.076.075.044.01.034.1,0,.037,0,.111,0,.111.016.016.04.025.048.047s-.017.034-.014.049.049.07.065.1.018.038.029.055c.071.11.035.024.068.116.012.014.029.023.037.041a.234.234,0,0,1,.009.062" transform="translate(603.511 -50.317)" fill="none" stroke="#d79d75" stroke-miterlimit="8" stroke-width="0.667" fill-rule="evenodd"/>
    <path id="Path_910" data-name="Path 910" d="M.795,6.537l1.49-.489c-.77-.928-.182-1-.273-1.5L5.307.938,5.586,0C5.454-.012,5.312.28,4.519.866L.827,3.515C-.485,4.905-.036,4.375.795,6.537Z" transform="matrix(-0.382, -0.924, 0.924, -0.382, 36.496, 24.265)" fill="#fcd3b5" stroke="#fcd3b5" stroke-miterlimit="8" stroke-width="1.333" fill-rule="evenodd"/>
    <path id="Path_911" data-name="Path 911" d="M1.55.131A6.405,6.405,0,0,0,.75.092L.489.079.424.066a.818.818,0,0,0-.1-.026C.245.03.163.031.082.026.011,0,.041,0,0,0" transform="matrix(-0.871, -0.491, 0.491, -0.871, 62.798, 15.863)" fill="none" stroke="#d79d75" stroke-miterlimit="8" stroke-width="0.667" fill-rule="evenodd"/>
    <path id="Path_912" data-name="Path 912" d="M.9.892C.87.887.834.9.816.879S.81.825.8.8A.183.183,0,0,0,.767.761.211.211,0,0,0,.75.708C.727.671.68.676.636.669c-.124-.1.02,0-.1-.052S.6.609.44.577C.415.473.454.534.375.5.341.483.277.446.277.446.272.424.276.4.261.38S.223.378.212.367a.541.541,0,0,1-.049-.1C.154.244.14.228.13.21.072.093.128.167.065.092A.169.169,0,0,0,.049.039.233.233,0,0,0,0,0" transform="matrix(-0.871, -0.491, 0.491, -0.871, 60.936, 16.575)" fill="none" stroke="#d79d75" stroke-miterlimit="8" stroke-width="0.1" fill-rule="evenodd"/>
    <path id="Path_913" data-name="Path 913" d="M-342.2,62.374l.827-1.238,1.3.863,3.148-3.74.893-.4c.029.129-.241.308-.718,1.171l-2.143,4.008C-340.1,64.522-340.158,64.026-342.2,62.374Z" transform="translate(397.88 -41.322)" fill="#fcd3b5" stroke="#fcd3b5" stroke-miterlimit="8" stroke-width="1.333" fill-rule="evenodd"/>
    <path id="Path_914" data-name="Path 914" d="M-446,204l5.253.016.916,16.5-.888.058-2.1-14.577-.752-.041c-.016,4.941-.035,9.619-.051,14.561l-.907-.016Z" transform="translate(492.123 -174.007)" fill="#2b384c" fill-rule="evenodd"/>
    <path id="Path_915" data-name="Path 915" d="M-445.743,383.585c.917-.093.845-.39,1.268-.585.317.081.942-.081.961.121,0,.235-.009.573-.009.827l-.616.065-.028-.13-.83.1C-445.973,384.019-446.269,383.756-445.743,383.585Z" transform="translate(492.123 -336.528)" fill="#272727" fill-rule="evenodd"/>
    <path id="Path_916" data-name="Path 916" d="M-444.855,383.585c.9-.092.8-.485,1.239-.585.312.079.808-.052.826.146,0,.232-.055.2-.055.448a12.069,12.069,0,0,1-1.285.2C-444.357,383.866-445.372,383.835-444.855,383.585Z" transform="translate(491.215 -336.528)" fill="#4a4a4a" fill-rule="evenodd"/>
    <path id="Path_917" data-name="Path 917" d="M.247.427c.883.093.814.39,1.221.585.305-.081.907.081.925-.121,0-.235-.009-.573-.009-.827L1.792,0,1.765.13l-.8-.1C.026-.006-.258.257.247.427Z" transform="translate(53.764 47.485) rotate(180)" fill="#272727" fill-rule="evenodd"/>
    <path id="Path_918" data-name="Path 918" d="M.145.243c.9.091.8.485,1.239.585C1.7.749,2.191.88,2.209.682c0-.232-.055-.2-.055-.448A12.1,12.1,0,0,0,.87.033C.643-.037-.372-.007.145.243Z" transform="translate(53.672 47.301) rotate(180)" fill="#4a4a4a" fill-rule="evenodd"/>
    <path id="Path_919" data-name="Path 919" d="M-501.17,58.234c-1.037.755-1.325,1.053-2.362,1.779A2.313,2.313,0,0,1-504.5,58.4a12.306,12.306,0,0,1,3.257-2.72,16.245,16.245,0,0,1,3.052-1.176c1.252,0,2.327.107,3.579.111a34.237,34.237,0,0,1,3.537,1.443,34.678,34.678,0,0,1,2.957,2.219,3.9,3.9,0,0,1-.487,2.315,17.967,17.967,0,0,0-2.951-2.259c-1.752,2.2-1.528,10.042-2.072,10.209-1.262.907-3.668.608-5.81.25C-499.395,65.55-499.336,60.679-501.17,58.234Z" transform="translate(545.237 -38.27)" fill="#17a754" stroke="#17a754" stroke-miterlimit="8" stroke-width="0.2" fill-rule="evenodd"/>
    <path id="Path_920" data-name="Path 920" d="M-459,115a3.86,3.86,0,0,1,.368,1.841A17.945,17.945,0,0,0-459,115Z" transform="translate(503.926 -93.2)" fill="#146c3b" fill-rule="evenodd"/>
    <path id="Path_921" data-name="Path 921" d="M0,1.841A3.216,3.216,0,0,0,.46,0,14.835,14.835,0,0,1,0,1.841Z" transform="translate(52.844 23.825) rotate(180)" fill="#146c3b" fill-rule="evenodd"/>
    <path id="Path_922" data-name="Path 922" d="M-334.587,95.331a3.665,3.665,0,0,0,.4-2.3c.05-.153.275-.169.306.074a3.319,3.319,0,0,1-.493,2.412C-334.41,95.558-334.519,95.573-334.587,95.331Z" transform="translate(390.967 -73.153)" fill="#146c3b" fill-rule="evenodd"/>
    <path id="Path_923" data-name="Path 923" d="M-444.13,205.372a9.362,9.362,0,0,1-5.7-.011q-.059-.027-.114-.055" transform="translate(495.703 -175.192)" fill="none" stroke="#595959" stroke-miterlimit="8" stroke-width="0.1" fill-rule="evenodd"/>
    <path id="Path_924" data-name="Path 924" d="M-429.826,32.1l2-.1c.014,1.175.119,1.672.132,2.847-.663.052-.777,1.32-1.161,1.2s-.366-.987-1.141-1.523Z" transform="translate(477.596 -17.842)" fill="#fcd3b5" fill-rule="evenodd"/>
    <path id="Path_925" data-name="Path 925" d="M-428.914,36c.563.482.982.535,2.032,0l-.038.434a5.784,5.784,0,0,1-2.079.395A2.812,2.812,0,0,1-428.914,36Z" transform="translate(476.688 -21.473)" fill="#fcd3b5" fill-rule="evenodd"/>
    <path id="Path_926" data-name="Path 926" d="M.857,2.658c.133.125-.022-.737-.014-1.151.106-.527.768-.761.6-.868C1.068.268.151-.177.079.073-.1,1.281-.017,2.28.857,2.658Z" transform="translate(50.726 17.933) rotate(180)" fill="#146c3b" fill-rule="evenodd"/>
    <path id="Path_927" data-name="Path 927" d="M.809,2.486l.019-.14A12.633,12.633,0,0,1,.35,0L0,.355a17.433,17.433,0,0,0,.356,1.97C.571,2.44.754,2.4.809,2.486Z" transform="translate(49.023 19.728) rotate(180)" fill="#17a754" stroke="#595959" stroke-miterlimit="8" stroke-width="0.1" fill-rule="evenodd"/>
    <path id="Path_928" data-name="Path 928" d="M-417.79,66.5l.4.363a3.061,3.061,0,0,0-.418,2.03l-.687-.048a5.8,5.8,0,0,1,.41-2.28Z" transform="translate(467.155 -49.165)" fill="#17a754" stroke="#595959" stroke-miterlimit="8" stroke-width="0.1" fill-rule="evenodd"/>
    <path id="Path_929" data-name="Path 929" d="M-437.2,44.012c.125-.125-.021.737-.013,1.151.1.527.72.761.567.868-.356.371-1.215.816-1.283.566C-438.1,45.388-438.016,44.39-437.2,44.012Z" transform="translate(484.86 -28.737)" fill="#146c3b" fill-rule="evenodd"/>
    <path id="Path_930" data-name="Path 930" d="M-401.007,80.753l.687-.668a.134.134,0,0,1,.186,0l.548.543,0-.139a.09.09,0,0,1,.179,0v.373a.108.108,0,0,1-.108.105l-.359,0a.091.091,0,0,1,0-.181l.131,0-.487-.469h0l-.616.6C-400.988,81.041-401.145,80.861-401.007,80.753Z" transform="translate(451.32 -61.466)" fill="#fff" fill-rule="evenodd"/>
    <path id="Path_931" data-name="Path 931" d="M-402.257,92.062h-1.323c-.218.008-.231-.1-.231-.214l0-.459-.1.1a.092.092,0,0,1-.128-.131l.275-.278a.109.109,0,0,1,.155,0l.256.262c.076.077-.044.22-.134.135l-.1-.093v.438h1.218l0-.649c-.01-.128.226-.174.229,0l0,.653C-402.13,91.962-402.114,92.045-402.257,92.062Z" transform="translate(454.045 -71.456)" fill="#fff" fill-rule="evenodd"/>
    <path id="Path_932" data-name="Path 932" d="M-506.757,95.03l.954,1.788c-.11.008-.012.239-.33.024l-.82-1.489C-507.071,95.245-506.952,94.9-506.757,95.03Z" transform="translate(547.507 -75.042)" fill="#146c3b" fill-rule="evenodd"/>
    <path id="Path_933" data-name="Path 933" d="M-416,80.138a.138.138,0,0,1,.138-.138.138.138,0,0,1,.138.138.138.138,0,0,1-.138.138A.138.138,0,0,1-416,80.138Z" transform="translate(464.885 -61.423)" fill="#146c3b" fill-rule="evenodd"/>
    <path id="Path_934" data-name="Path 934" d="M-414,70.138a.138.138,0,0,1,.138-.138.138.138,0,0,1,.138.138.138.138,0,0,1-.138.138A.138.138,0,0,1-414,70.138Z" transform="translate(463.069 -52.343)" fill="#146c3b" fill-rule="evenodd"/>
    <path id="Path_935" data-name="Path 935" d="M-468.061-105.263c-.13-.657.424-.939,1.278-1.655.273-.257.094.036.361.067-.014-.122-.051-.05-.179-.216.281-.185.553-.247.811-.429,1.4-.616,1.1.143,1.261-.1-.142-.188-.429-.113-.133-.226a5.951,5.951,0,0,1,1.908-.452c1.487.09,1.825.032,2.4,1.42.587-.042.73.515,1.191,1.285.243,1.061-.58,4.3-.685,5.063.458-.954,1.338-.8,1.019.932-.247.5-.724,1.531-1.3,1.067-.7,2.678-1.574,3.489-2.216,3.961-1.171.389-1.126.455-2.245.034-.945-.7-1.748-1.482-2.314-4.069-.389.511-1.036-.281-1.284-1.1-.224-1.589.3-1.857,1.119-.734C-467.456-102.7-468.233-103.748-468.061-105.263Z" transform="translate(512.316 109.52)" fill="#fcd3b5" fill-rule="evenodd"/>
    <path id="Path_936" data-name="Path 936" d="M-452.024-45.809a2.82,2.82,0,0,1,1.924-.317c.436.051.3.344.185.561a4.4,4.4,0,0,0-2.352.247C-452.1-45.635-452.092-45.663-452.024-45.809Z" transform="translate(497.812 53.137)" fill="#4b4434" fill-rule="evenodd"/>
    <path id="Path_937" data-name="Path 937" d="M-406.5-30.592c.093-.346.7-.357,1.029-.5.311.143.726.267.888.5.014.169-.043.626-.954.7C-406.357-29.861-406.493-30.423-406.5-30.592Z" transform="translate(456.257 39.441)" fill="#fff" fill-rule="evenodd"/>
    <path id="Path_938" data-name="Path 938" d="M-402.287-30.306a.552.552,0,0,1,.536-.566.552.552,0,0,1,.6.5.552.552,0,0,1-.536.566A.552.552,0,0,1-402.287-30.306Z" transform="translate(452.435 39.244)" fill="#467567" stroke="#7f6000" stroke-miterlimit="8" stroke-width="0.067" fill-rule="evenodd"/>
    <path id="Path_939" data-name="Path 939" d="M-399.959-28.126a.344.344,0,0,1,.322-.364.344.344,0,0,1,.364.322.344.344,0,0,1-.322.364A.344.344,0,0,1-399.959-28.126Z" transform="translate(450.322 37.081)" fill="#0b352e" fill-rule="evenodd"/>
    <path id="Path_940" data-name="Path 940" d="M-400.6-28.843a.139.139,0,0,1,.13-.147.139.139,0,0,1,.147.13.139.139,0,0,1-.13.147A.139.139,0,0,1-400.6-28.843Z" transform="translate(450.899 37.534)" fill="#fff" fill-rule="evenodd"/>
    <path id="Path_941" data-name="Path 941" d="M-406.456-31.593c-.048-.283.533-.588.852-.578s.98-.038,1.065.64a1.448,1.448,0,0,0-.884-.392A1.751,1.751,0,0,0-406.456-31.593Z" transform="translate(456.222 40.422)" fill="#4b4434" fill-rule="evenodd"/>
    <path id="Path_942" data-name="Path 942" d="M-404.182-34.292a1.12,1.12,0,0,1,1.477-.013" transform="translate(454.155 42.606)" fill="none" stroke="#d79d74" stroke-miterlimit="8" stroke-width="0.1" fill-rule="evenodd"/>
    <path id="Path_943" data-name="Path 943" d="M0,.757c.114.34.716.314,1.058.436.3-.162.709-.311.855-.555C1.917.468,1.832.016.919,0,.095.02-.006.588,0,.757Z" transform="matrix(-0.998, -0.061, 0.061, -0.998, 47.832, 9.64)" fill="#fff" fill-rule="evenodd"/>
    <path id="Path_944" data-name="Path 944" d="M0,.533a.552.552,0,0,0,.569.533A.552.552,0,0,0,1.138.533.552.552,0,0,0,.569,0,.552.552,0,0,0,0,.533Z" transform="matrix(-0.998, -0.061, 0.061, -0.998, 47.457, 9.503)" fill="#467567" stroke="#7f6000" stroke-miterlimit="8" stroke-width="0.067" fill-rule="evenodd"/>
    <path id="Path_945" data-name="Path 945" d="M0,.344A.344.344,0,1,0,.344,0,.344.344,0,0,0,0,.344Z" transform="matrix(-0.998, -0.061, 0.061, -0.998, 47.254, 9.332)" fill="#0b352e" fill-rule="evenodd"/>
    <path id="Path_946" data-name="Path 946" d="M0,.139A.139.139,0,1,0,.139,0,.139.139,0,0,0,0,.139Z" transform="matrix(-0.998, -0.061, 0.061, -0.998, 46.783, 8.873)" fill="#fff" fill-rule="evenodd"/>
    <path id="Path_947" data-name="Path 947" d="M0,.179C-.03.464.569.733.887.7S1.868.682,1.911,0a1.448,1.448,0,0,1-.858.445A1.751,1.751,0,0,1,0,.179Z" transform="matrix(-0.998, -0.061, 0.061, -0.998, 47.862, 9.042)" fill="#4b4434" fill-rule="evenodd"/>
    <path id="Path_948" data-name="Path 948" d="M0,1.2A1.12,1.12,0,0,0,.858,0" transform="translate(46.68 9.038) rotate(-125.005)" fill="none" stroke="#d79d74" stroke-miterlimit="8" stroke-width="0.1" fill-rule="evenodd"/>
    <path id="Path_949" data-name="Path 949" d="M.319.584a2.82,2.82,0,0,0,1.95,0C2.692.462,2.512.195,2.36,0A4.4,4.4,0,0,1,0,.139C.219.424.228.451.319.584Z" transform="translate(52.031 7.956) rotate(-170.635)" fill="#4b4434" fill-rule="evenodd"/>
    <path id="Path_950" data-name="Path 950" d="M-483.308-108.189a4.2,4.2,0,0,1-.461-1.455c-.275.045-.973.2-1.013.029.311-.143.5-.174.56-.319-.324-.081-.926-.09-.743-.2.378-.063.712.043,1.032-.126a4.7,4.7,0,0,1,5.436-5.7c3.27.351,3.944,1.725,4.348,3.07a3.8,3.8,0,0,1,.724,2.887c-.106.029-.058-.753-.164-.724a8.613,8.613,0,0,1-.638,2.64c-.289.048-.269-.008-.562.425.042.241-.164.14-.218.488-.151,0-.08.013-.232.01-.061-.985.216-2.907-.029-3.225-.225.129-.171.3-.4.425-.145.071.357-1.645.212-1.574a6.634,6.634,0,0,1-2.181,1.313c.077-.28.338-.3.531-.8a6.338,6.338,0,0,1-2.181.985c-.394.1.692-.546.724-.956a9.347,9.347,0,0,1-3.889,1.188,1.453,1.453,0,0,0,.454-.357,1.546,1.546,0,0,0-.782.435c.482.589.357,1.082.675,2.53l-.321-.328A.976.976,0,0,0-483.308-108.189Z" transform="translate(527.533 116.533)" fill="#977961" fill-rule="evenodd"/>
    <path id="Path_951" data-name="Path 951" d="M-424.731-11.959c.025.135.576.362,1.272.083.1-.15-.112-.389-.144-.743.281.281.524.865.174.936C-423.617-11.573-425.085-11.5-424.731-11.959Z" transform="translate(472.862 22.67)" fill="#d89a55" fill-rule="evenodd"/>
    <path id="Path_952" data-name="Path 952" d="M-414.42-32.839c-.3-.929-.028-1.4.188-1.351C-414.414-34.019-414.532-33.719-414.42-32.839Z" transform="translate(463.57 42.258)" fill="#d89a55" fill-rule="evenodd"/>
    <path id="Path_953" data-name="Path 953" d="M.107,0c-.278.2.04.535.335.5C.182.363.145.347.107,0Z" transform="matrix(-0.915, 0.403, -0.403, -0.915, 50.586, 11.853)" fill="#d89a55" fill-rule="evenodd"/>
    <path id="Path_954" data-name="Path 954" d="M.11,0,.06.164A.253.253,0,0,1,.05.2.18.18,0,0,1,.03.228.663.663,0,0,1,.02.3C.016.317,0,.33,0,.346a1.715,1.715,0,0,0,.01.21A.238.238,0,0,0,.04.62.315.315,0,0,0,.11.647C.133.679.118.674.15.674" transform="matrix(-0.998, -0.061, 0.061, -0.998, 52.818, 10.158)" fill="none" stroke="#d89a55" stroke-miterlimit="8" stroke-width="0.1" fill-rule="evenodd"/>
    <path id="Path_955" data-name="Path 955" d="M0,.216c.073.229.247.23.3.267S.322.458.345.437C.352.431.364.431.374.428.4.364.367.443.4.365c0-.009,0-.02.01-.027A.12.12,0,0,1,.444.319.265.265,0,0,0,.464.292C.468.283.47.273.474.264S.487.24.494.228A.22.22,0,0,1,.5.191c0-.01.015-.018.02-.027A.262.262,0,0,0,.533.137.137.137,0,0,1,.553.091C.563.081.58.079.593.073.62.035.605.049.652.018L.682,0" transform="matrix(-0.998, -0.061, 0.061, -0.998, 53.292, 9.667)" fill="none" stroke="#d89a55" stroke-miterlimit="8" stroke-width="0.1" fill-rule="evenodd"/>
    <path id="Path_956" data-name="Path 956" d="M-460.937-18.2l-.06-.161a.26.26,0,0,0-.012-.036.172.172,0,0,0-.021-.026.656.656,0,0,0-.014-.072c0-.016-.021-.028-.023-.044a1.712,1.712,0,0,1,0-.21.241.241,0,0,1,.026-.066.316.316,0,0,1,.068-.032c.021-.034.006-.028.038-.03" transform="translate(505.807 28.35)" fill="none" stroke="#d89a55" stroke-miterlimit="8" stroke-width="0.1" fill-rule="evenodd"/>
    <path id="Path_957" data-name="Path 957" d="M-466.092-22.085c.059-.233.233-.244.288-.285s.019.024.042.043c.008.006.02,0,.03.007.027.062-.008-.014.034.062,0,.009,0,.02.012.027a.119.119,0,0,0,.031.016.272.272,0,0,1,.021.026c.005.008.007.018.012.027s.015.023.022.035a.21.21,0,0,0,.012.036c.005.01.016.017.022.026a.283.283,0,0,1,.012.027.137.137,0,0,0,.023.044c.01.01.027.011.041.016.03.036.014.023.063.051l.031.016" transform="translate(510.365 31.535)" fill="none" stroke="#d89a55" stroke-miterlimit="8" stroke-width="0.1" fill-rule="evenodd"/>
    <path id="Path_958" data-name="Path 958" d="M-429.819,10.484a18.541,18.541,0,0,1,2.394-.239A1.938,1.938,0,0,1-429.819,10.484Z" transform="translate(477.432 1.911)" fill="#d79d75" fill-rule="evenodd"/>
    <path id="Path_959" data-name="Path 959" d="M-425.631,19.855c.625.089.613.329,1.614-.031A1.4,1.4,0,0,1-425.631,19.855Z" transform="translate(473.629 -6.786)" fill="#d79d75" fill-rule="evenodd"/>
    <path id="Path_960" data-name="Path 960" d="M-428.985,42a3.8,3.8,0,0,0,1.09.3c-.764.2-.457.084-1.1.25C-428.973,42.364-429,42.263-428.985,42Z" transform="translate(476.688 -26.921)" fill="#ebc1a2" fill-rule="evenodd"/>
    <path id="Path_961" data-name="Path 961" d="M1.58,13.441l.767-1.521L2,11.649,6.877,4.6l.488-3.272C7.083,1.013,7.012.7,6.518.378,6.357.213,6.556.084,6.389.011c-.084,0-.311-.11-.377.367C5.826.4,5.3.413,5.284.506c-.015.212-.1.612.424.467.218.075.261-.137.12.156-.522.145-.532.295-.746,1.347.157.3.377.422.635.33-.147,1.029-.064,1.353.3,1.631L.3,11.2c-.529.773-.247.877-.04,1.219Z" transform="translate(47.09 33.722) rotate(180)" fill="#e2b284" stroke="#e2b284" stroke-miterlimit="8" stroke-width="0.2" fill-rule="evenodd"/>
    <path id="Path_962" data-name="Path 962" d="M.644.276A.4.4,0,0,0,.614.221C.606.211.593.207.584.2S.564.177.554.166.555.125.544.11.516.105.5.1C.406.054.548.1.433.066.285-.015.427.055.04.033.008.031.011.024,0,0" transform="translate(41.75 31.42) rotate(180)" fill="none" stroke="#e1a17d" stroke-miterlimit="8" stroke-width="0.1" fill-rule="evenodd"/>
    <path id="Path_963" data-name="Path 963" d="M0,.182C0,.2,0,.123.047.109c.015-.061,0,0,.022-.051S.049.077.092.014C.1-.057.01.166,0,.182Z" transform="translate(41.474 31.236) rotate(180)" fill="#4472c4" stroke="#e1a17d" stroke-miterlimit="8" stroke-width="0.1" fill-rule="evenodd"/>
    <path id="Path_964" data-name="Path 964" d="M1.1.184.728.1C.718.095.71.09.7.087L.611.068C.558.011.614.059.512.029.5.026.495.015.485.01A.19.19,0,0,0,.458,0L.072.019a.069.069,0,0,0-.027.01A.261.261,0,0,0,.018.048L0,.078" transform="translate(41.842 32.065) rotate(180)" fill="none" stroke="#e1a17d" stroke-miterlimit="8" stroke-width="0.1" fill-rule="evenodd"/>
    <path id="Path_965" data-name="Path 965" d="M.271.089C.3.1.2.078.165.071.156.069.149.063.14.062.1.054.058.05.017.044.012.031.007.019,0,.007-.017-.028.244.079.271.089Z" transform="translate(40.553 32.433) rotate(180)" fill="#4472c4" stroke="#e1a17d" stroke-miterlimit="8" stroke-width="0.1" fill-rule="evenodd"/>
    <path id="Path_966" data-name="Path 966" d="M.644.46C.385-.168.58.029,0,.029" transform="translate(41.382 32.801) rotate(180)" fill="none" stroke="#e1a17d" stroke-miterlimit="8" stroke-width="0.1" fill-rule="evenodd"/>
    <path id="Path_967" data-name="Path 967" d="M0,0,.4.031A.328.328,0,0,1,.46.061V.092" transform="translate(41.29 32.617) rotate(180)" fill="none" stroke="#e1a17d" stroke-miterlimit="8" stroke-width="0.1" fill-rule="evenodd"/>
    <path id="Path_968" data-name="Path 968" d="M-571,204l5.253.016.916,16.405-.888.057-2.1-14.5-.752-.04c-.016,4.914-.035,9.566-.051,14.48l-.907-.016Z" transform="translate(605.615 -174.007)" fill="#2b384c" fill-rule="evenodd"/>
    <path id="Path_969" data-name="Path 969" d="M-570.753,383.532c.883-.085.814-.355,1.221-.532.305.073.907-.073.925.11,0,.214-.009.521-.009.752l-.593.059-.027-.118-.8.093C-570.974,383.926-571.259,383.687-570.753,383.532Z" transform="translate(605.615 -336.528)" fill="#272727" fill-rule="evenodd"/>
    <path id="Path_970" data-name="Path 970" d="M-569.855,383.585c.9-.092.8-.485,1.239-.585.312.079.808-.052.826.146,0,.232-.055.2-.055.448a12.068,12.068,0,0,1-1.285.2C-569.357,383.866-570.372,383.835-569.855,383.585Z" transform="translate(604.708 -336.528)" fill="#4a4a4a" fill-rule="evenodd"/>
    <path id="Path_971" data-name="Path 971" d="M.257.389c.917.084.845.355,1.268.532.317-.073.942.073.96-.11C2.486.6,2.476.29,2.476.059L1.861,0,1.833.118,1,.025C.027-.006-.268.234.257.389Z" transform="translate(42.256 47.393) rotate(180)" fill="#272727" fill-rule="evenodd"/>
    <path id="Path_972" data-name="Path 972" d="M.145.243c.9.091.8.485,1.239.585C1.7.749,2.191.88,2.209.682c0-.232-.055-.2-.055-.448A12.1,12.1,0,0,0,.87.033C.643-.037-.372-.007.145.243Z" transform="translate(42.164 47.301) rotate(180)" fill="#4a4a4a" fill-rule="evenodd"/>
    <path id="Path_973" data-name="Path 973" d="M-627.169,58.234c-1.037.755-1.326,1.053-2.363,1.779A2.313,2.313,0,0,1-630.5,58.4a12.306,12.306,0,0,1,3.258-2.72A16.247,16.247,0,0,1-624.19,54.5c1.252,0,2.328.107,3.58.111a34.248,34.248,0,0,1,3.538,1.443,34.691,34.691,0,0,1,2.958,2.219,3.252,3.252,0,0,1-.625,2c-1-1.095-1.964-1.284-2.814-1.946-1.752,2.2-1.528,10.042-2.072,10.209-1.262.907-3.669.608-5.811.25C-625.393,65.55-625.334,60.679-627.169,58.234Z" transform="translate(659.638 -38.27)" fill="#17a754" stroke="#17a754" stroke-miterlimit="8" stroke-width="0.2" fill-rule="evenodd"/>
    <path id="Path_974" data-name="Path 974" d="M-585,115a3.217,3.217,0,0,1,.46,1.841A14.832,14.832,0,0,0-585,115Z" transform="translate(618.326 -93.2)" fill="#146c3b" fill-rule="evenodd"/>
    <path id="Path_975" data-name="Path 975" d="M0,1.841A3.86,3.86,0,0,0,.368,0,17.967,17.967,0,0,1,0,1.841Z" transform="translate(41.244 23.825) rotate(180)" fill="#146c3b" fill-rule="evenodd"/>
    <path id="Path_976" data-name="Path 976" d="M-462.631,94.432a3.665,3.665,0,0,0,.819-2.185c.078-.141.3-.115.287.13a3.318,3.318,0,0,1-.936,2.277C-462.5,94.688-462.609,94.682-462.631,94.432Z" transform="translate(507.223 -72.464)" fill="#146c3b" fill-rule="evenodd"/>
    <path id="Path_977" data-name="Path 977" d="M-569.434,205.067a9.362,9.362,0,0,1-5.7-.011q-.059-.027-.114-.055" transform="translate(609.471 -174.915)" fill="none" stroke="#595959" stroke-miterlimit="8" stroke-width="0.1" fill-rule="evenodd"/>
    <path id="Path_978" data-name="Path 978" d="M-645.92,96.5l.767,1.532-.349.272,4.88,7.1.488,3.294c-.282.32-.353.64-.847.96-.161.166.038.3-.129.369-.084,0-.311.111-.377-.369-.186-.028-.714-.035-.727-.129-.015-.214-.1-.617.424-.471.218-.075.261.138.12-.157-.522-.146-.532-.3-.746-1.356.156-.3.377-.424.635-.332-.147-1.036-.064-1.363.3-1.642l-5.718-6.8c-.529-.778-.247-.883-.04-1.227Z" transform="translate(675.073 -76.404)" fill="#e2b284" stroke="#e2b284" stroke-miterlimit="8" stroke-width="0.1" fill-rule="evenodd"/>
    <path id="Path_979" data-name="Path 979" d="M-587.948,215.5a.262.262,0,0,1-.026.037c-.007.007-.018.009-.026.015s-.017.015-.026.022,0,.027-.009.037-.024,0-.035.007c-.083.03.039,0-.06.022-.127.054,0,.007-.337.022-.027,0-.025.006-.034.022" transform="translate(621.504 -184.448)" fill="none" stroke="#e1a17d" stroke-miterlimit="8" stroke-width="0.1" fill-rule="evenodd"/>
    <path id="Path_980" data-name="Path 980" d="M-586.5,214.5c-.007-.016,0,.058.045.073.015.061,0,0,.022.051s-.02-.019.022.044C-586.4,214.741-586.49,214.518-586.5,214.5Z" transform="translate(619.688 -183.54)" fill="#4472c4" stroke="#e1a17d" stroke-miterlimit="8" stroke-width="0.1" fill-rule="evenodd"/>
    <path id="Path_981" data-name="Path 981" d="M-589.4,223.5l-.377.087c-.009,0-.018.007-.027.01l-.09.019c-.053.057,0,.009-.1.039-.01,0-.017.014-.027.019a.2.2,0,0,1-.027.01l-.386-.019a.069.069,0,0,1-.027-.01.258.258,0,0,1-.027-.019l-.018-.029" transform="translate(623.32 -191.712)" fill="none" stroke="#e1a17d" stroke-miterlimit="8" stroke-width="0.1" fill-rule="evenodd"/>
    <path id="Path_982" data-name="Path 982" d="M-576.229,227.5c.027-.011-.071.011-.107.018-.009,0-.016.008-.025.009-.041.008-.082.012-.123.018-.006.012-.01.025-.016.037C-576.518,227.62-576.256,227.513-576.229,227.5Z" transform="translate(610.609 -195.343)" fill="#4472c4" stroke="#e1a17d" stroke-miterlimit="8" stroke-width="1" fill-rule="evenodd"/>
    <path id="Path_983" data-name="Path 983" d="M-584.856,228.5c-.259.628-.065.431-.644.431" transform="translate(618.78 -196.251)" fill="none" stroke="#e1a17d" stroke-miterlimit="8" stroke-width="0.1" fill-rule="evenodd"/>
    <path id="Path_984" data-name="Path 984" d="M-584.5,230.592l.4-.031a.329.329,0,0,0,.061-.031V230.5" transform="translate(617.872 -198.067)" fill="none" stroke="#e1a17d" stroke-miterlimit="8" stroke-width="1" fill-rule="evenodd"/>
    <path id="Path_985" data-name="Path 985" d="M-591.644-115.716c-.086-.673-.148-.524.76-1.189.292-.241.092.043.359.092-.006-.125-.047-.054-.165-.231.3-.168.573-.211.845-.378,1.449-.527,1.092.219,1.276-.015-.13-.2-.424-.143-.118-.237a5.98,5.98,0,0,1,1.951-.326c1.49.193,2.308.576,2.793,2.017.594,0,.682.334,1.094,1.142a12.9,12.9,0,0,1-.665,4.583c.606.094.954.1.916.534-.025,1.211-1.113,2.615-1.891,1.706a6.219,6.219,0,0,1-2.69,4.02,1.655,1.655,0,0,1-2.5-.27c-1.127-1.291-1.382-1.66-1.81-4.4-.585.086-1.381-.271-1.507-1.568-.055-1.3.965-.913,1.1-.927A20.165,20.165,0,0,1-591.644-115.716Z" transform="translate(625.59 118.349)" fill="#e2b284" fill-rule="evenodd"/>
    <path id="Path_986" data-name="Path 986" d="M-503-94.629l.774-1.287.44-.084c1.274,1.5.873,3.056-.009,5.789-.546.146-.389.685-.555.931a1.558,1.558,0,0,1-.194-.247c.094-.835.049-1.569.144-1.929-.138.009-.229-.3-.3-.548C-502.145-93.7-502.9-93.754-503-94.629Z" transform="translate(543.875 98.375)" fill="#4d392e" fill-rule="evenodd"/>
    <path id="Path_987" data-name="Path 987" d="M-581.606-94l1.447.687c-.2.791-.711,1.723-.318,2.409-.7.423-.637,1.194-.807,2.8l-.208-.063c-.006-.56.034-.815-.413-1.176A11.073,11.073,0,0,1-581.606-94Z" transform="translate(615.603 96.559)" fill="#4d392e" fill-rule="evenodd"/>
    <path id="Path_988" data-name="Path 988" d="M-521.518-40.542a1.133,1.133,0,0,1,1.585.2l.007.009" transform="translate(560.689 48.238)" fill="none" stroke="#cfa47b" stroke-miterlimit="8" stroke-width="0.1" fill-rule="evenodd"/>
    <path id="Path_989" data-name="Path 989" d="M-564.145-45.2a1.133,1.133,0,0,1,1.585.2l.007.009" transform="translate(599.391 52.469)" fill="none" stroke="#cfa47b" stroke-miterlimit="8" stroke-width="0.1" fill-rule="evenodd"/>
    <path id="Path_990" data-name="Path 990" d="M-565.966-41.635c.112-.341.673-.243,1.009-.365.3.162.746.242.89.486-.127.427-.129,1.155-1.027,1.171A.989.989,0,0,1-565.966-41.635Z" transform="translate(601.076 49.346)" fill="#fff" fill-rule="evenodd"/>
    <path id="Path_991" data-name="Path 991" d="M-565.977-42.532c-.183-.177.771-.5.992-.466.518-.012,1.1.5,1,.587-.227.171.146-.1-1.011-.282A2.491,2.491,0,0,0-565.977-42.532Z" transform="translate(601.075 50.254)" fill="#2e2125" fill-rule="evenodd"/>
    <path id="Path_992" data-name="Path 992" d="M-562.5-37.9a.6.6,0,0,1,.6-.6.6.6,0,0,1,.6.6.6.6,0,0,1-.6.6A.6.6,0,0,1-562.5-37.9Z" transform="translate(597.898 46.168)" fill="#913822" stroke="#7f6000" stroke-miterlimit="8" stroke-width="0.067" fill-rule="evenodd"/>
    <path id="Path_993" data-name="Path 993" d="M-560-35.678a.322.322,0,0,1,.322-.322.322.322,0,0,1,.322.322.322.322,0,0,1-.322.322A.322.322,0,0,1-560-35.678Z" transform="translate(595.628 43.898)" fill-rule="evenodd"/>
    <path id="Path_994" data-name="Path 994" d="M-563-36.77a.23.23,0,0,1,.23-.23.23.23,0,0,1,.23.23.23.23,0,0,1-.23.23A.23.23,0,0,1-563-36.77Z" transform="translate(598.352 44.806)" fill="#fff" fill-rule="evenodd"/>
    <path id="Path_995" data-name="Path 995" d="M-524.426-36.9c.133-.337.7-.208,1.055-.312.3.179.752.284.887.538-.154.423-.194,1.155-1.116,1.122A1,1,0,0,1-524.426-36.9Z" transform="translate(563.376 44.994)" fill="#fff" fill-rule="evenodd"/>
    <path id="Path_996" data-name="Path 996" d="M-524.266-37.7c-.176-.187.806-.461,1.028-.415.524.016,1.087.56.979.644-.239.16.165-.08-1-.329A2.69,2.69,0,0,0-524.266-37.7Z" transform="translate(563.203 45.825)" fill="#2e2125" fill-rule="evenodd"/>
    <path id="Path_997" data-name="Path 997" d="M-521.461-34.059a.621.621,0,0,1,.654-.588.621.621,0,0,1,.588.654.621.621,0,0,1-.654.588A.622.622,0,0,1-521.461-34.059Z" transform="translate(560.638 42.67)" fill="#913822" stroke="#7f6000" stroke-miterlimit="8" stroke-width="0.067" fill-rule="evenodd"/>
    <path id="Path_998" data-name="Path 998" d="M-518.438-31.338a.347.347,0,0,1,.365-.328.347.347,0,0,1,.328.365.347.347,0,0,1-.365.328A.347.347,0,0,1-518.438-31.338Z" transform="translate(557.893 39.964)" fill-rule="evenodd"/>
    <path id="Path_999" data-name="Path 999" d="M-520.705-32.682a.221.221,0,0,1,.232-.209.221.221,0,0,1,.209.232.221.221,0,0,1-.232.209A.221.221,0,0,1-520.705-32.682Z" transform="translate(559.951 41.076)" fill="#fff" fill-rule="evenodd"/>
    <path id="Path_1000" data-name="Path 1000" d="M-581.432-30.856l-.031-.157a.337.337,0,0,0-.006-.035.186.186,0,0,0-.012-.026c0-.023,0-.047-.006-.07a.324.324,0,0,1-.012-.044c0-.067,0-.134.006-.2a.3.3,0,0,1,.018-.061.161.161,0,0,1,.043-.026c.015-.031,0-.026.024-.026" transform="translate(615.149 39.813)" fill="none" stroke="#9f7f61" stroke-miterlimit="8" stroke-width="0.1" fill-rule="evenodd"/>
    <path id="Path_1001" data-name="Path 1001" d="M-585.5-35.5c.08,0,.16,0,.239.01.04,0,.014.028.033.051.006.008.016.007.025.01.019.072-.006-.017.025.072a.145.145,0,0,0,.008.031c.006.01.016.014.025.02a.332.332,0,0,1,.017.031c0,.01,0,.021.008.031s.011.027.016.041a.31.31,0,0,0,.008.041c0,.011.012.02.016.031s.005.021.008.031a.183.183,0,0,0,.016.051c.008.012.022.014.033.02.023.042.01.027.049.061l.025.02" transform="translate(618.78 43.444)" fill="none" stroke="#9f7f61" stroke-miterlimit="8" stroke-width="0.1" fill-rule="evenodd"/>
    <path id="Path_1002" data-name="Path 1002" d="M.135,0,.074.157A.2.2,0,0,1,.062.192.182.182,0,0,1,.037.218a.5.5,0,0,1-.012.07C.02.3,0,.315,0,.331a1.274,1.274,0,0,0,.012.2A.209.209,0,0,0,.05.592.459.459,0,0,0,.135.618c.029.031.01.026.049.026" transform="translate(42.118 9.878) rotate(180)" fill="none" stroke="#9f7f61" stroke-miterlimit="8" stroke-width="0.1" fill-rule="evenodd"/>
    <path id="Path_1003" data-name="Path 1003" d="M0,.552c.08,0,.16,0,.239-.01C.279.537.253.514.272.491.278.483.289.484.3.481.316.409.291.5.322.409A.145.145,0,0,1,.33.378C.336.369.346.365.355.358A.312.312,0,0,0,.371.327c0-.01,0-.021.008-.031S.39.269.4.256A.318.318,0,0,1,.4.215C.408.2.416.2.42.184S.426.164.429.153A.185.185,0,0,1,.445.1C.453.091.467.089.478.082.5.039.489.055.528.02L.552,0" transform="translate(42.487 9.417) rotate(180)" fill="none" stroke="#9f7f61" stroke-miterlimit="8" stroke-width="0.1" fill-rule="evenodd"/>
    <path id="Path_1004" data-name="Path 1004" d="M-546-23.488a2.018,2.018,0,0,0,.748.36l.663-.2A10.626,10.626,0,0,0-544.636-25c.041-.008.21.4.294,1.623-.323.335-.775.555-.966.48A1.216,1.216,0,0,1-546-23.488Z" transform="translate(582.917 33.911)" fill="#9f7f61" fill-rule="evenodd"/>
    <path id="Path_1005" data-name="Path 1005" d="M-577.949-116.332c1.855-.763,3.84-1.624,5.7-.888,2.627,1.232,1.383,3.449.487,3.489-2,.1-3.061-1.128-4.883-.527C-577.492-114.127-579.453-115.137-577.949-116.332Z" transform="translate(612.425 117.895)" fill="#6a4e41" stroke="#6a4e41" stroke-miterlimit="8" stroke-width="1.333" fill-rule="evenodd"/>
    <path id="Path_1006" data-name="Path 1006" d="M-554.826,32.1l2-.1c.014,1.175.119,1.672.132,2.847-.663.052-.777,1.32-1.161,1.2s-.366-.987-1.141-1.523Z" transform="translate(591.088 -17.842)" fill="#e2b284" fill-rule="evenodd"/>
    <path id="Path_1007" data-name="Path 1007" d="M-553.918,35c.538.536.94.594,1.943,0l-.036.482a4.862,4.862,0,0,1-1.989.439A3.606,3.606,0,0,1-553.918,35Z" transform="translate(590.18 -20.565)" fill="#dda485" fill-rule="evenodd"/>
    <path id="Path_1008" data-name="Path 1008" d="M.8,2.658C.928,2.782.782,1.921.79,1.507c.1-.527.72-.761.567-.868C1,.268.141-.177.074.073-.1,1.281-.016,2.28.8,2.658Z" transform="translate(39.126 17.933) rotate(180)" fill="#146c3b" fill-rule="evenodd"/>
    <path id="Path_1009" data-name="Path 1009" d="M.809,2.486l.019-.14A12.633,12.633,0,0,1,.35,0L0,.355a17.433,17.433,0,0,0,.356,1.97C.571,2.44.754,2.4.809,2.486Z" transform="translate(37.515 19.728) rotate(180)" fill="#17a754" stroke="#595959" stroke-miterlimit="8" stroke-width="0.1" fill-rule="evenodd"/>
    <path id="Path_1010" data-name="Path 1010" d="M-542.849,65.5l.362.377a3.522,3.522,0,0,0-.383,2.108l-.63-.05a6.729,6.729,0,0,1,.376-2.368Z" transform="translate(580.647 -48.258)" fill="#17a754" stroke="#595959" stroke-miterlimit="8" stroke-width="0.1" fill-rule="evenodd"/>
    <path id="Path_1011" data-name="Path 1011" d="M-562.2,44.012c.125-.125-.021.737-.013,1.151.1.527.72.761.567.868-.356.371-1.215.816-1.283.566C-563.1,45.388-563.016,44.39-562.2,44.012Z" transform="translate(598.352 -28.737)" fill="#146c3b" fill-rule="evenodd"/>
    <path id="Path_1012" data-name="Path 1012" d="M-526.007,79.753l.649-.668a.122.122,0,0,1,.176,0l.518.543,0-.139a.085.085,0,0,1,.169,0v.373a.1.1,0,0,1-.1.105l-.339,0c-.1,0-.115-.177,0-.181l.124,0-.46-.469h0l-.582.6C-525.989,80.041-526.137,79.861-526.007,79.753Z" transform="translate(564.81 -60.558)" fill="#fff" fill-rule="evenodd"/>
    <path id="Path_1013" data-name="Path 1013" d="M-527.34,92.062h-1.26c-.207.008-.22-.1-.22-.214l0-.459-.1.1c-.084.074-.187-.043-.121-.131l.262-.278a.1.1,0,0,1,.148,0l.244.262c.073.077-.041.22-.127.135l-.091-.093v.438h1.16l0-.649c-.01-.128.215-.174.218,0l0,.653C-527.219,91.962-527.2,92.045-527.34,92.062Z" transform="translate(567.535 -71.456)" fill="#fff" fill-rule="evenodd"/>
    <path id="Path_1014" data-name="Path 1014" d="M-631.757,94.03l.954,1.788c-.11.008-.012.239-.33.024l-.82-1.489C-632.071,94.245-631.952,93.9-631.757,94.03Z" transform="translate(661 -74.134)" fill="#146c3b" fill-rule="evenodd"/>
    <path id="Path_1015" data-name="Path 1015" d="M-577.934-33l.337.1a10.243,10.243,0,0,0,.7,4.264,11.1,11.1,0,0,0,.486-1.342c.165-.373,1.341-.267,2-.159s1.878.114,1.962.805l.139,1.233a7.878,7.878,0,0,0,1.655-4.125l.291.06c-.132,1.2-.4,4.781-3.221,5.964a1.92,1.92,0,0,1-2.115-.06C-577.432-27.384-578.248-29.5-577.934-33Z" transform="translate(611.971 41.174)" fill="#cfa47b" fill-rule="evenodd"/>
    <path id="Path_1016" data-name="Path 1016" d="M-558.787,2l3.1.4c-.095.765-.084.88-.153,1.561-.034.544-.516.837-1.163.432-.336-.245-.286-.546-.955-.065-.861.16-1.1-.266-1.032-.747Z" transform="translate(594.72 9.397)" fill="#e2b284" fill-rule="evenodd"/>
    <path id="Path_1017" data-name="Path 1017" d="M-552.455,7.662c-.245-.366.553-.017,1.179.137.766.036,1.447-.08,1.216.134a3.256,3.256,0,0,1-.509.453,1.5,1.5,0,0,1-1.444-.118C-552.245,8.184-552.232,7.982-552.455,7.662Z" transform="translate(588.819 4.403)" fill="#fff" stroke="#9f7f61" stroke-miterlimit="8" stroke-width="0.2" fill-rule="evenodd"/>
    <path id="Path_1018" data-name="Path 1018" d="M-545.807,20.955a.934.934,0,0,1-1.044-.153" transform="translate(583.69 -7.674)" fill="none" stroke="#9f7f61" stroke-miterlimit="8" stroke-width="0.1" fill-rule="evenodd"/>
    <path id="Path_1019" data-name="Path 1019" d="M-569.675-59.764a2.247,2.247,0,0,1,1.986,0c.43.162.247.518.093.777a3.482,3.482,0,0,0-2.4-.185C-569.777-59.551-569.768-59.588-569.675-59.764Z" transform="translate(604.707 65.689)" fill="#312326" fill-rule="evenodd"/>
    <path id="Path_1020" data-name="Path 1020" d="M.322.813a2.126,2.126,0,0,0,1.97,0c.427-.17.245-.542.092-.813A3.289,3.289,0,0,1,0,.193C.221.59.23.628.322.813Z" transform="matrix(-0.983, -0.186, 0.186, -0.983, 41.363, 7.463)" fill="#312326" fill-rule="evenodd"/>
    <path id="Path_1021" data-name="Path 1021" d="M-541,79.138a.138.138,0,0,1,.138-.138.138.138,0,0,1,.138.138.138.138,0,0,1-.138.138A.138.138,0,0,1-541,79.138Z" transform="translate(578.377 -60.515)" fill="#146c3b" fill-rule="evenodd"/>
    <path id="Path_1022" data-name="Path 1022" d="M-539,70.138a.138.138,0,0,1,.138-.138.138.138,0,0,1,.138.138.138.138,0,0,1-.138.138A.138.138,0,0,1-539,70.138Z" transform="translate(576.561 -52.343)" fill="#146c3b" fill-rule="evenodd"/>
    <path id="Path_1023" data-name="Path 1023" d="M.7.11A1.3,1.3,0,0,0,.435,2.232c.945-.072,3.289.07,4.323-.08.875.862.511,6.24.651,7.471a1.232,1.232,0,0,0,.7-.016c.81-1.886.786-7.065.792-7.852C6.917.26,6.34-.029,5.306,0S1.9.04.7.11Z" transform="translate(6.997 21.892) rotate(180)" fill="#ebaa82" fill-rule="evenodd"/>
    <path id="Path_1024" data-name="Path 1024" d="M8.677,11.232C9.492,11.152,7,9.137,5.9,8.343c-.876-.157-2.311-1.4-3.586-1.626C3.158,5.6,4.263,1.505,4.652.349A3.99,3.99,0,0,0,3.844,0C2.63.813.229,6.807.2,7.027c-.295.719-.453.764.961,1.465S7.141,11.158,8.677,11.232Z" transform="translate(21.266 29.441) rotate(180)" fill="#ebaa82" fill-rule="evenodd"/>
    <path id="Path_1025" data-name="Path 1025" d="M-859.383,377.92l.492-.028.055.971-.492.028Z" transform="translate(867.449 -331.89)" fill="#ebaa82" fill-rule="evenodd"/>
    <path id="Path_1026" data-name="Path 1026" d="M-872.636,385.008c.093.282.367.16.55.24.006.171.013.245.019.416s-.691.11-1.037.164c-1.127,0-1.016-.254-.613-.367a1.89,1.89,0,0,0,.99-.461Z" transform="translate(880.721 -338.344)" fill="#fff" fill-rule="evenodd"/>
    <path id="Path_1027" data-name="Path 1027" d="M-871.724,386.016c.092.184.364.1.546.157l.019.214-1.029.165c-1.119,0-.879-.148-.479-.223.537-.044.515-.22.773-.33Z" transform="translate(879.813 -339.252)" fill="#ffc000" fill-rule="evenodd"/>
    <rect id="Rectangle_491" data-name="Rectangle 491" width="0.493" height="0.972" transform="translate(12.826 47) rotate(-176.777)" fill="#ebaa82"/>
    <path id="Path_1028" data-name="Path 1028" d="M1.429.821c.1-.282.384-.16.576-.24.007-.171.014-.245.02-.416S1.3.055.939,0C-.242,0-.125.254.3.367A2.02,2.02,0,0,1,1.334.829Z" transform="translate(14.27 47.485) rotate(180)" fill="#fff" fill-rule="evenodd"/>
    <path id="Path_1029" data-name="Path 1029" d="M1.34.536c.1-.184.382-.1.573-.157l.02-.214L.853,0C-.321,0-.07.148.35.223c.564.044.541.22.812.33Z" transform="translate(14.178 47.301) rotate(180)" fill="#ffc000" fill-rule="evenodd"/>
    <path id="Path_1030" data-name="Path 1030" d="M.22,17.4h6.3a5.666,5.666,0,0,0,.217-1.089L7.457,0,6.83.019,4.038,14.411,2.99,14.334,3.115.144l-.6-.029C1.675,5.386.623,10.656,0,15.927A9.29,9.29,0,0,0,.22,17.4Z" transform="translate(15.466 46.564) rotate(180)" fill-rule="evenodd"/>
    <path id="Path_1031" data-name="Path 1031" d="M-819.085,88.143a3.762,3.762,0,0,0,.406-2.359c.051-.157.282-.174.314.076a3.406,3.406,0,0,1-.506,2.475C-818.9,88.376-819.015,88.391-819.085,88.143Z" transform="translate(830.861 -66.569)" fill="#146c3b" fill-rule="evenodd"/>
    <path id="Path_1032" data-name="Path 1032" d="M5.057,3.009a18.938,18.938,0,0,1,.174,2.76,1.957,1.957,0,0,0-.136,2.186,8.572,8.572,0,0,0-.862,1.189C3.364,8.985,2.658,8,1.4,7.772c-.44-.187-1.8,1.71-1.275,2.1a25.4,25.4,0,0,0,7.391,2.576c.145.465.516.045.6.626l1.871-.179c.079-.743.341-.179.465-.754a4.122,4.122,0,0,0,2.628-1.3,32.925,32.925,0,0,0,3.71.013c.487-.15.214-2.531-.555-2.5-.536-.092-2.2.517-2.889.088-.532-.574-.859-.415-1.467-1.08a1.526,1.526,0,0,0-.871-1.752,17.7,17.7,0,0,1-.317-3.484c.347-.959.079-.892.205-1.735C9.49-.465,7.014.345,4.5.36,4.769,1.681,4.626,2.3,5.057,3.009Z" transform="translate(19.747 30.407) rotate(180)" fill="#17a754" stroke="#17a754" stroke-miterlimit="8" stroke-width="0.2" fill-rule="evenodd"/>
    <path id="Path_1033" data-name="Path 1033" d="M-860.248,139.133a9.746,9.746,0,0,1-.745-.9,1.892,1.892,0,0,0,1.268.714,29.962,29.962,0,0,0,4.415.014,1.547,1.547,0,0,0,1.289-.95,1.434,1.434,0,0,1-.357.78,6.758,6.758,0,0,1,.2,2.656c-1.013-1.5-5.516.021-5.808.973A23.628,23.628,0,0,1-860.248,139.133Z" transform="translate(868.917 -114.083)" fill="#118542" fill-rule="evenodd"/>
    <path id="Path_1034" data-name="Path 1034" d="M-813.147,195l.8.235c-.083.449-.688.455-1.113.666-.681.084-2.012-.232-2.693-.148-.336-.145-.164.891-.518.606.021-.085.226-.994.106-.711a3.538,3.538,0,0,1-.553.7c-.129.118-.251.135-.219.007s.608-.8.412-.775c-.867.478-1.025.331-1.021.261a2.18,2.18,0,0,1,.932-.479,8.448,8.448,0,0,1,1.637-.354C-814.312,194.924-813.879,195.037-813.147,195Z" transform="translate(829.826 -165.813)" fill="#ebaa82" stroke="#ebaa82" stroke-miterlimit="8" stroke-width="0.2" fill-rule="evenodd"/>
    <path id="Path_1035" data-name="Path 1035" d="M-806.487,197.5l-.528.083a.385.385,0,0,0-.044.008c-.217.062.086-.016-.077.025a.139.139,0,0,0-.033.017c-.007.007-.006.017-.011.025s-.016.022-.022.033,0,.019-.011.025a.3.3,0,0,1-.055.025c-.024.055.009,0-.044.033-.01.006-.015.017-.022.025a.352.352,0,0,1-.022.058.232.232,0,0,1-.022.025c-.022.085.013.016-.044.05s.03.025-.077.025" transform="translate(820.343 -168.105)" fill="none" stroke="#af7858" stroke-miterlimit="8" stroke-width="0.1" fill-rule="evenodd"/>
    <path id="Path_1036" data-name="Path 1036" d="M-802.579,198.5l-.407.212a.329.329,0,0,0-.043.018c-.063.045.03.017-.064.037a.334.334,0,0,1-.032.018c-.01,0-.024,0-.032.009s-.016.035-.032.046-.036.005-.053.009l-.032.009c-.011.009-.021.019-.032.028-.046.033-.022,0-.064.046a.331.331,0,0,0-.043.064.092.092,0,0,1-.021.028.11.11,0,0,1-.032.009l-.032.018" transform="translate(816.711 -169.013)" fill="none" stroke="#af7858" stroke-miterlimit="8" stroke-width="0.1" fill-rule="evenodd"/>
    <path id="Path_1037" data-name="Path 1037" d="M-840.819,53.1l2.075-.1c.014,1.2.123,1.71.138,2.912-.689.053-.808,1.35-1.207,1.222s-.381-1.01-1.186-1.558Z" transform="translate(850.759 -36.908)" fill="#f5b591" fill-rule="evenodd"/>
    <path id="Path_1038" data-name="Path 1038" d="M-839.914,57c.563.482.982.535,2.032,0l-.038.434a5.784,5.784,0,0,1-2.079.395A2.813,2.813,0,0,1-839.914,57Z" transform="translate(849.851 -40.54)" fill="#f5b591" fill-rule="evenodd"/>
    <path id="Path_1039" data-name="Path 1039" d="M.857,2.749c.133.129-.022-.762-.014-1.191.106-.545.768-.787.6-.9C1.068.277.151-.183.079.075-.1,1.326-.017,2.359.857,2.749Z" transform="translate(12.889 19.958) rotate(180)" fill="#146c3b" fill-rule="evenodd"/>
    <path id="Path_1040" data-name="Path 1040" d="M.809,2.578l.019-.145A13.524,13.524,0,0,1,.35,0L0,.369A18.685,18.685,0,0,0,.357,2.412C.571,2.53.754,2.492.809,2.578Z" transform="translate(11.186 21.846) rotate(180)" fill="#17a754" stroke="#595959" stroke-miterlimit="8" stroke-width="0.1" fill-rule="evenodd"/>
    <path id="Path_1041" data-name="Path 1041" d="M-828.79,88.5l.4.377a3.277,3.277,0,0,0-.418,2.108l-.687-.05a6.224,6.224,0,0,1,.41-2.368Z" transform="translate(840.317 -69.14)" fill="#17a754" stroke="#595959" stroke-miterlimit="8" stroke-width="0.1" fill-rule="evenodd"/>
    <path id="Path_1042" data-name="Path 1042" d="M-849.143,66.013c.133-.129-.022.762-.014,1.191.106.545.768.787.6.9-.379.384-1.3.844-1.368.586C-850.1,67.436-850.017,66.4-849.143,66.013Z" transform="translate(858.93 -48.711)" fill="#146c3b" fill-rule="evenodd"/>
    <path id="Path_1043" data-name="Path 1043" d="M-827,102.138a.138.138,0,0,1,.138-.138.138.138,0,0,1,.138.138.138.138,0,0,1-.138.138A.138.138,0,0,1-827,102.138Z" transform="translate(838.047 -81.397)" fill="#146c3b" fill-rule="evenodd"/>
    <path id="Path_1044" data-name="Path 1044" d="M-825,93.138a.138.138,0,0,1,.138-.138.138.138,0,0,1,.138.138.138.138,0,0,1-.138.138A.138.138,0,0,1-825,93.138Z" transform="translate(836.231 -73.226)" fill="#146c3b" fill-rule="evenodd"/>
    <path id="Path_1045" data-name="Path 1045" d="M-885.466-51.654c1.234-.963,6.028-1.422,7.467-1.436.6-.043.427.568.618,1.507s.808,3.324.526,4.129c.489-.847,1.771-.217,1.086,1.4-.159.407-.857,1.771-1.557,1.351-.624,2.239-1.152,2.277-2.406,3.12-.861.39-1.071.684-2.975-.438-.488-.367-1.1-.623-1.628-2.674-.588.127-.836.051-1.506-1.224-.579-1.281-.148-2.2.864-1.66C-885.156-49.923-885.642-50.1-885.466-51.654Z" transform="translate(891.708 59.417)" fill="#ebaa82" fill-rule="evenodd"/>
    <path id="Path_1046" data-name="Path 1046" d="M-838.835,8.841c.085.393-.332.392.76.6.342-.047.42-.179.656-.255.125-.275-.4-.767-.437-1.159a10.231,10.231,0,0,1,.19-1.192c.035-.017-.066.756-.086,1.192.736,1.4.662,1.191.362,1.423a1.239,1.239,0,0,1-.942.148C-839.244,9.437-839.036,9.134-838.835,8.841Z" transform="translate(848.951 5.006)" fill="#af7858" fill-rule="evenodd"/>
    <path id="Path_1047" data-name="Path 1047" d="M-867.05-7.212a3.97,3.97,0,0,1,2.687.011A1.881,1.881,0,0,0-867.05-7.212Z" transform="translate(874.41 18.269)" fill="#271d18" fill-rule="evenodd"/>
    <path id="Path_1048" data-name="Path 1048" d="M-880.169-94.973a.9.9,0,0,1,.529-.411c1.293-4.807.028-5.8-1.331-6.322.283-.14.268-.979.25-.6.924-.425.211-2.261-.283-1.975.036-.653-1.1-.965-1.814-.831-2.365-1.365-5.713,2.024-4.138,2.268-.116.425-.243.455-.019.954a4.189,4.189,0,0,0-2.617,4.318c-.372.143-.125.654.5,1.332a5.238,5.238,0,0,0,.567.945c.142.135.1.079.283.236.128-.2-.041-.713.132-1.276,1.364-.251,5.784-1.809,7.03-3.12C-880.972-97.751-879.88-96.835-880.169-94.973Z" transform="translate(895.036 106.944)" fill="#1d1612" fill-rule="evenodd"/>
    <path id="Path_1049" data-name="Path 1049" d="M0,.448A3.97,3.97,0,0,0,2.65,0,1.88,1.88,0,0,1,0,.448Z" transform="translate(14.143 11.515) rotate(-170.635)" fill="#271d18" fill-rule="evenodd"/>
    <path id="Path_1050" data-name="Path 1050" d="M-852.392,36.379a.864.864,0,0,1,.865-.656C-852.25,35.924-852.031,35.951-852.392,36.379Z" transform="translate(861.102 -21.222)" fill="#af7858" fill-rule="evenodd"/>
    <path id="Path_1051" data-name="Path 1051" d="M0,.341A.864.864,0,0,0,1.031,0C.455.481.558.286,0,.341Z" transform="translate(12.739 15.247) rotate(-139.281)" fill="#af7858" fill-rule="evenodd"/>
    <path id="Path_1052" data-name="Path 1052" d="M-877.07,18.068c-.029-.082-.058-.165-.086-.247a.412.412,0,0,0-.018-.055.279.279,0,0,0-.031-.04,1.093,1.093,0,0,0-.021-.111c-.007-.024-.03-.043-.033-.068a2.836,2.836,0,0,1-.005-.322.381.381,0,0,1,.036-.1.43.43,0,0,1,.1-.048c.03-.052.009-.043.054-.045" transform="translate(883.686 -4.251)" fill="none" stroke="#af7858" stroke-miterlimit="8" stroke-width="0.1" fill-rule="evenodd"/>
    <path id="Path_1053" data-name="Path 1053" d="M-884.416,12.092c.083-.357.331-.374.409-.435s.027.037.061.066c.011.01.029.008.043.011.039.1-.011-.022.048.1.007.013.007.03.017.041a.169.169,0,0,0,.044.025.4.4,0,0,1,.031.04c.007.013.01.028.017.041s.021.036.032.054a.355.355,0,0,0,.018.055c.008.015.022.026.031.04a.435.435,0,0,1,.017.041.219.219,0,0,0,.033.068c.015.015.039.016.058.024.042.055.02.035.09.079l.044.025" transform="translate(890.178 0.646)" fill="none" stroke="#af7858" stroke-miterlimit="8" stroke-width="0.1" fill-rule="evenodd"/>
    <path id="Path_1054" data-name="Path 1054" d="M.157,0C.133.084.109.168.086.252A.413.413,0,0,1,.072.308.277.277,0,0,1,.043.35,1.092,1.092,0,0,1,.029.462C.023.486,0,.507,0,.532A2.834,2.834,0,0,0,.015.854a.379.379,0,0,0,.042.1.43.43,0,0,0,.1.042c.034.05.011.042.057.042" transform="matrix(-0.998, -0.061, 0.061, -0.998, 15.202, 13.891)" fill="none" stroke="#af7858" stroke-miterlimit="8" stroke-width="0.1" fill-rule="evenodd"/>
    <path id="Path_1055" data-name="Path 1055" d="M0,.332C.1.684.353.685.435.742S.459.7.492.672C.5.661.52.663.534.658.567.56.524.681.576.56.582.546.581.529.591.518A.17.17,0,0,1,.633.49.408.408,0,0,0,.661.448C.668.435.67.419.676.406S.695.369.7.35A.358.358,0,0,1,.718.294C.725.278.739.267.746.252A.422.422,0,0,0,.761.21.219.219,0,0,1,.789.14C.8.124.827.121.846.112.885.054.864.075.931.028L.973,0" transform="matrix(-0.998, -0.061, 0.061, -0.998, 15.879, 13.134)" fill="none" stroke="#af7858" stroke-miterlimit="8" stroke-width="0.1" fill-rule="evenodd"/>
    <path id="Path_1056" data-name="Path 1056" d="M.016.709c-.175.664,1.159.448,1.535.363A1.138,1.138,0,0,0,2.093.116,2.129,2.129,0,0,0,1.021.023C.21.112.066.52.016.709Z" transform="matrix(-0.998, -0.061, 0.061, -0.998, 13.885, 12.929)" fill="#fff" fill-rule="evenodd"/>
    <path id="Path_1057" data-name="Path 1057" d="M0,.589a.624.624,0,0,0,.655.589A.624.624,0,0,0,1.309.589.624.624,0,0,0,.655,0,.624.624,0,0,0,0,.589Z" transform="matrix(-0.998, -0.061, 0.061, -0.998, 13.43, 12.852)" fill="#3c1e0a" stroke="#7f6000" stroke-miterlimit="8" stroke-width="0.067" fill-rule="evenodd"/>
    <path id="Path_1058" data-name="Path 1058" d="M0,.469A.483.483,0,0,0,.5.938a.483.483,0,0,0,.5-.469A.483.483,0,0,0,.5,0,.483.483,0,0,0,0,.469Z" transform="matrix(-0.998, -0.061, 0.061, -0.998, 13.307, 12.705)" fill-rule="evenodd"/>
    <path id="Path_1059" data-name="Path 1059" d="M0,.179A.179.179,0,1,0,.179,0,.179.179,0,0,0,0,.179Z" transform="matrix(-0.998, -0.061, 0.061, -0.998, 12.611, 12.213)" fill="#fff" fill-rule="evenodd"/>
    <path id="Path_1060" data-name="Path 1060" d="M.105.467C-.061.487.01.641.05.83a5.373,5.373,0,0,0,.989.046C1.389.821,2.02.923,2.065,0c-.348.335-.235.483-.8.633C.561.635.384.625.105.467Z" transform="matrix(-0.998, -0.061, 0.061, -0.998, 13.958, 12.473)" fill-rule="evenodd"/>
    <path id="Path_1061" data-name="Path 1061" d="M0,.633A1.1,1.1,0,0,0,1.473,0,1.692,1.692,0,0,1,0,.633Z" transform="translate(13.257 11.857) rotate(180)" fill="#af7858" fill-rule="evenodd"/>
    <path id="Path_1062" data-name="Path 1062" d="M0,.3C.37.373.327.3.536,0,.248.238.213.264,0,.3Z" transform="translate(9.64 12.738) rotate(11.838)" fill="#af7858" fill-rule="evenodd"/>
    <path id="Path_1063" data-name="Path 1063" d="M-820.01,18.04c-.348.143-.32.066-.587-.188C-820.266,18.025-820.227,18.044-820.01,18.04Z" transform="translate(832.234 -4.996)" fill="#af7858" fill-rule="evenodd"/>
    <path id="Path_1064" data-name="Path 1064" d="M-861.195,6.5c-.215-.652,1.13-.518,1.51-.456a1.138,1.138,0,0,1,.6.921,2.129,2.129,0,0,1-1.064.159C-860.964,7.081-861.134,6.683-861.195,6.5Z" transform="translate(869.115 5.778)" fill="#fff" fill-rule="evenodd"/>
    <path id="Path_1065" data-name="Path 1065" d="M-856.128,5.806a.625.625,0,0,1,.617-.628.624.624,0,0,1,.689.548.624.624,0,0,1-.617.628A.625.625,0,0,1-856.128,5.806Z" transform="translate(864.495 6.513)" fill="#3c1e0a" stroke="#7f6000" stroke-miterlimit="8" stroke-width="0.067" fill-rule="evenodd"/>
    <path id="Path_1066" data-name="Path 1066" d="M-854.714,6.8a.483.483,0,0,1,.467-.5.483.483,0,0,1,.524.438.483.483,0,0,1-.467.5A.483.483,0,0,1-854.714,6.8Z" transform="translate(863.211 5.495)" fill-rule="evenodd"/>
    <path id="Path_1067" data-name="Path 1067" d="M-854.27,7.692A.179.179,0,0,1-854.1,7.5a.179.179,0,0,1,.189.167.179.179,0,0,1-.167.189A.179.179,0,0,1-854.27,7.692Z" transform="translate(862.807 4.401)" fill="#fff" fill-rule="evenodd"/>
    <path id="Path_1068" data-name="Path 1068" d="M-861.741,4.514c-.167-.009-.106-.168-.077-.359a5.372,5.372,0,0,1,.984-.106c.353.033.977-.108,1.078.811-.368-.313-.264-.468-.84-.583C-861.3,4.319-861.473,4.339-861.741,4.514Z" transform="translate(869.692 7.54)" fill-rule="evenodd"/>
    <path id="Path_1069" data-name="Path 1069" d="M-854,.1a1.1,1.1,0,0,1,1.473.633A1.691,1.691,0,0,0-854,.1Z" transform="translate(862.562 11.212)" fill="#af7858" fill-rule="evenodd"/>
    <path id="Path_1070" data-name="Path 1070" d="M-836.685,62.7a1.136,1.136,0,0,1,1.365-.011C-835.966,62.312-836.126,62.667-836.685,62.7Z" transform="translate(846.841 -45.501)" fill="#af7858" fill-rule="evenodd"/>
    <path id="Path_1071" data-name="Path 1071" d="M-842.266,47.072c-.288-.351.549-.082,1.191.005.768-.051,1.432-.25,1.228,0a3.316,3.316,0,0,1-.452.528,1.458,1.458,0,0,1-1.453.046C-841.994,47.589-842.006,47.378-842.266,47.072Z" transform="translate(851.961 -31.367)" fill="#fff" stroke="#af7858" stroke-miterlimit="8" stroke-width="0.2" fill-rule="evenodd"/>
    <path id="Path_1072" data-name="Path 1072" d="M.088.057A.226.226,0,0,0,.21.46C.378.46.429.151.281.04.21-.019.195-.013.088.057ZM.266.32a.068.068,0,0,1-.1.041C.083.326.077.273.159.18S.307.2.266.32Z" transform="translate(6.912 14.652) rotate(180)" fill="#ffc000" fill-rule="evenodd"/>
    <path id="Path_1073" data-name="Path 1073" d="M.11.057c-.21.111-.1.4.153.4A.227.227,0,0,0,.351.04C.262-.019.243-.013.11.057ZM.332.32A.092.092,0,0,1,.211.361C.1.326.1.273.2.18S.383.2.332.32Z" transform="translate(15.2 14.56) rotate(180)" fill="#ffc000" fill-rule="evenodd"/>
    <path id="Path_1074" data-name="Path 1074" d="M-813.655,101.967l.653-.729a.133.133,0,0,1,.188-.01l.583.531,0-.144a.091.091,0,0,1,.18-.009l.021.386a.11.11,0,0,1-.1.115l-.361.018a.094.094,0,0,1-.01-.188l.132-.01-.517-.459h0l-.586.654C-813.619,102.263-813.787,102.087-813.655,101.967Z" transform="translate(825.975 -80.665)" fill="#fff" fill-rule="evenodd"/>
    <path id="Path_1075" data-name="Path 1075" d="M-814.244,114.013l-1.315.073c-.216.019-.235-.081-.241-.2l-.021-.449-.1.1a.09.09,0,0,1-.134-.121l.259-.287a.11.11,0,0,1,.154-.009l.268.243c.08.071-.031.218-.126.14l-.1-.086.025.428,1.211-.068-.033-.636c-.017-.124.215-.183.227-.017l.04.639C-814.123,113.909-814.1,113.989-814.244,114.013Z" transform="translate(828.125 -91.413)" fill="#fff" fill-rule="evenodd"/>
    <path id="Path_1076" data-name="Path 1076" d="M-936.735-22.315c.229-.522.874-.248,1.244-.15.347.022.417.321.387.569-.11.905-.533-.045-.746.347a9.115,9.115,0,0,0-.035.967c.035.686-1.187.809-1.272,1.276l-.736-.109A17.682,17.682,0,0,1-936.735-22.315Z" transform="translate(938.73 31.755)" fill="#ebaa82" fill-rule="evenodd"/>
    <path id="Path_1077" data-name="Path 1077" d="M-918.126-19.534c.006.02.01.04.017.059a.593.593,0,0,0,.04.083,1.1,1.1,0,0,0,.047.319c.029.062-.046-.151.008-.2s.175-.037.262-.056c.019-.072-.005-.018.158-.062a.553.553,0,0,0,.129-.05.311.311,0,0,0-.032-.1c-.006-.009-.027.01-.029.021-.009.052.046.123,0,.158-.072.051-.183.027-.274.04a.359.359,0,0,0,.026.05c.013.017.034.03.047.047l.024.032a.173.173,0,0,0,.015.042.225.225,0,0,0,.034.031.18.18,0,0,0,.057.046c.037.088-.012-.015.037.057s0,.02.05.073a.249.249,0,0,0,.015.042c.03.052.021,0,.025.041" transform="translate(920.784 28.96)" fill="none" stroke="#af7858" stroke-miterlimit="8" stroke-width="0.1" fill-rule="evenodd"/>
    <path id="Path_1078" data-name="Path 1078" d="M-745.779,102.962a3.666,3.666,0,0,0,1.039-2.089c.092-.132.312-.084.272.159a3.319,3.319,0,0,1-1.165,2.169C-745.674,103.231-745.783,103.213-745.779,102.962Z" transform="translate(764.304 -80.309)" fill="#146c3b" fill-rule="evenodd"/>
    <path id="Path_1079" data-name="Path 1079" d="M.345,2.631C.027,1.841.766.869,1.179.156,1.173,0,.953-.087.856.139.345.93-.192,1.768.067,2.484.087,2.532.213,2.845.345,2.631Z" transform="matrix(0.842, -0.539, 0.539, 0.842, 1.682, 20.012)" fill="#146c3b" fill-rule="evenodd"/>
    <path id="Path_1080" data-name="Path 1080" d="M.1,4.943C.461,5.079.863,2.865,1.1,3,1.243,3.1.8,5.347,1.188,5.389s.332-1.7.584-2.338c.222.274-.189,2.707.469,2.661.429.074-.043-2.987.263-2.615.127.324.117,2.793.679,2.776.435,0-.069-2.73.115-3.51.389-.513,1.081,1.213,1.829.7.2-.138-.846-.875-1.26-1.528a11.313,11.313,0,0,0-1.34-.9A3.865,3.865,0,0,1,2.391.252c-.342-.377-.74-.284-.818-.026a3.86,3.86,0,0,0,.005.486,1.541,1.541,0,0,0-.8,1.169C.539,2.559-.275,4.8.1,4.943Z" transform="matrix(-0.871, -0.491, 0.491, -0.871, 75.266, 19.204)" fill="#f5b591" stroke="#f5b591" stroke-miterlimit="8" stroke-width="0.2" fill-rule="evenodd"/>
    <path id="Path_1081" data-name="Path 1081" d="M1.55.131A6.405,6.405,0,0,0,.75.092L.489.079.424.066a.818.818,0,0,0-.1-.026C.245.03.163.031.082.026.011,0,.041,0,0,0" transform="matrix(-0.871, -0.491, 0.491, -0.871, 75.734, 16.147)" fill="none" stroke="#e1a17d" stroke-miterlimit="8" stroke-width="0.1" fill-rule="evenodd"/>
    <path id="Path_1082" data-name="Path 1082" d="M.9.892C.87.887.834.9.816.879S.81.825.8.8A.183.183,0,0,0,.767.761.211.211,0,0,0,.75.708C.727.671.68.676.636.669c-.124-.1.02,0-.1-.052S.6.609.44.577C.415.473.454.534.375.5.341.483.277.446.277.446.272.424.276.4.261.38S.223.378.212.367a.541.541,0,0,1-.049-.1C.154.244.14.228.13.21.072.093.128.167.065.092A.169.169,0,0,0,.049.039.233.233,0,0,0,0,0" transform="matrix(-0.871, -0.491, 0.491, -0.871, 73.872, 16.858)" fill="none" stroke="#e1a17d" stroke-miterlimit="8" stroke-width="0.1" fill-rule="evenodd"/>
    <path id="Path_1083" data-name="Path 1083" d="M-305,207l5.174.016.9,16.5-.874.058-2.071-14.577-.741-.041c-.016,4.941-.034,9.619-.05,14.561l-.893-.016Z" transform="translate(364.104 -176.731)" fill="#2b384c" fill-rule="evenodd"/>
    <path id="Path_1084" data-name="Path 1084" d="M-304.753,386.585c.883-.093.814-.39,1.221-.585.305.081.907-.081.925.121,0,.235-.009.573-.009.827l-.593.065-.027-.13-.8.1C-304.974,387.019-305.259,386.756-304.753,386.585Z" transform="translate(364.104 -339.252)" fill="#272727" fill-rule="evenodd"/>
    <path id="Path_1085" data-name="Path 1085" d="M-303.855,386.585c.9-.091.8-.485,1.239-.585.312.079.808-.052.826.146,0,.232-.055.2-.055.448a12.076,12.076,0,0,1-1.285.2C-303.357,386.866-304.372,386.835-303.855,386.585Z" transform="translate(363.196 -339.252)" fill="#4a4a4a" fill-rule="evenodd"/>
    <path id="Path_1086" data-name="Path 1086" d="M.257.427c.917.093.845.39,1.268.585.317-.081.942.081.96-.121,0-.235-.009-.573-.009-.827L1.861,0,1.833.13,1,.028C.027-.006-.268.257.257.427Z" transform="translate(66.745 47.761) rotate(180)" fill="#272727" fill-rule="evenodd"/>
    <path id="Path_1087" data-name="Path 1087" d="M.145.243c.9.091.8.485,1.239.585C1.7.749,2.191.88,2.209.682c0-.232-.055-.2-.055-.448A12.1,12.1,0,0,0,.87.033C.643-.037-.372-.007.145.243Z" transform="translate(66.561 47.577) rotate(180)" fill="#4a4a4a" fill-rule="evenodd"/>
    <path id="Path_1088" data-name="Path 1088" d="M-201.685,65.452l.827-1.238,1.3.863,3.148-3.74.893-.4c.029.129-.241.308-.718,1.171l-2.142,4.008C-199.584,67.6-199.642,67.1-201.685,65.452Z" transform="translate(270.3 -44.116)" fill="#f5b591" stroke="#f5b591" stroke-miterlimit="8" stroke-width="0.4" fill-rule="evenodd"/>
    <path id="Path_1091" data-name="Path 1091" d="M-361.17,61.234c-1.037.755-1.325,1.053-2.362,1.779A2.313,2.313,0,0,1-364.5,61.4a12.3,12.3,0,0,1,3.257-2.72,16.246,16.246,0,0,1,3.051-1.176c1.252,0,2.327.107,3.579.111a34.235,34.235,0,0,1,3.537,1.443,34.676,34.676,0,0,1,2.957,2.219,3.9,3.9,0,0,1-.487,2.315,17.968,17.968,0,0,0-2.951-2.259c-1.752,2.2-1.528,10.042-2.072,10.209-1.262.907-3.668.608-5.81.25C-359.395,68.55-359.336,63.679-361.17,61.234Z" transform="translate(418.126 -40.994)" fill="#17a754" stroke="#17a754" stroke-miterlimit="8" stroke-width="0.2" fill-rule="evenodd"/>
    <path id="Path_1092" data-name="Path 1092" d="M-319,118a3.216,3.216,0,0,1,.46,1.841A14.843,14.843,0,0,0-319,118Z" transform="translate(376.815 -95.924)" fill="#146c3b" fill-rule="evenodd"/>
    <path id="Path_1093" data-name="Path 1093" d="M0,1.749A3.512,3.512,0,0,0,.368,0,16.315,16.315,0,0,1,0,1.749Z" transform="translate(65.732 24.101) rotate(180)" fill="#146c3b" fill-rule="evenodd"/>
    <path id="Path_1094" data-name="Path 1094" d="M-194.07,98.409a3.666,3.666,0,0,0,.4-2.3c.05-.153.275-.169.306.074a3.318,3.318,0,0,1-.493,2.412C-193.893,98.636-194,98.651-194.07,98.409Z" transform="translate(263.386 -75.947)" fill="#146c3b" fill-rule="evenodd"/>
    <path id="Path_1095" data-name="Path 1095" d="M-303.614,208.45a9.362,9.362,0,0,1-5.7-.011q-.059-.027-.114-.055" transform="translate(368.123 -177.986)" fill="none" stroke="#595959" stroke-miterlimit="8" stroke-width="0.1" fill-rule="evenodd"/>
    <path id="Path_1096" data-name="Path 1096" d="M-379.92,100.5l.767,1.521-.349.271,4.88,7.047.488,3.272c-.282.318-.353.635-.847.953-.161.165.038.293-.129.367-.084,0-.311.11-.377-.367-.186-.027-.713-.035-.727-.128-.015-.212-.1-.612.423-.467.218-.075.261.137.12-.156-.522-.145-.532-.295-.746-1.347.156-.3.377-.422.635-.33-.147-1.029-.064-1.353.3-1.631l-5.718-6.758c-.529-.773-.247-.877-.04-1.219Z" transform="translate(433.561 -80.035)" fill="#f5b591" stroke="#f5b591" stroke-miterlimit="8" stroke-width="0.2" fill-rule="evenodd"/>
    <path id="Path_1097" data-name="Path 1097" d="M-322.856,218.5a.393.393,0,0,1-.03.055c-.008.01-.021.014-.03.022s-.02.022-.03.033,0,.041-.01.055-.028.005-.04.011c-.1.046.045,0-.07.033-.148.081-.005.011-.393.033-.032,0-.029.009-.04.033" transform="translate(380.901 -187.172)" fill="none" stroke="#e1a17d" stroke-miterlimit="8" stroke-width="0.1" fill-rule="evenodd"/>
    <path id="Path_1098" data-name="Path 1098" d="M-320.5,217.5c-.007-.016,0,.058.045.073.015.061,0,0,.022.051s-.02-.019.022.044C-320.4,217.741-320.49,217.518-320.5,217.5Z" transform="translate(378.177 -186.264)" fill="#4472c4" stroke="#e1a17d" stroke-miterlimit="8" stroke-width="1" fill-rule="evenodd"/>
    <path id="Path_1099" data-name="Path 1099" d="M-323.4,227.5l-.377.087c-.009,0-.018.007-.027.01l-.09.019c-.053.057,0,.009-.1.039-.01,0-.017.014-.027.019a.2.2,0,0,1-.027.01l-.386-.019a.07.07,0,0,1-.027-.01.257.257,0,0,1-.027-.019l-.018-.029" transform="translate(381.809 -195.343)" fill="none" stroke="#e1a17d" stroke-miterlimit="8" stroke-width="0.1" fill-rule="evenodd"/>
    <path id="Path_1100" data-name="Path 1100" d="M-310.229,231.5c.027-.011-.071.011-.107.018-.008,0-.016.008-.025.009-.041.008-.082.012-.123.018-.006.012-.01.025-.016.037C-310.517,231.62-310.256,231.513-310.229,231.5Z" transform="translate(369.098 -198.975)" fill="#4472c4" stroke="#e1a17d" stroke-miterlimit="8" stroke-width="1" fill-rule="evenodd"/>
    <path id="Path_1101" data-name="Path 1101" d="M-318.856,232.5c-.259.5-.065.345-.644.345" transform="translate(377.269 -199.883)" fill="none" stroke="#e1a17d" stroke-miterlimit="8" stroke-width="0.1" fill-rule="evenodd"/>
    <path id="Path_1102" data-name="Path 1102" d="M-318.5,234.592l.4-.031a.328.328,0,0,0,.061-.031V234.5" transform="translate(376.361 -201.699)" fill="none" stroke="#e1a17d" stroke-miterlimit="8" stroke-width="0.1" fill-rule="evenodd"/>
    <path id="Path_1103" data-name="Path 1103" d="M-288.826,35.1l2-.1c.014,1.175.119,1.672.132,2.847-.663.052-.777,1.32-1.161,1.2s-.367-.987-1.141-1.523Z" transform="translate(349.577 -20.565)" fill="#f5b591" fill-rule="evenodd"/>
    <path id="Path_1104" data-name="Path 1104" d="M-287.918,39c.538.482.94.535,1.943,0l-.036.434a5.322,5.322,0,0,1-1.989.395A2.932,2.932,0,0,1-287.918,39Z" transform="translate(348.669 -24.197)" fill="#dda485" fill-rule="evenodd"/>
    <path id="Path_1105" data-name="Path 1105" d="M.8,2.658C.928,2.782.782,1.921.79,1.507c.1-.527.72-.761.567-.868C1,.268.141-.177.074.073-.1,1.281-.016,2.28.8,2.658Z" transform="translate(63.615 18.209) rotate(180)" fill="#146c3b" fill-rule="evenodd"/>
    <path id="Path_1106" data-name="Path 1106" d="M.809,2.486l.019-.14A12.633,12.633,0,0,1,.35,0L0,.355a17.433,17.433,0,0,0,.356,1.97C.571,2.44.754,2.4.809,2.486Z" transform="translate(62.004 20.004) rotate(180)" fill="#17a754" stroke="#595959" stroke-miterlimit="8" stroke-width="0.1" fill-rule="evenodd"/>
    <path id="Path_1107" data-name="Path 1107" d="M-276.849,69.5l.362.363a3.287,3.287,0,0,0-.383,2.03l-.63-.048a6.263,6.263,0,0,1,.376-2.28Z" transform="translate(339.136 -51.889)" fill="#17a754" stroke="#595959" stroke-miterlimit="8" stroke-width="0.1" fill-rule="evenodd"/>
    <path id="Path_1108" data-name="Path 1108" d="M-296.2,47.012c.125-.125-.021.737-.013,1.151.1.527.72.761.567.868-.356.371-1.215.816-1.283.566C-297.1,48.388-297.016,47.39-296.2,47.012Z" transform="translate(356.841 -31.461)" fill="#146c3b" fill-rule="evenodd"/>
    <path id="Path_1109" data-name="Path 1109" d="M-260.007,83.753l.649-.668a.122.122,0,0,1,.176,0l.518.543,0-.139a.085.085,0,0,1,.169,0v.373a.1.1,0,0,1-.1.105l-.339,0c-.1,0-.114-.177,0-.181l.124,0-.46-.469h0l-.582.6C-259.989,84.041-260.137,83.861-260.007,83.753Z" transform="translate(323.298 -64.19)" fill="#fff" fill-rule="evenodd"/>
    <path id="Path_1110" data-name="Path 1110" d="M-261.34,95.965h-1.26c-.207.007-.22-.087-.22-.194l0-.417-.1.092a.085.085,0,0,1-.122-.119l.262-.253a.108.108,0,0,1,.148,0l.243.238c.073.07-.041.2-.127.123l-.091-.085v.4h1.16l0-.59c-.01-.116.215-.159.218,0l0,.593C-261.219,95.874-261.2,95.95-261.34,95.965Z" transform="translate(326.024 -75.083)" fill="#fff" fill-rule="evenodd"/>
    <path id="Path_1111" data-name="Path 1111" d="M-365.757,98.029l.954,1.7c-.11.008-.012.228-.33.023l-.82-1.418C-366.071,98.234-365.952,97.9-365.757,98.029Z" transform="translate(419.488 -77.765)" fill="#146c3b" fill-rule="evenodd"/>
    <path id="Path_1112" data-name="Path 1112" d="M-275,83.138a.138.138,0,0,1,.138-.138.138.138,0,0,1,.138.138.138.138,0,0,1-.138.138A.138.138,0,0,1-275,83.138Z" transform="translate(336.866 -64.146)" fill="#146c3b" fill-rule="evenodd"/>
    <path id="Path_1113" data-name="Path 1113" d="M-273,73.138a.138.138,0,0,1,.138-.138.138.138,0,0,1,.138.138.138.138,0,0,1-.138.138A.138.138,0,0,1-273,73.138Z" transform="translate(335.05 -55.067)" fill="#146c3b" fill-rule="evenodd"/>
    <path id="Path_1114" data-name="Path 1114" d="M-325.7-112.726c-.087-.673-.149-.524.766-1.189.295-.241.093.043.362.092-.006-.125-.048-.054-.167-.231.3-.168.578-.211.853-.378,1.461-.527,1.1.219,1.287-.015-.131-.2-.427-.143-.119-.237a6.079,6.079,0,0,1,1.968-.326c1.5.193,2.328.576,2.818,2.017.6,0,.688.334,1.1,1.142a12.8,12.8,0,0,1-.671,4.583c.611.094.963.1.924.534-.025,1.211-1.123,2.615-1.908,1.706a6.216,6.216,0,0,1-2.713,4.02,1.679,1.679,0,0,1-2.522-.27c-1.137-1.291-1.394-1.66-1.826-4.4-.59.086-1.394-.271-1.52-1.568-.056-1.3.973-.913,1.113-.927A19.986,19.986,0,0,1-325.7-112.726Z" transform="translate(384.144 115.634)" fill="#f5b591" fill-rule="evenodd"/>
    <path id="Path_1115" data-name="Path 1115" d="M-285.529,9.666c-.236-.4.533-.018,1.135.15.738.039,1.393-.087,1.171.147a3.31,3.31,0,0,1-.49.494,1.305,1.305,0,0,1-1.39-.128C-285.326,10.236-285.314,10.015-285.529,9.666Z" transform="translate(346.465 2.596)" fill="#fff" stroke="#c2805c" stroke-miterlimit="8" stroke-width="0.2" fill-rule="evenodd"/>
    <path id="Path_1116" data-name="Path 1116" d="M-279.472,23.607a1.321,1.321,0,0,1-1.1-.114" transform="translate(341.929 -10.117)" fill="none" stroke="#c2805c" stroke-miterlimit="8" stroke-width="0.1" fill-rule="evenodd"/>
    <path id="Path_1117" data-name="Path 1117" d="M-254.571-36.312a1.258,1.258,0,0,1,1.558.164l.007.008" transform="translate(318.317 44.36)" fill="none" stroke="#c2805c" stroke-miterlimit="8" stroke-width="0.1" fill-rule="evenodd"/>
    <path id="Path_1118" data-name="Path 1118" d="M-297.576-41.265a1.183,1.183,0,0,1,1.65.206l.008.01" transform="translate(357.363 48.902)" fill="none" stroke="#c2805c" stroke-miterlimit="8" stroke-width="0.1" fill-rule="evenodd"/>
    <path id="Path_1119" data-name="Path 1119" d="M-300.037-38.646c.118-.341.7-.243,1.057-.365.311.162.781.242.932.486-.133.427-.135,1.155-1.076,1.171A.992.992,0,0,1-300.037-38.646Z" transform="translate(359.63 46.631)" fill="#fff" fill-rule="evenodd"/>
    <path id="Path_1120" data-name="Path 1120" d="M-300.049-39.542c-.191-.177.806-.5,1.037-.466.541-.012,1.151.5,1.044.587-.238.171.153-.1-1.057-.282A2.709,2.709,0,0,0-300.049-39.542Z" transform="translate(359.63 47.539)" fill="#d7a16d" fill-rule="evenodd"/>
    <path id="Path_1121" data-name="Path 1121" d="M-295.573-33.912a.6.6,0,0,1,.6-.6.6.6,0,0,1,.6.6.6.6,0,0,1-.6.6A.6.6,0,0,1-295.573-33.912Z" transform="translate(355.545 42.546)" fill="#80633c" stroke="#7f6000" stroke-miterlimit="8" stroke-width="0.067" fill-rule="evenodd"/>
    <path id="Path_1122" data-name="Path 1122" d="M-293.073-32.688a.322.322,0,0,1,.322-.322.322.322,0,0,1,.322.322.322.322,0,0,1-.322.322A.322.322,0,0,1-293.073-32.688Z" transform="translate(353.275 41.184)" fill-rule="evenodd"/>
    <path id="Path_1123" data-name="Path 1123" d="M-296.073-33.78a.23.23,0,0,1,.23-.23.23.23,0,0,1,.23.23.23.23,0,0,1-.23.23A.23.23,0,0,1-296.073-33.78Z" transform="translate(355.999 42.092)" fill="#fff" fill-rule="evenodd"/>
    <path id="Path_1124" data-name="Path 1124" d="M-258.022-33.7c.136-.336.715-.207,1.072-.311.3.179.764.283.9.537-.156.422-.2,1.153-1.135,1.119A1,1,0,0,1-258.022-33.7Z" transform="translate(321.498 42.092)" fill="#fff" fill-rule="evenodd"/>
    <path id="Path_1125" data-name="Path 1125" d="M-258.052-34.569c-.174-.2.8-.484,1.02-.436.52.017,1.079.589.971.677-.237.168.164-.084-.988-.346A2.526,2.526,0,0,0-258.052-34.569Z" transform="translate(321.496 43)" fill="#d7a16d" fill-rule="evenodd"/>
    <path id="Path_1126" data-name="Path 1126" d="M-254.569-29.943a.6.6,0,0,1,.629-.566.6.6,0,0,1,.566.629.6.6,0,0,1-.629.566A.6.6,0,0,1-254.569-29.943Z" transform="translate(318.317 38.914)" fill="#80633c" stroke="#7f6000" stroke-miterlimit="8" stroke-width="0.067" fill-rule="evenodd"/>
    <path id="Path_1127" data-name="Path 1127" d="M-252.076-27.7a.354.354,0,0,1,.387-.3.342.342,0,0,1,.348.339.354.354,0,0,1-.387.3A.342.342,0,0,1-252.076-27.7Z" transform="translate(316.053 36.643)" fill-rule="evenodd"/>
    <path id="Path_1128" data-name="Path 1128" d="M-254.075-28.834a.217.217,0,0,1,.242-.174.205.205,0,0,1,.218.194.217.217,0,0,1-.242.174A.2.2,0,0,1-254.075-28.834Z" transform="translate(317.868 37.55)" fill="#fff" fill-rule="evenodd"/>
    <path id="Path_1129" data-name="Path 1129" d="M-314.505-26.866c-.01-.052-.021-.1-.03-.157,0-.012,0-.024-.006-.035a.18.18,0,0,0-.012-.026c0-.023,0-.047-.006-.07a.317.317,0,0,1-.012-.044v-.057l.006-.143.008-.033.01-.028a.162.162,0,0,1,.043-.026l.012-.026h.013" transform="translate(372.796 36.19)" fill="none" stroke="#c5835f" stroke-miterlimit="8" stroke-width="0.1" fill-rule="evenodd"/>
    <path id="Path_1130" data-name="Path 1130" d="M-319.573-31.51c.093,0,.186,0,.279.01.047,0,.017.028.039.051.007.008.019.007.029.01.023.072-.007-.017.029.072,0,.01,0,.022.01.031a.116.116,0,0,0,.029.02.332.332,0,0,1,.019.031c0,.01.006.021.01.031s.013.027.019.041a.293.293,0,0,0,.01.041c0,.011.014.02.019.031a.321.321,0,0,1,.01.031.167.167,0,0,0,.019.051c.009.012.026.014.038.02.027.042.012.027.058.061l.029.02" transform="translate(377.335 39.822)" fill="none" stroke="#c5835f" stroke-miterlimit="8" stroke-width="0.1" fill-rule="evenodd"/>
    <path id="Path_1131" data-name="Path 1131" d="M.135,0,.074.157A.2.2,0,0,1,.062.192.181.181,0,0,1,.037.218a.5.5,0,0,1-.012.07C.02.3,0,.315,0,.331a1.275,1.275,0,0,0,.012.2A.209.209,0,0,0,.05.592.458.458,0,0,0,.135.618c.029.031.01.026.049.026" transform="translate(66.697 10.247) rotate(180)" fill="none" stroke="#c5835f" stroke-miterlimit="8" stroke-width="0.1" fill-rule="evenodd"/>
    <path id="Path_1132" data-name="Path 1132" d="M0,.552c.093,0,.186,0,.279-.01C.326.537.3.514.317.491.325.483.337.484.346.481.369.409.34.5.375.409c0-.01,0-.022.01-.031A.115.115,0,0,1,.414.358.3.3,0,0,0,.433.327C.437.318.438.307.442.3S.455.269.462.256A.278.278,0,0,1,.471.215C.476.2.485.2.491.184S.5.164.5.153A.167.167,0,0,1,.519.1C.529.091.545.089.558.082.584.039.57.055.616.02L.644,0" transform="translate(67.066 9.786) rotate(180)" fill="none" stroke="#c5835f" stroke-miterlimit="8" stroke-width="0.1" fill-rule="evenodd"/>
    <path id="Path_1133" data-name="Path 1133" d="M-279.073-20.5a2.019,2.019,0,0,0,.748.36l.663-.2a10.626,10.626,0,0,0-.047-1.669c.041-.008.21.4.294,1.623-.323.335-.775.555-.966.479A1.216,1.216,0,0,1-279.073-20.5Z" transform="translate(340.564 31.196)" fill="#d2906c" fill-rule="evenodd"/>
    <path id="Path_1134" data-name="Path 1134" d="M-299.889-59a1.239,1.239,0,0,1,.991.357c.329.577.6,1.314-.315.4a1.629,1.629,0,0,0-.5-.139,4.32,4.32,0,0,0-.8.054c-1.033.589-.344-.208-.261-.289C-300.333-59-300.183-59.033-299.889-59Z" transform="translate(360.538 64.79)" fill="#c5792e" fill-rule="evenodd"/>
    <path id="Path_1135" data-name="Path 1135" d="M-257.889-54a1.3,1.3,0,0,1,.991.329c.329.532.6,1.213-.315.371a1.735,1.735,0,0,0-.5-.128,4.671,4.671,0,0,0-.8.05c-1.033.544-.344-.192-.261-.267C-258.333-54-258.183-54.031-257.889-54Z" transform="translate(322.405 60.25)" fill="#c5792e" fill-rule="evenodd"/>
    <path id="Path_1136" data-name="Path 1136" d="M-286.991,37.99c.538.536.94.594,1.943,0l-.036.482a4.862,4.862,0,0,1-1.989.439A3.607,3.607,0,0,1-286.991,37.99Z" transform="translate(347.827 -23.28)" fill="#dda485" fill-rule="evenodd"/>
    <path id="Path_1137" data-name="Path 1137" d="M-236.073-91.639l.774-1.287.44-.084c1.274,1.5.873,3.056-.009,5.789-.546.146-.389.685-.555.931a1.553,1.553,0,0,1-.194-.247c.094-.835.049-1.569.144-1.929-.138.009-.229-.3-.3-.548C-235.218-90.71-235.974-90.764-236.073-91.639Z" transform="translate(301.522 95.66)" fill="#c5792e" fill-rule="evenodd"/>
    <path id="Path_1138" data-name="Path 1138" d="M-314.679-91.01l1.447.687c-.2.791-.711,1.723-.318,2.409-.7.423-.637,1.195-.807,2.8l-.208-.063c-.006-.56.034-.814-.413-1.176A11.072,11.072,0,0,1-314.679-91.01Z" transform="translate(373.25 93.844)" fill="#c5792e" fill-rule="evenodd"/>
    <path id="Path_1139" data-name="Path 1139" d="M-310.455-112.668c1.887-.7,3.906-1.5,5.739-.691,2.588,1.335,1.262,3.524.363,3.531-2.012.031-3.027-1.246-4.875-.705C-310.075-110.431-312-111.518-310.455-112.668Z" transform="translate(369.587 114.444)" fill="#cf8031" stroke="#c5792e" stroke-miterlimit="8" stroke-width="1.333" fill-rule="evenodd"/>
    <path id="Path_1140" data-name="Path 1140" d="M-288.307-113.418l1.366-.4c1.952.569,2.9,1.285,3.377,2.727.427-.745.427-1.972-2.609-2.775,2.572-.29,3.881,1.635,3.451,1.685.6,1.712-.611,2.734-2.668,1.9C-285.2-112.332-287.234-113.074-288.307-113.418Z" transform="translate(348.948 114.624)" fill="#c5792e" stroke="#c5792e" stroke-miterlimit="8" stroke-width="1.333" fill-rule="evenodd"/>
    <path id="Path_1141" data-name="Path 1141" d="M-295.848-107.147l.366-.133c2.065.807,2.758,2.086,2.657,2.767l-.556-.142C-293.314-105.782-294.84-106.658-295.848-107.147Z" transform="translate(355.794 108.616)" fill="#c5792e" fill-rule="evenodd"/>
    <path id="Path_1142" data-name="Path 1142" d="M-309.35-100.5l.254-.139c1.68.559,2.3,1.388,2.233,1.832l-.458-.025C-307.283-99.564-308.529-100.16-309.35-100.5Z" transform="translate(368.053 102.582)" fill="#c5792e" fill-rule="evenodd"/>
    <path id="Path_1143" data-name="Path 1143" d="M-309.588-96.324l-.288.021c-1.68-.559-1.7-.977-1.628-1.421l.2-.283C-311.34-97.271-310.41-96.659-309.588-96.324Z" transform="translate(370.028 100.197)" fill="#c5792e" fill-rule="evenodd"/>
    <path id="Path_1145" data-name="Path 1145" d="M-272.652-30.234c-.006-.018-.011-.036-.018-.053s-.013-.02-.018-.032-.007-.047-.027-.064a.541.541,0,0,0-.154-.074l-.081-.011c-.188-.063-.115-.046-.487-.011-.016,0-.021.055-.027.064a.107.107,0,0,1-.027.021.14.14,0,0,1-.027.064.164.164,0,0,1-.036.021l-.018.011" transform="translate(335.57 38.914)" fill="none" stroke="#000" stroke-miterlimit="8" stroke-width="0.1" fill-rule="evenodd"/>
    <path id="Path_1147" data-name="Path 1147" d="M-264.073-40.4a1.635,1.635,0,0,1,1.657-1.611,1.635,1.635,0,0,1,1.657,1.611,1.635,1.635,0,0,1-1.657,1.611A1.635,1.635,0,0,1-264.073-40.4Z" transform="translate(326.945 49.355)" fill="rgba(255,255,255,0.24)" fill-rule="evenodd"/>
    <path id="Path_1148" data-name="Path 1148" d="M-310.073-45.4a1.635,1.635,0,0,1,1.657-1.611,1.635,1.635,0,0,1,1.657,1.611,1.635,1.635,0,0,1-1.657,1.611A1.635,1.635,0,0,1-310.073-45.4Z" transform="translate(368.71 53.895)" fill="rgba(255,255,255,0.24)" fill-rule="evenodd"/>
    <path id="Path_1144" data-name="Path 1144" d="M-263.573-39.853a1.657,1.657,0,0,1,1.657-1.657,1.657,1.657,0,0,1,1.657,1.657,1.657,1.657,0,0,1-1.657,1.657A1.657,1.657,0,0,1-263.573-39.853Z" transform="translate(326.451 48.855)" fill="none" stroke="#000" stroke-miterlimit="8" stroke-width="0.2" fill-rule="evenodd"/>
    <path id="Path_1146" data-name="Path 1146" d="M-309.573-44.853a1.657,1.657,0,0,1,1.657-1.657,1.657,1.657,0,0,1,1.657,1.657,1.657,1.657,0,0,1-1.657,1.657A1.657,1.657,0,0,1-309.573-44.853Z" transform="translate(368.256 53.441)" fill="none" stroke="#000" stroke-miterlimit="8" stroke-width="0.2" fill-rule="evenodd"/>
    <path id="Path_905" data-name="Path 905" d="M-682.832-29.853c1.38-.045,1.623.362,1.639.671s-.005,1.132-1.54,1.184-1.685-.472-1.685-1.008S-684.213-29.809-682.832-29.853Zm.661-.137A15.821,15.821,0,0,0-685-29.7a2.332,2.332,0,0,0,.035.427c.846.007-.536,1.436,2.211,1.387,1.132-.02,1.365-.308,1.595-.613.247-.328.022-.883.274-.861a.461.461,0,0,0-.073-.46A7.886,7.886,0,0,0-682.171-29.99Z" transform="translate(709.12 38.451)" fill-rule="evenodd"/>
    <path id="Path_903" data-name="Path 903" d="M2.168,1.971c1.38.045,1.623-.362,1.639-.671S3.8.169,2.267.116.583.589.583,1.124.787,1.926,2.168,1.971Zm.661.137A15.821,15.821,0,0,1,0,1.815a2.341,2.341,0,0,1,.035-.427C.88,1.381-.5-.048,2.246,0c1.132.02,1.365.308,1.595.613.247.328.022.883.274.861a.461.461,0,0,1-.073.46A7.885,7.885,0,0,1,2.829,2.108Z" transform="translate(24.12 10.568) rotate(180)" fill-rule="evenodd"/>
  </g>
</svg>
