<svg xmlns="http://www.w3.org/2000/svg" xmlns:xlink="http://www.w3.org/1999/xlink" width="57.733" height="62.004" viewBox="0 0 57.733 62.004">
  <defs>
    <linearGradient id="linear-gradient" x1="0.5" y1="1" x2="0.5" gradientUnits="objectBoundingBox">
      <stop offset="0" stop-color="gray" stop-opacity="0.251"/>
      <stop offset="0.535" stop-color="gray" stop-opacity="0.122"/>
      <stop offset="1" stop-color="gray" stop-opacity="0.102"/>
    </linearGradient>
  </defs>
  <g id="Group_610" data-name="Group 610" transform="translate(0 0.001)">
    <path id="Path_3138" data-name="Path 3138" d="M369.066,127.788l2.314-2.43s2.546-3.818,4.4-2.777-2.661,3.471-2.661,3.471L370.8,129.87Z" transform="translate(-358.416 -117.243)" fill="#fda57d"/>
    <path id="Path_3139" data-name="Path 3139" d="M265.809,787.668s-1.736,3.355-.463,3.587,7.521.579,7.636.231,1.041-1.5.347-1.967a14.123,14.123,0,0,0-3.471-.81l-.926-.926Z" transform="translate(-262.448 -730.031)" fill="#2f2e41"/>
    <path id="Path_3140" data-name="Path 3140" d="M243.062,370.288s-3.7,4.628-.694,9.372l.694,7.984s-1.273,10.992.347,14.694l.231,1.273h4.05l-1.041-9.719s.116-1.157.463-1.388,6.017-12.727,6.017-12.727-.926-1.736-.579-2.083-.347-7.289-.694-7.521S243.062,370.288,243.062,370.288Z" transform="translate(-240.627 -345.396)" fill="#2f2e41"/>
    <path id="Path_3141" data-name="Path 3141" d="M67.188,712.073l.463,2.661-4.512-.231.579-2.893Z" transform="translate(-58.158 -655.477)" fill="#fda57d"/>
    <path id="Path_3175" data-name="Path 3175" d="M3.471,0A3.471,3.471,0,1,1,0,3.471,3.471,3.471,0,0,1,3.471,0Z" transform="translate(4.749 2.446)" fill="#fda57d"/>
    <path id="Path_3142" data-name="Path 3142" d="M294.608,139.35l-.347,4.165,3.7,1.736s-.636-3.876-.174-4.917Z" transform="translate(-289.512 -132.854)" fill="#fda57d"/>
    <path id="Path_3143" data-name="Path 3143" d="M242.971,174.743l-.347-1.388-4.744-1.736s-.463,0-.347.81.116.694.116.694-1.62.694-1.736,1.851-1.967,1.5-1.851,3.24a6.147,6.147,0,0,0,.694,2.661,2.062,2.062,0,0,0,.347,2.2,3.9,3.9,0,0,1,.463,2.777c-.463,1.157-1.041,3.124.231,2.777s10.066-.926,10.066-.926,1.273-4.744-.116-6.479a8.059,8.059,0,0,0-1.041-3.124C243.665,176.016,242.971,174.743,242.971,174.743Z" transform="translate(-234.057 -162.578)" fill="#17a754"/>
    <path id="Path_3144" data-name="Path 3144" d="M269.325,366.16s1.5,6.364,3.355,7.058c0,0,.347,4.628,2.314,4.4s0-4.4,0-4.4l-2.2-7.984Z" transform="translate(-266.543 -340.92)" fill="#fda57d"/>
    <path id="Path_3145" data-name="Path 3145" d="M344.131,187.994s1.736-2.777,2.2-2.314,2.777,1.851,2.661,2.777-1.157.926-1.157.926l-2.43,1.851Z" transform="translate(-335.448 -175.481)" fill="#17a754"/>
    <path id="Path_3146" data-name="Path 3146" d="M297.892,478.177l1.389,1,.926,9.878s-3.355,13.422-4.281,13.537-4.744.116-4.628-.231a14.653,14.653,0,0,0,.694-2.083,29.734,29.734,0,0,1,1.207-3.123l1.57-6.48-.347-5.091Z" transform="translate(-286.779 -444.953)" fill="#2f2e41"/>
    <path id="Path_3147" data-name="Path 3147" d="M284.724,782.351s-4.86-1.5-5.091-1.157-1.775,3.846.385,4.237,9.912,1.085,9.912.044-.231-1.736-.926-1.736a13.076,13.076,0,0,1-4.05-1.851C284.724,781.541,284.724,782.351,284.724,782.351Z" transform="translate(-275.347 -724.019)" fill="#2f2e41"/>
    <path id="Path_3148" data-name="Path 3148" d="M284.382,67.744a.343.343,0,0,1,.464-.458l.006,0a.6.6,0,0,1,.282.6c.417-.416.11-1.251.561-1.631.209-.176.547-.214.655-.465.062-.146.02-.319.075-.468a.679.679,0,0,1,.576-.348,5.592,5.592,0,0,1,2.194.261,1.538,1.538,0,0,1,.734.337,2.586,2.586,0,0,1,.4.758c.124.259.939.236,1.224.2.1-.281-.632-.3-.692-.595-.163-.8.405-1.648.126-2.414a1.94,1.94,0,0,0-1.049-.982A5.566,5.566,0,0,0,286,62.206a.874.874,0,0,0-.364.176c-.168.157-.2.409-.311.61-.255.458-.86.567-1.268.9a2.8,2.8,0,0,0-.708,2.191,2.7,2.7,0,0,0,.147,1.18.923.923,0,0,0,.944.586C284.417,67.814,284.4,67.78,284.382,67.744Z" transform="translate(-279.453 -61.599)" fill="#601a00"/>
    <path id="Path_3149" data-name="Path 3149" d="M250.42,224.778a2.465,2.465,0,0,0-3.009.153,3.688,3.688,0,0,0-1.592,2.654c.116,1.851.81,9.488,1.736,9.6s4.281-.81,4.281-1.388-.81-1.273-.81-1.273l.983-5.9a3.9,3.9,0,0,0-1.536-3.811Z" transform="translate(-244.888 -211.139)" fill="#17a754"/>
    <g id="Group_607" data-name="Group 607" transform="translate(18.023 2.418)" opacity="0.5">
      <circle id="Ellipse_102" data-name="Ellipse 102" cx="5.958" cy="5.958" r="5.958" fill="url(#linear-gradient)"/>
    </g>
    <circle id="Ellipse_103" data-name="Ellipse 103" cx="5.832" cy="5.832" r="5.832" transform="translate(18.161 2.505)" fill="#f5f5f5"/>
    <path id="Path_3150" data-name="Path 3150" d="M502.357,128.966c0,1.94-1.394,2.895-3.2,2.895s-3.35-.955-3.35-2.895a3.285,3.285,0,1,1,6.554,0Z" transform="translate(-475.156 -120.054)" fill="#333"/>
    <path id="Path_3151" data-name="Path 3151" d="M499.165,211.225a5.8,5.8,0,0,0,3.206-.959c-.215-1.174-1.033-1.241-1.033-1.241h-4.509s-.772.063-1.013,1.144A5.805,5.805,0,0,0,499.165,211.225Z" transform="translate(-475.167 -197.033)" fill="#17a754"/>
    <path id="Path_3152" data-name="Path 3152" d="M291.923,133.874h1.8v1.493a.852.852,0,0,1-.852.852h-.1a.852.852,0,0,1-.852-.852v-1.493Z" transform="translate(-268.895 -123.315)" opacity="0.1"/>
    <path id="Path_3153" data-name="Path 3153" d="M292.085,133.027h1.479a.162.162,0,0,1,.162.162v1.331a.852.852,0,0,1-.852.852h-.1a.852.852,0,0,1-.852-.852v-1.331a.162.162,0,0,1,.162-.162Z" transform="translate(-268.895 -122.535)" fill="#fda57d"/>
    <path id="Path_3154" data-name="Path 3154" d="M526.022,196.968a2.6,2.6,0,0,0,1.8,0v-.222h-1.8Z" transform="translate(-502.991 -185.728)" opacity="0.1"/>
    <circle id="Ellipse_104" data-name="Ellipse 104" cx="2.585" cy="2.585" r="2.585" transform="translate(21.351 6.19)" fill="#fda57d"/>
    <path id="Path_3155" data-name="Path 3155" d="M499.721,135.526a4.643,4.643,0,0,0,2.83-1.756s1.61,1.773,2.732,1.577a.978.978,0,0,0,0-1.366c-.651-.683-1.155-1.545-2.017-1.431a5.257,5.257,0,0,0-2.374.569A10.1,10.1,0,0,0,499.721,135.526Z" transform="translate(-478.764 -126.582)" opacity="0.1"/>
    <path id="Path_3156" data-name="Path 3156" d="M499.721,135.114a4.643,4.643,0,0,0,2.83-1.756s1.61,1.773,2.732,1.577a.978.978,0,0,0,0-1.366c-.651-.683-1.155-1.545-2.017-1.431a5.256,5.256,0,0,0-2.374.569A10.1,10.1,0,0,0,499.721,135.114Z" transform="translate(-478.764 -126.202)" fill="#333"/>
    <ellipse id="Ellipse_105" data-name="Ellipse 105" cx="0.24" cy="0.451" rx="0.24" ry="0.451" transform="translate(21.109 8.322)" fill="#fda57d"/>
    <ellipse id="Ellipse_106" data-name="Ellipse 106" cx="0.24" cy="0.451" rx="0.24" ry="0.451" transform="translate(26.281 8.322)" fill="#fda57d"/>
    <g id="Group_608" data-name="Group 608" transform="translate(43.255 2.843)" opacity="0.5">
      <circle id="Ellipse_107" data-name="Ellipse 107" cx="5.958" cy="5.958" r="5.958" fill="url(#linear-gradient)"/>
    </g>
    <circle id="Ellipse_108" data-name="Ellipse 108" cx="5.832" cy="5.832" r="5.832" transform="translate(43.392 2.93)" fill="#f5f5f5"/>
    <path id="Path_3157" data-name="Path 3157" d="M819.019,216.613a5.8,5.8,0,0,0,3.206-.959c-.215-1.174-1.033-1.241-1.033-1.241h-4.509s-.772.063-1.013,1.144A5.805,5.805,0,0,0,819.019,216.613Z" transform="translate(-769.79 -201.995)" fill="#17a754"/>
    <circle id="Ellipse_109" data-name="Ellipse 109" cx="2.815" cy="2.815" r="2.815" transform="translate(46.352 5.824)" fill="#72351c"/>
    <path id="Path_3158" data-name="Path 3158" d="M611.777,139.261h1.8v1.493a.852.852,0,0,1-.852.852h-.1a.852.852,0,0,1-.852-.852Z" transform="translate(-563.518 -128.277)" opacity="0.1"/>
    <path id="Path_3159" data-name="Path 3159" d="M611.939,138.414h1.479a.163.163,0,0,1,.162.162v1.331a.852.852,0,0,1-.852.852h-.1a.852.852,0,0,1-.852-.852v-1.331A.162.162,0,0,1,611.939,138.414Z" transform="translate(-563.518 -127.497)" fill="#fda57d"/>
    <path id="Path_3160" data-name="Path 3160" d="M845.876,202.356a2.6,2.6,0,0,0,1.8,0v-.222h-1.8Z" transform="translate(-797.613 -190.69)" opacity="0.1"/>
    <circle id="Ellipse_110" data-name="Ellipse 110" cx="2.585" cy="2.585" r="2.585" transform="translate(46.582 6.615)" fill="#fda57d"/>
    <path id="Path_3161" data-name="Path 3161" d="M834.005,136.233s1.09,2.212,4.163.927l-.716-1.122-1.268-.455Z" transform="translate(-786.68 -129.384)" opacity="0.1"/>
    <path id="Path_3162" data-name="Path 3162" d="M834.005,135.821s1.09,2.212,4.163.927l-.716-1.122-1.268-.455Z" transform="translate(-786.68 -129.004)" fill="#72351c"/>
    <path id="Path_3163" data-name="Path 3163" d="M833.253,120.689a1.493,1.493,0,0,1,.37-.6c.509-.5,1.342-.609,1.77-1.182a.335.335,0,0,1-.153.472,1.305,1.305,0,0,0,1.116-.376.766.766,0,0,1-.129.809.774.774,0,0,1,.774.626.722.722,0,0,1-.335.609,1.859,1.859,0,0,1-.675.254C835.3,121.452,832.8,122.09,833.253,120.689Z" transform="translate(-785.937 -114.022)" fill="#72351c"/>
    <path id="Path_3164" data-name="Path 3164" d="M829.76,173.928h-.069l-1.333,1.187a2.4,2.4,0,0,0-2.228,0l-1.4-1.138-.141.018a2.585,2.585,0,1,0,5.17-.066Zm-2.589,1.643c-.5,0-.911-.1-.911-.228s.408-.228.911-.228.911.1.911.228S827.673,175.57,827.17,175.57Z" transform="translate(-778.007 -164.705)" fill="#72351c"/>
    <ellipse id="Ellipse_111" data-name="Ellipse 111" cx="0.24" cy="0.451" rx="0.24" ry="0.451" transform="translate(46.34 8.747)" fill="#fda57d"/>
    <ellipse id="Ellipse_112" data-name="Ellipse 112" cx="0.24" cy="0.451" rx="0.24" ry="0.451" transform="translate(51.512 8.747)" fill="#fda57d"/>
    <g id="Group_609" data-name="Group 609" transform="translate(30.64 12.617)" opacity="0.5">
      <circle id="Ellipse_113" data-name="Ellipse 113" cx="5.958" cy="5.958" r="5.958" fill="url(#linear-gradient)"/>
    </g>
    <circle id="Ellipse_114" data-name="Ellipse 114" cx="5.832" cy="5.832" r="5.832" transform="translate(30.765 12.71)" fill="#f5f5f5"/>
    <path id="Path_3165" data-name="Path 3165" d="M657.212,292.723s-.661,3.258-1.022,3.077c0,0,3.481,3.006,6.554,0a8.736,8.736,0,0,0-1.323-3.077Z" transform="translate(-622.89 -274.129)" fill="#333"/>
    <path id="Path_3166" data-name="Path 3166" d="M659.1,340.522a5.8,5.8,0,0,0,3.206-.959c-.215-1.174-1.033-1.241-1.033-1.241h-4.509s-.772.063-1.013,1.144A5.806,5.806,0,0,0,659.1,340.522Z" transform="translate(-622.487 -316.13)" fill="#17a754"/>
    <circle id="Ellipse_115" data-name="Ellipse 115" cx="2.585" cy="2.585" r="2.585" transform="translate(33.967 15.828)" fill="#333"/>
    <path id="Path_3167" data-name="Path 3167" d="M451.859,263.171h1.8v1.493a.852.852,0,0,1-.852.852h-.1a.852.852,0,0,1-.852-.852Z" transform="translate(-416.215 -242.412)" opacity="0.1"/>
    <path id="Path_3168" data-name="Path 3168" d="M452.021,262.324H453.5a.162.162,0,0,1,.162.163v1.331a.852.852,0,0,1-.852.852h-.1a.852.852,0,0,1-.852-.852v-1.331A.162.162,0,0,1,452.021,262.324Z" transform="translate(-416.215 -241.632)" fill="#be7c5e"/>
    <path id="Path_3169" data-name="Path 3169" d="M685.958,326.265a2.6,2.6,0,0,0,1.8,0v-.222h-1.8Z" transform="translate(-650.31 -304.826)" opacity="0.1"/>
    <circle id="Ellipse_116" data-name="Ellipse 116" cx="2.585" cy="2.585" r="2.585" transform="translate(33.967 16.39)" fill="#be7c5e"/>
    <path id="Path_3170" data-name="Path 3170" d="M666.1,263.269h4.93a2.294,2.294,0,0,0-2.285-1.864A3.343,3.343,0,0,0,666.1,263.269Z" transform="translate(-632.017 -245.276)" fill="#333"/>
    <ellipse id="Ellipse_117" data-name="Ellipse 117" cx="0.24" cy="0.451" rx="0.24" ry="0.451" transform="translate(33.78 18.414)" fill="#be7c5e"/>
    <ellipse id="Ellipse_118" data-name="Ellipse 118" cx="0.24" cy="0.451" rx="0.24" ry="0.451" transform="translate(38.831 18.414)" fill="#be7c5e"/>
    <path id="Path_3171" data-name="Path 3171" d="M666.1,264.116h4.93a2.294,2.294,0,0,0-2.285-1.864A3.343,3.343,0,0,0,666.1,264.116Z" transform="translate(-632.017 -246.056)" opacity="0.1"/>
    <path id="Path_3172" data-name="Path 3172" d="M618.935,207.98a5.43,5.43,0,1,1-5.43,5.43,5.43,5.43,0,0,1,5.43-5.43m0-1.341a6.771,6.771,0,1,0,6.771,6.771A6.771,6.771,0,0,0,618.935,206.639Z" transform="translate(-582.337 -194.835)" fill="#ccc"/>
    <rect id="Rectangle_758" data-name="Rectangle 758" width="1.587" height="1.671" transform="translate(35.595 10.221)" fill="#ccc"/>
    <rect id="Rectangle_759" data-name="Rectangle 759" width="1.671" height="1.587" transform="matrix(0.515, -0.857, 0.857, 0.515, 39.153, 12.33)" fill="#ccc"/>
    <rect id="Rectangle_760" data-name="Rectangle 760" width="1.671" height="1.587" transform="matrix(0.875, -0.485, 0.485, 0.875, 41.933, 14.444)" fill="#ccc"/>
    <rect id="Rectangle_761" data-name="Rectangle 761" width="1.587" height="1.671" transform="matrix(0.53, -0.848, 0.848, 0.53, 41.956, 22.584)" fill="#ccc"/>
    <rect id="Rectangle_762" data-name="Rectangle 762" width="1.587" height="1.671" transform="matrix(0.485, -0.875, 0.875, 0.485, 29.031, 15.022)" fill="#ccc"/>
    <rect id="Rectangle_763" data-name="Rectangle 763" width="1.671" height="1.587" transform="matrix(0.848, -0.53, 0.53, 0.848, 28.981, 22.124)" fill="#ccc"/>
    <rect id="Rectangle_764" data-name="Rectangle 764" width="1.587" height="1.671" transform="matrix(0.857, -0.515, 0.515, 0.857, 31.821, 11.715)" fill="#ccc"/>
    <rect id="Rectangle_765" data-name="Rectangle 765" width="1.587" height="1.671" transform="translate(35.595 25.258)" fill="#ccc"/>
    <rect id="Rectangle_766" data-name="Rectangle 766" width="1.587" height="1.671" transform="matrix(0.857, -0.515, 0.515, 0.857, 39.153, 24.82)" fill="#ccc"/>
    <rect id="Rectangle_767" data-name="Rectangle 767" width="1.671" height="1.587" transform="matrix(0.515, -0.857, 0.857, 0.515, 31.821, 25.434)" fill="#ccc"/>
    <rect id="Rectangle_768" data-name="Rectangle 768" width="1.921" height="1.42" transform="translate(28.076 17.906)" fill="#ccc"/>
    <rect id="Rectangle_769" data-name="Rectangle 769" width="1.921" height="1.42" transform="translate(45.119 19.327) rotate(180)" fill="#ccc"/>
    <path id="Path_3173" data-name="Path 3173" d="M778.852,84.07a5.43,5.43,0,1,1-5.43,5.43,5.43,5.43,0,0,1,5.43-5.43m0-1.341a6.771,6.771,0,1,0,6.771,6.771A6.771,6.771,0,0,0,778.852,82.729Z" transform="translate(-729.64 -80.7)" fill="#ccc"/>
    <rect id="Rectangle_770" data-name="Rectangle 770" width="1.587" height="1.671" transform="translate(48.21 0.446)" fill="#ccc"/>
    <rect id="Rectangle_771" data-name="Rectangle 771" width="1.671" height="1.587" transform="matrix(0.515, -0.857, 0.857, 0.515, 51.767, 2.555)" fill="#ccc"/>
    <rect id="Rectangle_772" data-name="Rectangle 772" width="1.671" height="1.587" transform="matrix(0.875, -0.485, 0.485, 0.875, 54.547, 4.669)" fill="#ccc"/>
    <rect id="Rectangle_773" data-name="Rectangle 773" width="1.587" height="1.671" transform="matrix(0.53, -0.848, 0.848, 0.53, 54.571, 12.81)" fill="#ccc"/>
    <rect id="Rectangle_774" data-name="Rectangle 774" width="1.587" height="1.671" transform="matrix(0.485, -0.875, 0.875, 0.485, 41.646, 5.248)" fill="#ccc"/>
    <rect id="Rectangle_775" data-name="Rectangle 775" width="1.671" height="1.587" transform="matrix(0.848, -0.53, 0.53, 0.848, 41.596, 12.349)" fill="#ccc"/>
    <rect id="Rectangle_776" data-name="Rectangle 776" width="1.587" height="1.671" transform="matrix(0.857, -0.515, 0.515, 0.857, 44.436, 1.941)" fill="#ccc"/>
    <rect id="Rectangle_777" data-name="Rectangle 777" width="1.587" height="1.671" transform="translate(48.21 15.484)" fill="#ccc"/>
    <rect id="Rectangle_778" data-name="Rectangle 778" width="1.587" height="1.671" transform="matrix(0.857, -0.515, 0.515, 0.857, 51.767, 15.045)" fill="#ccc"/>
    <rect id="Rectangle_779" data-name="Rectangle 779" width="1.671" height="1.587" transform="matrix(0.515, -0.857, 0.857, 0.515, 44.436, 15.66)" fill="#ccc"/>
    <rect id="Rectangle_780" data-name="Rectangle 780" width="1.921" height="1.42" transform="translate(40.691 8.132)" fill="#ccc"/>
    <rect id="Rectangle_781" data-name="Rectangle 781" width="1.921" height="1.42" transform="translate(57.733 9.552) rotate(180)" fill="#ccc"/>
    <path id="Path_3174" data-name="Path 3174" d="M457.623,78.762q.1,0,.192,0a5.43,5.43,0,1,1-.185,10.858l-.192,0a5.43,5.43,0,1,1,.185-10.858m0-1.34v0a6.771,6.771,0,1,0-.232,13.539c.079,0,.159,0,.238,0a6.771,6.771,0,1,0,.232-13.539C457.782,77.422,457.7,77.421,457.623,77.421Z" transform="translate(-433.644 -75.809)" fill="#ccc"/>
    <rect id="Rectangle_782" data-name="Rectangle 782" width="1.671" height="1.587" transform="translate(23.212 1.668) rotate(-88.012)" fill="#ccc"/>
    <rect id="Rectangle_783" data-name="Rectangle 783" width="1.671" height="1.587" transform="translate(26.753 2.23) rotate(-57.012)" fill="#ccc"/>
    <rect id="Rectangle_784" data-name="Rectangle 784" width="1.671" height="1.587" transform="translate(29.458 4.44) rotate(-27.012)" fill="#ccc"/>
    <rect id="Rectangle_785" data-name="Rectangle 785" width="1.587" height="1.671" transform="translate(29.198 12.576) rotate(-56.012)" fill="#ccc"/>
    <rect id="Rectangle_786" data-name="Rectangle 786" width="1.587" height="1.671" transform="translate(16.544 4.57) rotate(-59.012)" fill="#ccc"/>
    <rect id="Rectangle_787" data-name="Rectangle 787" width="1.671" height="1.587" transform="matrix(0.866, -0.5, 0.5, 0.866, 16.248, 11.665)" fill="#ccc"/>
    <rect id="Rectangle_788" data-name="Rectangle 788" width="1.587" height="1.671" transform="translate(19.447 1.361) rotate(-29.012)" fill="#ccc"/>
    <rect id="Rectangle_789" data-name="Rectangle 789" width="1.671" height="1.587" transform="translate(22.691 16.697) rotate(-88.012)" fill="#ccc"/>
    <rect id="Rectangle_790" data-name="Rectangle 790" width="1.587" height="1.671" transform="translate(26.319 14.713) rotate(-29.012)" fill="#ccc"/>
    <rect id="Rectangle_791" data-name="Rectangle 791" width="1.671" height="1.587" transform="translate(18.971 15.073) rotate(-57.012)" fill="#ccc"/>
    <rect id="Rectangle_792" data-name="Rectangle 792" width="1.921" height="1.42" transform="translate(15.49 7.419) rotate(1.988)" fill="#ccc"/>
    <rect id="Rectangle_793" data-name="Rectangle 793" width="1.921" height="1.42" transform="translate(32.473 9.43) rotate(-178.012)" fill="#ccc"/>
  </g>
</svg>
