<svg xmlns="http://www.w3.org/2000/svg" xmlns:xlink="http://www.w3.org/1999/xlink" width="47.149" height="64.794" viewBox="0 0 47.149 64.794">
  <defs>
    <linearGradient id="linear-gradient" x1="0.5" y1="1" x2="0.5" gradientUnits="objectBoundingBox">
      <stop offset="0" stop-color="gray" stop-opacity="0.251"/>
      <stop offset="0.535" stop-color="gray" stop-opacity="0.122"/>
      <stop offset="1" stop-color="gray" stop-opacity="0.102"/>
    </linearGradient>
  </defs>
  <g id="Group_610" data-name="Group 610" transform="translate(0 0.001)">
    <path id="Path_3138" data-name="Path 3138" d="M369.066,128.03l2.418-2.539s2.66-3.99,4.595-2.9-2.781,3.627-2.781,3.627l-2.418,3.99Z" transform="translate(-357.937 -117.01)" fill="#fda57d"/>
    <path id="Path_3139" data-name="Path 3139" d="M265.851,787.668s-1.814,3.506-.484,3.748,7.859.6,7.98.242,1.088-1.572.363-2.055a14.756,14.756,0,0,0-3.627-.846l-.967-.967Z" transform="translate(-262.339 -727.437)" fill="#2f2e41"/>
    <path id="Path_3140" data-name="Path 3140" d="M243.146,370.3s-3.869,4.836-.725,9.794l.725,8.343s-1.33,11.487.363,15.356l.242,1.33h4.232l-1.088-10.156s.121-1.209.484-1.451,6.287-13.3,6.287-13.3-.967-1.814-.6-2.176-.363-7.617-.725-7.859S243.146,370.3,243.146,370.3Z" transform="translate(-240.602 -344.285)" fill="#2f2e41"/>
    <path id="Path_3141" data-name="Path 3141" d="M67.37,712.094l.484,2.781-4.715-.242.6-3.023Z" transform="translate(-57.933 -652.952)" fill="#fda57d"/>
    <path id="Path_3175" data-name="Path 3175" d="M3.627,0A3.627,3.627,0,1,1,0,3.627,3.627,3.627,0,0,1,3.627,0Z" transform="translate(4.963 2.556)" fill="#fda57d"/>
    <path id="Path_3142" data-name="Path 3142" d="M294.623,139.35l-.363,4.353,3.869,1.814s-.665-4.05-.181-5.139Z" transform="translate(-289.298 -132.562)" fill="#fda57d"/>
    <path id="Path_3143" data-name="Path 3143" d="M243.372,174.884l-.363-1.451-4.957-1.814s-.484,0-.363.846.121.725.121.725-1.693.725-1.814,1.935-2.055,1.572-1.935,3.385a6.424,6.424,0,0,0,.725,2.781,2.154,2.154,0,0,0,.363,2.3s.967,1.693.484,2.9-1.088,3.265.242,2.9,10.519-.967,10.519-.967,1.33-4.957-.121-6.771a8.422,8.422,0,0,0-1.088-3.265C244.1,176.214,243.372,174.884,243.372,174.884Z" transform="translate(-234.056 -162.171)" fill="#17a754"/>
    <path id="Path_3144" data-name="Path 3144" d="M269.325,366.2s1.572,6.65,3.506,7.376c0,0,.363,4.836,2.418,4.595s0-4.595,0-4.595l-2.3-8.343Z" transform="translate(-266.418 -339.826)" fill="#fda57d"/>
    <path id="Path_3145" data-name="Path 3145" d="M344.131,188.1s1.814-2.9,2.3-2.418,2.9,1.935,2.781,2.9-1.209.967-1.209.967l-2.539,1.935Z" transform="translate(-335.057 -175.025)" fill="#17a754"/>
    <path id="Path_3146" data-name="Path 3146" d="M298.189,478.177l1.451,1.043.967,10.323s-3.506,14.026-4.474,14.146-4.957.121-4.836-.242a15.316,15.316,0,0,0,.725-2.176,31.072,31.072,0,0,1,1.261-3.264l1.641-6.772-.363-5.32Z" transform="translate(-286.576 -443.458)" fill="#2f2e41"/>
    <path id="Path_3147" data-name="Path 3147" d="M284.987,782.4s-5.078-1.572-5.32-1.209-1.855,4.019.4,4.428,10.358,1.134,10.358.046-.242-1.814-.967-1.814a13.664,13.664,0,0,1-4.232-1.934C284.987,781.558,284.987,782.4,284.987,782.4Z" transform="translate(-275.188 -721.449)" fill="#2f2e41"/>
    <path id="Path_3148" data-name="Path 3148" d="M284.429,68a.358.358,0,0,1,.484-.479l.006,0a.627.627,0,0,1,.3.627c.436-.435.115-1.308.586-1.7.218-.184.572-.224.684-.486.065-.153.021-.334.078-.489a.709.709,0,0,1,.6-.364,5.843,5.843,0,0,1,2.292.273,1.608,1.608,0,0,1,.767.352,2.7,2.7,0,0,1,.415.793c.13.271.981.246,1.279.208.1-.294-.661-.316-.723-.622-.171-.835.423-1.722.132-2.523a2.028,2.028,0,0,0-1.1-1.026,5.817,5.817,0,0,0-4.116-.351.913.913,0,0,0-.38.184c-.176.164-.208.427-.325.637-.267.478-.9.592-1.325.936a2.926,2.926,0,0,0-.74,2.29A2.818,2.818,0,0,0,283.5,67.5a.964.964,0,0,0,.986.612C284.466,68.076,284.447,68.04,284.429,68Z" transform="translate(-279.278 -61.581)" fill="#601a00"/>
    <path id="Path_3149" data-name="Path 3149" d="M250.628,224.8a2.576,2.576,0,0,0-3.145.16c-.833.708-1.73,1.723-1.664,2.773.121,1.935.846,9.915,1.814,10.036s4.474-.846,4.474-1.451-.846-1.33-.846-1.33l1.028-6.166a4.076,4.076,0,0,0-1.606-3.983Z" transform="translate(-244.846 -210.545)" fill="#17a754"/>
    <g id="Group_607" data-name="Group 607" transform="translate(18.834 2.527)" opacity="0.5">
      <circle id="Ellipse_102" data-name="Ellipse 102" cx="6.226" cy="6.226" r="6.226" fill="url(#linear-gradient)"/>
    </g>
    <circle id="Ellipse_103" data-name="Ellipse 103" cx="6.095" cy="6.095" r="6.095" transform="translate(18.978 2.618)" fill="#f5f5f5"/>
    <path id="Path_3150" data-name="Path 3150" d="M502.652,129.124c0,2.027-1.457,3.025-3.348,3.025s-3.5-1-3.5-3.025a3.433,3.433,0,1,1,6.849,0Z" transform="translate(-474.227 -119.811)" fill="#333"/>
    <path id="Path_3151" data-name="Path 3151" d="M499.315,211.324a6.066,6.066,0,0,0,3.35-1c-.224-1.227-1.079-1.3-1.079-1.3h-4.712s-.806.066-1.058,1.2A6.066,6.066,0,0,0,499.315,211.324Z" transform="translate(-474.238 -196.493)" fill="#17a754"/>
    <path id="Path_3152" data-name="Path 3152" d="M291.923,133.874h1.885v1.56a.89.89,0,0,1-.89.89h-.105a.89.89,0,0,1-.89-.89v-1.56Z" transform="translate(-267.859 -122.84)" opacity="0.1"/>
    <path id="Path_3153" data-name="Path 3153" d="M292.093,133.027h1.545a.17.17,0,0,1,.17.17v1.391a.89.89,0,0,1-.89.89h-.105a.89.89,0,0,1-.89-.89V133.2a.17.17,0,0,1,.17-.17Z" transform="translate(-267.859 -122.062)" fill="#fda57d"/>
    <path id="Path_3154" data-name="Path 3154" d="M526.022,196.978a2.713,2.713,0,0,0,1.885.005v-.232h-1.885Z" transform="translate(-501.954 -185.232)" opacity="0.1"/>
    <circle id="Ellipse_104" data-name="Ellipse 104" cx="2.702" cy="2.702" r="2.702" transform="translate(22.312 6.469)" fill="#fda57d"/>
    <path id="Path_3155" data-name="Path 3155" d="M499.721,135.661a4.852,4.852,0,0,0,2.957-1.835s1.682,1.852,2.855,1.648a1.022,1.022,0,0,0,0-1.428c-.68-.714-1.207-1.614-2.107-1.5a5.493,5.493,0,0,0-2.481.595A10.555,10.555,0,0,0,499.721,135.661Z" transform="translate(-477.821 -126.313)" opacity="0.1"/>
    <path id="Path_3156" data-name="Path 3156" d="M499.721,135.248a4.852,4.852,0,0,0,2.957-1.835s1.682,1.852,2.855,1.648a1.022,1.022,0,0,0,0-1.427c-.68-.714-1.207-1.614-2.107-1.5a5.493,5.493,0,0,0-2.481.595A10.554,10.554,0,0,0,499.721,135.248Z" transform="translate(-477.821 -125.935)" fill="#333"/>
    <ellipse id="Ellipse_105" data-name="Ellipse 105" cx="0.251" cy="0.471" rx="0.251" ry="0.471" transform="translate(22.059 8.697)" fill="#fda57d"/>
    <ellipse id="Ellipse_106" data-name="Ellipse 106" cx="0.251" cy="0.471" rx="0.251" ry="0.471" transform="translate(27.463 8.697)" fill="#fda57d"/>
    <g id="Group_609" data-name="Group 609" transform="translate(32.018 13.185)" opacity="0.5">
      <circle id="Ellipse_113" data-name="Ellipse 113" cx="6.226" cy="6.226" r="6.226" fill="url(#linear-gradient)"/>
    </g>
    <circle id="Ellipse_114" data-name="Ellipse 114" cx="6.095" cy="6.095" r="6.095" transform="translate(32.15 13.282)" fill="#f5f5f5"/>
    <path id="Path_3165" data-name="Path 3165" d="M657.258,292.723s-.691,3.4-1.068,3.216c0,0,3.637,3.141,6.848,0a9.129,9.129,0,0,0-1.382-3.216Z" transform="translate(-621.392 -273.293)" fill="#333"/>
    <path id="Path_3166" data-name="Path 3166" d="M659.251,340.621a6.066,6.066,0,0,0,3.35-1c-.225-1.227-1.079-1.3-1.079-1.3H656.81s-.807.066-1.058,1.2A6.067,6.067,0,0,0,659.251,340.621Z" transform="translate(-620.99 -315.132)" fill="#17a754"/>
    <circle id="Ellipse_115" data-name="Ellipse 115" cx="2.702" cy="2.702" r="2.702" transform="translate(35.496 16.541)" fill="#333"/>
    <path id="Path_3167" data-name="Path 3167" d="M451.859,263.171h1.885v1.56a.89.89,0,0,1-.89.89h-.105a.89.89,0,0,1-.89-.89Z" transform="translate(-414.611 -241.478)" opacity="0.1"/>
    <path id="Path_3168" data-name="Path 3168" d="M452.029,262.324h1.545a.17.17,0,0,1,.17.17v1.391a.89.89,0,0,1-.89.89h-.105a.89.89,0,0,1-.89-.89v-1.391A.17.17,0,0,1,452.029,262.324Z" transform="translate(-414.611 -240.701)" fill="#be7c5e"/>
    <path id="Path_3169" data-name="Path 3169" d="M685.958,326.275a2.713,2.713,0,0,0,1.885.005v-.232h-1.885Z" transform="translate(-648.706 -303.871)" opacity="0.1"/>
    <circle id="Ellipse_116" data-name="Ellipse 116" cx="2.702" cy="2.702" r="2.702" transform="translate(35.496 17.127)" fill="#be7c5e"/>
    <path id="Path_3170" data-name="Path 3170" d="M666.1,263.353h5.152a2.4,2.4,0,0,0-2.388-1.948A3.493,3.493,0,0,0,666.1,263.353Z" transform="translate(-630.484 -244.551)" fill="#333"/>
    <ellipse id="Ellipse_117" data-name="Ellipse 117" cx="0.251" cy="0.471" rx="0.251" ry="0.471" transform="translate(35.3 19.242)" fill="#be7c5e"/>
    <ellipse id="Ellipse_118" data-name="Ellipse 118" cx="0.251" cy="0.471" rx="0.251" ry="0.471" transform="translate(40.578 19.242)" fill="#be7c5e"/>
    <path id="Path_3171" data-name="Path 3171" d="M666.1,264.2h5.152a2.4,2.4,0,0,0-2.388-1.948A3.493,3.493,0,0,0,666.1,264.2Z" transform="translate(-630.484 -245.328)" opacity="0.1"/>
    <path id="Path_3172" data-name="Path 3172" d="M619.239,208.04a5.675,5.675,0,1,1-5.674,5.675,5.675,5.675,0,0,1,5.674-5.675m0-1.4a7.076,7.076,0,1,0,7.076,7.076A7.076,7.076,0,0,0,619.239,206.639Z" transform="translate(-580.995 -194.304)" fill="#ccc"/>
    <rect id="Rectangle_758" data-name="Rectangle 758" width="1.659" height="1.746" transform="translate(37.196 10.681)" fill="#ccc"/>
    <rect id="Rectangle_759" data-name="Rectangle 759" width="1.746" height="1.659" transform="matrix(0.515, -0.857, 0.857, 0.515, 40.914, 12.884)" fill="#ccc"/>
    <rect id="Rectangle_760" data-name="Rectangle 760" width="1.746" height="1.659" transform="matrix(0.875, -0.485, 0.485, 0.875, 43.819, 15.094)" fill="#ccc"/>
    <rect id="Rectangle_761" data-name="Rectangle 761" width="1.659" height="1.746" transform="matrix(0.53, -0.848, 0.848, 0.53, 43.844, 23.601)" fill="#ccc"/>
    <rect id="Rectangle_762" data-name="Rectangle 762" width="1.659" height="1.746" transform="matrix(0.485, -0.875, 0.875, 0.485, 30.338, 15.698)" fill="#ccc"/>
    <rect id="Rectangle_763" data-name="Rectangle 763" width="1.746" height="1.659" transform="matrix(0.848, -0.53, 0.53, 0.848, 30.285, 23.119)" fill="#ccc"/>
    <rect id="Rectangle_764" data-name="Rectangle 764" width="1.659" height="1.746" transform="matrix(0.857, -0.515, 0.515, 0.857, 33.253, 12.242)" fill="#ccc"/>
    <rect id="Rectangle_765" data-name="Rectangle 765" width="1.659" height="1.746" transform="translate(37.196 26.395)" fill="#ccc"/>
    <rect id="Rectangle_766" data-name="Rectangle 766" width="1.659" height="1.746" transform="matrix(0.857, -0.515, 0.515, 0.857, 40.914, 25.937)" fill="#ccc"/>
    <rect id="Rectangle_767" data-name="Rectangle 767" width="1.746" height="1.659" transform="matrix(0.515, -0.857, 0.857, 0.515, 33.253, 26.579)" fill="#ccc"/>
    <rect id="Rectangle_768" data-name="Rectangle 768" width="2.008" height="1.484" transform="translate(29.339 18.712)" fill="#ccc"/>
    <rect id="Rectangle_769" data-name="Rectangle 769" width="2.008" height="1.484" transform="translate(47.149 20.196) rotate(180)" fill="#ccc"/>
    <path id="Path_3174" data-name="Path 3174" d="M457.933,78.822q.1,0,.2,0a5.674,5.674,0,1,1-.193,11.347l-.2,0a5.674,5.674,0,1,1,.193-11.347m0-1.4v0a7.075,7.075,0,1,0-.242,14.149c.083,0,.166,0,.249,0a7.075,7.075,0,1,0,.242-14.149C458.1,77.422,458.015,77.421,457.933,77.421Z" transform="translate(-432.875 -75.737)" fill="#ccc"/>
    <rect id="Rectangle_782" data-name="Rectangle 782" width="1.746" height="1.659" transform="translate(24.257 1.744) rotate(-88.012)" fill="#ccc"/>
    <rect id="Rectangle_783" data-name="Rectangle 783" width="1.746" height="1.659" transform="translate(27.957 2.331) rotate(-57.012)" fill="#ccc"/>
    <rect id="Rectangle_784" data-name="Rectangle 784" width="1.746" height="1.659" transform="translate(30.783 4.639) rotate(-27.012)" fill="#ccc"/>
    <rect id="Rectangle_785" data-name="Rectangle 785" width="1.659" height="1.746" transform="translate(30.512 13.142) rotate(-56.012)" fill="#ccc"/>
    <rect id="Rectangle_786" data-name="Rectangle 786" width="1.659" height="1.746" transform="translate(17.289 4.775) rotate(-59.012)" fill="#ccc"/>
    <rect id="Rectangle_787" data-name="Rectangle 787" width="1.746" height="1.659" transform="matrix(0.866, -0.5, 0.5, 0.866, 16.979, 12.19)" fill="#ccc"/>
    <rect id="Rectangle_788" data-name="Rectangle 788" width="1.659" height="1.746" transform="translate(20.322 1.423) rotate(-29.012)" fill="#ccc"/>
    <rect id="Rectangle_789" data-name="Rectangle 789" width="1.746" height="1.659" transform="translate(23.712 17.448) rotate(-88.012)" fill="#ccc"/>
    <rect id="Rectangle_790" data-name="Rectangle 790" width="1.659" height="1.746" transform="translate(27.504 15.375) rotate(-29.012)" fill="#ccc"/>
    <rect id="Rectangle_791" data-name="Rectangle 791" width="1.746" height="1.659" transform="translate(19.825 15.751) rotate(-57.012)" fill="#ccc"/>
    <rect id="Rectangle_792" data-name="Rectangle 792" width="2.008" height="1.484" transform="translate(16.187 7.753) rotate(1.988)" fill="#ccc"/>
    <rect id="Rectangle_793" data-name="Rectangle 793" width="2.008" height="1.484" transform="translate(33.934 9.854) rotate(-178.012)" fill="#ccc"/>
  </g>
</svg>
