<svg xmlns="http://www.w3.org/2000/svg" width="29" height="24.13" viewBox="0 0 29 24.13">
  <g id="Icon_feather-users" data-name="Icon feather-users" transform="translate(1 1.039)">
    <path id="Path_1158" data-name="Path 1158" d="M23.371,30.7V27.968A5.468,5.468,0,0,0,17.9,22.5H6.968A5.468,5.468,0,0,0,1.5,27.968V30.7" transform="translate(-1.5 -8.611)" fill="none" stroke="#f7f7f7" stroke-linecap="round" stroke-linejoin="round" stroke-width="2"/>
    <path id="Path_1159" data-name="Path 1159" d="M18.436,9.968A5.468,5.468,0,1,1,12.968,4.5a5.468,5.468,0,0,1,5.468,5.468Z" transform="translate(-2.91 -4.5)" fill="none" stroke="#f7f7f7" stroke-linecap="round" stroke-linejoin="round" stroke-width="2"/>
    <path id="Path_1160" data-name="Path 1160" d="M34.1,30.719V27.985A5.468,5.468,0,0,0,30,22.7" transform="translate(-7.101 -8.628)" fill="none" stroke="#f7f7f7" stroke-linecap="round" stroke-linejoin="round" stroke-width="2"/>
    <path id="Path_1161" data-name="Path 1161" d="M24,4.7a5.468,5.468,0,0,1,0,10.594" transform="translate(-5.923 -4.517)" fill="none" stroke="#f7f7f7" stroke-linecap="round" stroke-linejoin="round" stroke-width="2"/>
  </g>
</svg>
