<svg xmlns="http://www.w3.org/2000/svg" width="768" height="57" viewBox="0 0 768 57">
  <g id="Group_619" data-name="Group 619" transform="translate(-439 -1183)">
    <g id="Group_424" data-name="Group 424" transform="translate(103 34)">
      <text id="Active" transform="translate(367 1161)" fill="#636363" stroke="rgba(0,0,0,0)" stroke-width="1" font-size="14" font-family="Objectivity-Bold, Objectivity" font-weight="700"><tspan x="0" y="0">Active</tspan></text>
      <text id="Hover" transform="translate(695 1161)" fill="#636363" stroke="rgba(0,0,0,0)" stroke-width="1" font-size="14" font-family="Objectivity-Bold, Objectivity" font-weight="700"><tspan x="0" y="0">Hover</tspan></text>
      <g id="Group_485" data-name="Group 485" transform="translate(336 1170)">
        <g id="Delete_box" data-name="Delete box" fill="#fff">
          <path d="M 119.2156829833984 35 L 8.784317016601562 35 C 4.4920334815979 35 1 31.80193328857422 1 27.8709659576416 L 1 8.129033088684082 C 1 4.198066711425781 4.4920334815979 1 8.784317016601562 1 L 119.2156829833984 1 C 123.5079650878906 1 127 4.198066711425781 127 8.129033088684082 L 127 27.8709659576416 C 127 31.80193328857422 123.5079650878906 35 119.2156829833984 35 Z" stroke="none"/>
          <path d="M 8.784309387207031 2 C 5.043434143066406 2 2 4.749473571777344 2 8.129035949707031 L 2 27.87096405029297 C 2 31.25052642822266 5.043434143066406 34 8.784309387207031 34 L 119.2156753540039 34 C 122.9565658569336 34 126 31.25052642822266 126 27.87096405029297 L 126 8.129035949707031 C 126 4.749473571777344 122.9565658569336 2 119.2156753540039 2 L 8.784309387207031 2 M 8.784309387207031 0 L 119.2156753540039 0 C 124.0671234130859 0 128 3.639492034912109 128 8.129035949707031 L 128 27.87096405029297 C 128 32.36050796508789 124.0671234130859 36 119.2156753540039 36 L 8.784309387207031 36 C 3.932868957519531 36 0 32.36050796508789 0 27.87096405029297 L 0 8.129035949707031 C 0 3.639492034912109 3.932868957519531 0 8.784309387207031 0 Z" stroke="none" fill="#17a754"/>
        </g>
        <text id="Slet" transform="translate(35 22)" fill="#17a754" font-size="16" font-family="Objectivity-Medium, Objectivity" font-weight="500"><tspan x="0" y="0">Search</tspan></text>
      </g>
      <g id="Group_486" data-name="Group 486" transform="translate(657 1170)">
        <g id="Delete_box-2" data-name="Delete box" fill="#fdfdfd">
          <path d="M 119.2156829833984 35 L 8.784317016601562 35 C 4.4920334815979 35 1 31.80193328857422 1 27.8709659576416 L 1 8.129033088684082 C 1 4.198066711425781 4.4920334815979 1 8.784317016601562 1 L 119.2156829833984 1 C 123.5079650878906 1 127 4.198066711425781 127 8.129033088684082 L 127 27.8709659576416 C 127 31.80193328857422 123.5079650878906 35 119.2156829833984 35 Z" stroke="none"/>
          <path d="M 8.784309387207031 2 C 5.043434143066406 2 2 4.749473571777344 2 8.129035949707031 L 2 27.87096405029297 C 2 31.25052642822266 5.043434143066406 34 8.784309387207031 34 L 119.2156753540039 34 C 122.9565658569336 34 126 31.25052642822266 126 27.87096405029297 L 126 8.129035949707031 C 126 4.749473571777344 122.9565658569336 2 119.2156753540039 2 L 8.784309387207031 2 M 8.784309387207031 0 L 119.2156753540039 0 C 124.0671234130859 0 128 3.639492034912109 128 8.129035949707031 L 128 27.87096405029297 C 128 32.36050796508789 124.0671234130859 36 119.2156753540039 36 L 8.784309387207031 36 C 3.932868957519531 36 0 32.36050796508789 0 27.87096405029297 L 0 8.129035949707031 C 0 3.639492034912109 3.932868957519531 0 8.784309387207031 0 Z" stroke="none" fill="#128643"/>
        </g>
        <text id="Slet-2" data-name="Slet" transform="translate(35 22)" fill="#128643" stroke="rgba(0,0,0,0)" stroke-width="1" font-size="16" font-family="Objectivity-Medium, Objectivity" font-weight="500"><tspan x="0" y="0">Search</tspan></text>
      </g>
    </g>
    <g id="Group_436" data-name="Group 436" transform="translate(100 34)">
      <g id="Group_424-2" data-name="Group 424">
        <text id="Disabled" transform="translate(1005 1161)" fill="#636363" stroke="rgba(0,0,0,0)" stroke-width="1" font-size="14" font-family="Objectivity-Bold, Objectivity" font-weight="700"><tspan x="0" y="0">Disabled</tspan></text>
        <g id="Group_490" data-name="Group 490" transform="translate(979 1170)">
          <g id="Delete_box-3" data-name="Delete box" fill="#fff">
            <path d="M 119.2156829833984 35 L 8.784317016601562 35 C 4.4920334815979 35 1 31.80193328857422 1 27.8709659576416 L 1 8.129033088684082 C 1 4.198066711425781 4.4920334815979 1 8.784317016601562 1 L 119.2156829833984 1 C 123.5079650878906 1 127 4.198066711425781 127 8.129033088684082 L 127 27.8709659576416 C 127 31.80193328857422 123.5079650878906 35 119.2156829833984 35 Z" stroke="none"/>
            <path d="M 8.784309387207031 2 C 5.043434143066406 2 2 4.749473571777344 2 8.129035949707031 L 2 27.87096405029297 C 2 31.25052642822266 5.043434143066406 34 8.784309387207031 34 L 119.2156753540039 34 C 122.9565658569336 34 126 31.25052642822266 126 27.87096405029297 L 126 8.129035949707031 C 126 4.749473571777344 122.9565658569336 2 119.2156753540039 2 L 8.784309387207031 2 M 8.784309387207031 0 L 119.2156753540039 0 C 124.0671234130859 0 128 3.639492034912109 128 8.129035949707031 L 128 27.87096405029297 C 128 32.36050796508789 124.0671234130859 36 119.2156753540039 36 L 8.784309387207031 36 C 3.932868957519531 36 0 32.36050796508789 0 27.87096405029297 L 0 8.129035949707031 C 0 3.639492034912109 3.932868957519531 0 8.784309387207031 0 Z" stroke="none" fill="#8f98a6"/>
          </g>
          <text id="Slet-3" data-name="Slet" transform="translate(35 22)" fill="#8f98a6" font-size="16" font-family="Objectivity-Medium, Objectivity" font-weight="500"><tspan x="0" y="0">Search</tspan></text>
        </g>
      </g>
    </g>
  </g>
</svg>
