<svg xmlns="http://www.w3.org/2000/svg" width="1021" height="654" viewBox="0 0 1021 654">
  <g id="Group_616" data-name="Group 616" transform="translate(-588 -971)">
    <g id="Group_399" data-name="Group 399" transform="translate(-129 36)">
      <rect id="Rectangle_441" data-name="Rectangle 441" width="145" height="117" rx="8" transform="translate(717 935)" fill="#00c057"/>
      <g id="Group_402" data-name="Group 402" transform="translate(0 -6)">
        <text id="Name_Frog" data-name="Name
Frog" transform="translate(878 958)" fill="#636363" font-size="14" font-family="Objectivity-Bold, Objectivity" font-weight="700"><tspan x="0" y="10">Name</tspan><tspan fill="#707070" font-size="16" font-family="Objectivity-Regular, Objectivity" font-weight="400"><tspan x="0" y="32">Frog</tspan></tspan></text>
        <text id="HEX_00C057" data-name="HEX
#00C057" transform="translate(878 1016)" fill="#636363" font-size="14" font-family="Objectivity-Bold, Objectivity" font-weight="700"><tspan x="0" y="0">HEX</tspan><tspan fill="#707070" font-size="16" font-family="Objectivity-Regular, Objectivity" font-weight="400"><tspan x="0" y="22">#00C057</tspan></tspan></text>
      </g>
    </g>
    <g id="Group_405" data-name="Group 405" transform="translate(955.23 971)">
      <rect id="Rectangle_441-2" data-name="Rectangle 441" width="145" height="117" rx="8" transform="translate(-0.23)" fill="#44546a"/>
      <g id="Group_402-2" data-name="Group 402" transform="translate(160 17)">
        <text id="Name_Whale" data-name="Name
Whale" transform="translate(-0.23)" fill="#636363" font-size="14" font-family="Objectivity-Bold, Objectivity" font-weight="700"><tspan x="0" y="10">Name</tspan><tspan fill="#707070" font-size="16" font-family="Objectivity-Regular, Objectivity" font-weight="400"><tspan x="0" y="32">Whale</tspan></tspan></text>
        <text id="HEX_44546A" data-name="HEX
#44546A" transform="translate(-0.23 58)" fill="#636363" font-size="14" font-family="Objectivity-Bold, Objectivity" font-weight="700"><tspan x="0" y="0">HEX</tspan><tspan fill="#707070" font-size="16" font-family="Objectivity-Regular, Objectivity" font-weight="400"><tspan x="0" y="22">#44546A</tspan></tspan></text>
      </g>
    </g>
    <path id="Rectangle_441-3" data-name="Rectangle 441" d="M8,0H137a8,8,0,0,1,8,8V117a0,0,0,0,1,0,0H0a0,0,0,0,1,0,0V8A8,8,0,0,1,8,0Z" transform="translate(589 1159)" fill="#33cd79"/>
    <g id="Group_402-3" data-name="Group 402" transform="translate(-129 218)">
      <text id="Name_Frog-80" data-name="Name
Frog-80" transform="translate(878 958)" fill="#636363" font-size="14" font-family="Objectivity-Bold, Objectivity" font-weight="700"><tspan x="0" y="10">Name</tspan><tspan fill="#44546a" font-size="16" font-family="Objectivity-Regular, Objectivity" font-weight="400"><tspan x="0" y="29">Frog-80</tspan></tspan></text>
      <text id="HEX_33CD79" data-name="HEX
#33CD79" transform="translate(878 1016)" fill="#636363" font-size="14" font-family="Objectivity-Bold, Objectivity" font-weight="700"><tspan x="0" y="0">HEX</tspan><tspan fill="#44546a" font-size="16" font-family="Objectivity-Regular, Objectivity" font-weight="400"><tspan x="0" y="19">#33CD79</tspan></tspan></text>
    </g>
    <rect id="Rectangle_441-4" data-name="Rectangle 441" width="145" height="117" transform="translate(589 1275)" fill="#66d99a"/>
    <g id="Group_402-4" data-name="Group 402" transform="translate(-129 334)">
      <text id="Name_Frog-60" data-name="Name
Frog-60" transform="translate(878 958)" fill="#636363" font-size="14" font-family="Objectivity-Bold, Objectivity" font-weight="700"><tspan x="0" y="10">Name</tspan><tspan fill="#44546a" font-size="16" font-family="Objectivity-Regular, Objectivity" font-weight="400"><tspan x="0" y="29">Frog-60</tspan></tspan></text>
      <text id="HEX_66D99A" data-name="HEX
#66D99A" transform="translate(878 1016)" fill="#636363" font-size="14" font-family="Objectivity-Bold, Objectivity" font-weight="700"><tspan x="0" y="0">HEX</tspan><tspan fill="#44546a" font-size="16" font-family="Objectivity-Regular, Objectivity" font-weight="400"><tspan x="0" y="19">#66D99A</tspan></tspan></text>
    </g>
    <rect id="Rectangle_441-5" data-name="Rectangle 441" width="145" height="117" transform="translate(589 1391)" fill="#99e6bc"/>
    <g id="Group_402-5" data-name="Group 402" transform="translate(-129 450)">
      <text id="Name_Frog-40" data-name="Name
Frog-40" transform="translate(878 958)" fill="#636363" font-size="14" font-family="Objectivity-Bold, Objectivity" font-weight="700"><tspan x="0" y="10">Name</tspan><tspan fill="#44546a" font-size="16" font-family="Objectivity-Regular, Objectivity" font-weight="400"><tspan x="0" y="29">Frog-40</tspan></tspan></text>
      <text id="HEX_99E6BC" data-name="HEX
#99E6BC" transform="translate(878 1016)" fill="#636363" font-size="14" font-family="Objectivity-Bold, Objectivity" font-weight="700"><tspan x="0" y="0">HEX</tspan><tspan fill="#44546a" font-size="16" font-family="Objectivity-Regular, Objectivity" font-weight="400"><tspan x="0" y="19">#99E6BC</tspan></tspan></text>
    </g>
    <path id="Rectangle_441-6" data-name="Rectangle 441" d="M0,0H145a0,0,0,0,1,0,0V109a8,8,0,0,1-8,8H8a8,8,0,0,1-8-8V0A0,0,0,0,1,0,0Z" transform="translate(589 1508)" fill="#ccf2dd"/>
    <g id="Group_402-6" data-name="Group 402" transform="translate(-129 567)">
      <text id="Name_Frog-20" data-name="Name
Frog-20" transform="translate(878 958)" fill="#636363" font-size="14" font-family="Objectivity-Bold, Objectivity" font-weight="700"><tspan x="0" y="10">Name</tspan><tspan fill="#44546a" font-size="16" font-family="Objectivity-Regular, Objectivity" font-weight="400"><tspan x="0" y="29">Frog-20</tspan></tspan></text>
      <text id="HEX_CCF2DD" data-name="HEX
#CCF2DD" transform="translate(878 1016)" fill="#636363" font-size="14" font-family="Objectivity-Bold, Objectivity" font-weight="700"><tspan x="0" y="0">HEX</tspan><tspan fill="#44546a" font-size="16" font-family="Objectivity-Regular, Objectivity" font-weight="400"><tspan x="0" y="19">#CCF2DD</tspan></tspan></text>
    </g>
    <g id="Group_398" data-name="Group 398" transform="translate(209 36)">
      <rect id="Rectangle_442" data-name="Rectangle 442" width="145" height="117" rx="8" transform="translate(1112 935)" fill="#ffc000"/>
      <g id="Group_403" data-name="Group 403" transform="translate(-1 -8)">
        <text id="Name_Lion" data-name="Name
Lion" transform="translate(1273 960)" fill="#636363" font-size="14" font-family="Objectivity-Bold, Objectivity" font-weight="700"><tspan x="0" y="10">Name</tspan><tspan fill="#707070" font-size="16" font-family="Objectivity-Regular, Objectivity" font-weight="400"><tspan x="0" y="32">Lion</tspan></tspan></text>
        <text id="HEX_FCC000" data-name="HEX
#FCC000" transform="translate(1273 1018)" fill="#636363" font-size="14" font-family="Objectivity-Bold, Objectivity" font-weight="700"><tspan x="0" y="0">HEX</tspan><tspan fill="#707070" font-size="16" font-family="Objectivity-Regular, Objectivity" font-weight="400"><tspan x="0" y="22">#FCC000</tspan></tspan></text>
      </g>
    </g>
    <path id="Rectangle_442-2" data-name="Rectangle 442" d="M8,0H137a8,8,0,0,1,8,8V117a0,0,0,0,1,0,0H0a0,0,0,0,1,0,0V8A8,8,0,0,1,8,0Z" transform="translate(1321 1159)" fill="#fdcd33"/>
    <g id="Group_403-2" data-name="Group 403" transform="translate(208 216)">
      <text id="Name_Lion-80" data-name="Name
Lion-80" transform="translate(1273 960)" fill="#636363" font-size="14" font-family="Objectivity-Bold, Objectivity" font-weight="700"><tspan x="0" y="10">Name</tspan><tspan fill="#44546a" font-size="16" font-family="Objectivity-Regular, Objectivity" font-weight="400"><tspan x="0" y="29">Lion-80</tspan></tspan></text>
      <text id="HEX_FDCD33" data-name="HEX
#FDCD33" transform="translate(1273 1018)" fill="#636363" font-size="14" font-family="Objectivity-Bold, Objectivity" font-weight="700"><tspan x="0" y="0">HEX</tspan><tspan fill="#44546a" font-size="16" font-family="Objectivity-Regular, Objectivity" font-weight="400"><tspan x="0" y="19">#FDCD33</tspan></tspan></text>
    </g>
    <rect id="Rectangle_442-3" data-name="Rectangle 442" width="145" height="117" transform="translate(1321 1275)" fill="#fdd966"/>
    <g id="Group_403-3" data-name="Group 403" transform="translate(208 332)">
      <text id="Name_Lion-60" data-name="Name
Lion-60" transform="translate(1273 960)" fill="#636363" font-size="14" font-family="Objectivity-Bold, Objectivity" font-weight="700"><tspan x="0" y="10">Name</tspan><tspan fill="#44546a" font-size="16" font-family="Objectivity-Regular, Objectivity" font-weight="400"><tspan x="0" y="29">Lion-60</tspan></tspan></text>
      <text id="HEX_FDD966" data-name="HEX
#FDD966" transform="translate(1273 1018)" fill="#636363" font-size="14" font-family="Objectivity-Bold, Objectivity" font-weight="700"><tspan x="0" y="0">HEX</tspan><tspan fill="#44546a" font-size="16" font-family="Objectivity-Regular, Objectivity" font-weight="400"><tspan x="0" y="19">#FDD966</tspan></tspan></text>
    </g>
    <rect id="Rectangle_442-4" data-name="Rectangle 442" width="145" height="117" transform="translate(1321 1391)" fill="#fee699"/>
    <g id="Group_403-4" data-name="Group 403" transform="translate(208 448)">
      <text id="Name_Lion-40" data-name="Name
Lion-40" transform="translate(1273 960)" fill="#636363" font-size="14" font-family="Objectivity-Bold, Objectivity" font-weight="700"><tspan x="0" y="10">Name</tspan><tspan fill="#44546a" font-size="16" font-family="Objectivity-Regular, Objectivity" font-weight="400"><tspan x="0" y="29">Lion-40</tspan></tspan></text>
      <text id="HEX_FEE699" data-name="HEX
#FEE699" transform="translate(1273 1018)" fill="#636363" font-size="14" font-family="Objectivity-Bold, Objectivity" font-weight="700"><tspan x="0" y="0">HEX</tspan><tspan fill="#44546a" font-size="16" font-family="Objectivity-Regular, Objectivity" font-weight="400"><tspan x="0" y="19">#FEE699</tspan></tspan></text>
    </g>
    <path id="Rectangle_442-5" data-name="Rectangle 442" d="M0,0H145a0,0,0,0,1,0,0V109a8,8,0,0,1-8,8H8a8,8,0,0,1-8-8V0A0,0,0,0,1,0,0Z" transform="translate(1321 1508)" fill="#fef2cc"/>
    <g id="Group_403-5" data-name="Group 403" transform="translate(208 565)">
      <text id="Name_Lion-20" data-name="Name
Lion-20" transform="translate(1273 960)" fill="#636363" font-size="14" font-family="Objectivity-Bold, Objectivity" font-weight="700"><tspan x="0" y="10">Name</tspan><tspan fill="#44546a" font-size="16" font-family="Objectivity-Regular, Objectivity" font-weight="400"><tspan x="0" y="29">Lion-20</tspan></tspan></text>
      <text id="HEX_FEF2CC" data-name="HEX
#FEF2CC" transform="translate(1273 1018)" fill="#636363" font-size="14" font-family="Objectivity-Bold, Objectivity" font-weight="700"><tspan x="0" y="0">HEX</tspan><tspan fill="#44546a" font-size="16" font-family="Objectivity-Regular, Objectivity" font-weight="400"><tspan x="0" y="19">#FEF2CC</tspan></tspan></text>
    </g>
    <path id="Rectangle_446" data-name="Rectangle 446" d="M8,0H137a8,8,0,0,1,8,8V117a0,0,0,0,1,0,0H0a0,0,0,0,1,0,0V8A8,8,0,0,1,8,0Z" transform="translate(955 1159)" fill="#697688"/>
    <g id="Group_410" data-name="Group 410" transform="translate(237 218)">
      <text id="Name_Whale-80" data-name="Name
Whale-80" transform="translate(878 958)" fill="#636363" font-size="14" font-family="Objectivity-Bold, Objectivity" font-weight="700"><tspan x="0" y="10">Name</tspan><tspan fill="#44546a" font-size="16" font-family="Objectivity-Regular, Objectivity" font-weight="400"><tspan x="0" y="29">Whale-80</tspan></tspan></text>
      <text id="HEX_697688" data-name="HEX
#697688" transform="translate(878 1016)" fill="#636363" font-size="14" font-family="Objectivity-Bold, Objectivity" font-weight="700"><tspan x="0" y="0">HEX</tspan><tspan fill="#44546a" font-size="16" font-family="Objectivity-Regular, Objectivity" font-weight="400"><tspan x="0" y="19">#697688</tspan></tspan></text>
    </g>
    <rect id="Rectangle_447" data-name="Rectangle 447" width="145" height="117" transform="translate(955 1275)" fill="#8f98a6"/>
    <g id="Group_411" data-name="Group 411" transform="translate(237 334)">
      <text id="Name_Whale-60" data-name="Name
Whale-60" transform="translate(878 958)" fill="#636363" font-size="14" font-family="Objectivity-Bold, Objectivity" font-weight="700"><tspan x="0" y="10">Name</tspan><tspan fill="#44546a" font-size="16" font-family="Objectivity-Regular, Objectivity" font-weight="400"><tspan x="0" y="29">Whale-60</tspan></tspan></text>
      <text id="HEX_8F98A6" data-name="HEX
#8F98A6" transform="translate(878 1016)" fill="#636363" font-size="14" font-family="Objectivity-Bold, Objectivity" font-weight="700"><tspan x="0" y="0">HEX</tspan><tspan fill="#44546a" font-size="16" font-family="Objectivity-Regular, Objectivity" font-weight="400"><tspan x="0" y="19">#8F98A6</tspan></tspan></text>
    </g>
    <rect id="Rectangle_448" data-name="Rectangle 448" width="145" height="117" transform="translate(955 1391)" fill="#b4bbc3"/>
    <g id="Group_412" data-name="Group 412" transform="translate(237 450)">
      <text id="Name_Whale-40" data-name="Name
Whale-40" transform="translate(878 958)" fill="#636363" font-size="14" font-family="Objectivity-Bold, Objectivity" font-weight="700"><tspan x="0" y="10">Name</tspan><tspan fill="#44546a" font-size="16" font-family="Objectivity-Regular, Objectivity" font-weight="400"><tspan x="0" y="29">Whale-40</tspan></tspan></text>
      <text id="HEX_B4BBC3" data-name="HEX
#B4BBC3" transform="translate(878 1016)" fill="#636363" font-size="14" font-family="Objectivity-Bold, Objectivity" font-weight="700"><tspan x="0" y="0">HEX</tspan><tspan fill="#44546a" font-size="16" font-family="Objectivity-Regular, Objectivity" font-weight="400"><tspan x="0" y="19">#B4BBC3</tspan></tspan></text>
    </g>
    <path id="Path_393" data-name="Path 393" d="M0,0H145V109a8,8,0,0,1-8,8H8a8,8,0,0,1-8-8Z" transform="translate(955 1508)" fill="#dadde1"/>
    <g id="Group_414" data-name="Group 414" transform="translate(237 567)">
      <text id="Name_Whale-20" data-name="Name
Whale-20" transform="translate(878 958)" fill="#636363" font-size="14" font-family="Objectivity-Bold, Objectivity" font-weight="700"><tspan x="0" y="10">Name</tspan><tspan fill="#44546a" font-size="16" font-family="Objectivity-Regular, Objectivity" font-weight="400"><tspan x="0" y="29">Whale-20</tspan></tspan></text>
      <text id="HEX_DADDE1" data-name="HEX
#DADDE1" transform="translate(878 1016)" fill="#636363" font-size="14" font-family="Objectivity-Bold, Objectivity" font-weight="700"><tspan x="0" y="0">HEX</tspan><tspan fill="#44546a" font-size="16" font-family="Objectivity-Regular, Objectivity" font-weight="400"><tspan x="0" y="19">#DADDE1</tspan></tspan></text>
    </g>
    <text id="Shades" transform="translate(589 1142)" fill="#636363" font-size="24" font-family="Objectivity-Medium, Objectivity" font-weight="500"><tspan x="0" y="0">Shades</tspan></text>
  </g>
</svg>
