<svg xmlns="http://www.w3.org/2000/svg" xmlns:xlink="http://www.w3.org/1999/xlink" width="1261" height="160" viewBox="0 0 1261 160">
  <defs>
    <filter id="Rectangle_667" x="0" y="5" width="1261" height="155" filterUnits="userSpaceOnUse">
      <feOffset dy="8" input="SourceAlpha"/>
      <feGaussianBlur stdDeviation="12" result="blur"/>
      <feFlood flood-color="#212121" flood-opacity="0.161"/>
      <feComposite operator="in" in2="blur"/>
      <feComposite in="SourceGraphic"/>
    </filter>
  </defs>
  <g id="Group_621" data-name="Group 621" transform="translate(-352 -2281)">
    <g id="Group_523" data-name="Group 523" transform="translate(-5 1971.288)">
      <g transform="matrix(1, 0, 0, 1, 357, 309.71)" filter="url(#Rectangle_667)">
        <rect id="Rectangle_667-2" data-name="Rectangle 667" width="1189" height="83" rx="22" transform="translate(36 33)" fill="#f7f7f7"/>
      </g>
      <text id="Boligforeningen_Ungdomsbo" data-name="Boligforeningen Ungdomsbo" transform="translate(503.301 387.527)" fill="#44546a" font-size="16" font-family="Objectivity-Regular, Objectivity"><tspan x="0" y="0">Boligforeningen Ungdomsbo</tspan></text>
      <text id="Søbo" transform="translate(803.999 389.712)" fill="#44546a" font-size="17" font-family="Objectivity-Regular, Objectivity"><tspan x="0" y="0">Søbo</tspan></text>
      <text id="Esbjerg" transform="translate(952.999 391.712)" fill="#44546a" font-size="16" font-family="Objectivity-Regular, Objectivity"><tspan x="0" y="0">Esbjerg</tspan></text>
      <g id="Group_50" data-name="Group 50" transform="translate(1141.125 378.315)">
        <text id="_4" data-name="4" transform="translate(-0.125 12.396)" fill="#44546a" font-size="17" font-family="Objectivity-Regular, Objectivity"><tspan x="0" y="0">4</tspan></text>
      </g>
      <g id="Icon_feather-edit" data-name="Icon feather-edit" transform="translate(1403.67 373.438)">
        <path id="Path_1932" data-name="Path 1932" d="M13.6,6H5.355A2.355,2.355,0,0,0,3,8.355V24.841A2.355,2.355,0,0,0,5.355,27.2H21.841A2.355,2.355,0,0,0,24.2,24.841V16.6" transform="translate(-3 -3.502)" fill="none" stroke="#44546a" stroke-linecap="round" stroke-linejoin="round" stroke-width="2"/>
        <path id="Path_1933" data-name="Path 1933" d="M24.364,3.55A2.5,2.5,0,0,1,27.9,7.082L16.71,18.269,12,19.447l1.178-4.71Z" transform="translate(-4.935 -2.818)" fill="none" stroke="#44546a" stroke-linecap="round" stroke-linejoin="round" stroke-width="2"/>
      </g>
      <g id="Icon_feather-file-text" data-name="Icon feather-file-text" transform="translate(1293.829 372.739)">
        <path id="Path_1934" data-name="Path 1934" d="M17.617,3H8.323A2.323,2.323,0,0,0,6,5.323V23.91a2.323,2.323,0,0,0,2.323,2.323h13.94a2.323,2.323,0,0,0,2.323-2.323V9.97Z" transform="translate(-6 -3)" fill="none" stroke="#44546a" stroke-linecap="round" stroke-linejoin="round" stroke-width="2"/>
        <path id="Path_1935" data-name="Path 1935" d="M21,3V9.97h6.97" transform="translate(-9.383 -3)" fill="none" stroke="#44546a" stroke-linecap="round" stroke-linejoin="round" stroke-width="2"/>
        <path id="Path_1936" data-name="Path 1936" d="M21.293,19.5H12" transform="translate(-7.353 -6.721)" fill="none" stroke="#44546a" stroke-linecap="round" stroke-linejoin="round" stroke-width="2"/>
        <path id="Path_1937" data-name="Path 1937" d="M21.293,25.5H12" transform="translate(-7.353 -8.075)" fill="none" stroke="#44546a" stroke-linecap="round" stroke-linejoin="round" stroke-width="2"/>
        <path id="Path_1938" data-name="Path 1938" d="M14.323,13.5H12" transform="translate(-7.353 -5.368)" fill="none" stroke="#44546a" stroke-linecap="round" stroke-linejoin="round" stroke-width="2"/>
      </g>
      <g id="Group_515" data-name="Group 515" transform="translate(423.668 368.092)">
        <rect id="Rectangle_669" data-name="Rectangle 669" width="33" height="34" rx="8" transform="translate(0.332 -0.38)" fill="#d1eddd"/>
        <path id="Icon_ionic-ios-arrow-down" data-name="Icon ionic-ios-arrow-down" d="M14.365,17.776l6.181-6.186a1.163,1.163,0,0,1,1.65,0,1.178,1.178,0,0,1,0,1.655l-7,7.009a1.166,1.166,0,0,1-1.611.034L6.528,13.249a1.168,1.168,0,0,1,1.65-1.655Z" transform="translate(3.163 -2.418)" fill="#128643"/>
        <path id="Icon_ionic-ios-arrow-down-2" data-name="Icon ionic-ios-arrow-down" d="M14.365,17.776l6.181-6.186a1.163,1.163,0,0,1,1.65,0,1.178,1.178,0,0,1,0,1.655l-7,7.009a1.166,1.166,0,0,1-1.611.034L6.528,13.249a1.168,1.168,0,0,1,1.65-1.655Z" transform="translate(3.163 5.197)" fill="#128643"/>
      </g>
    </g>
    <g id="Group_521" data-name="Group 521" transform="translate(1524 1771.5)">
      <text id="Housing_association" data-name="Housing association" transform="translate(-1022 520.5)" fill="#636363" font-size="14" font-family="Objectivity-Bold, Objectivity" font-weight="700"><tspan x="0" y="0">Housing association</tspan></text>
      <text id="Administration" transform="translate(-736 521.5)" fill="#636363" font-size="14" font-family="Objectivity-Bold, Objectivity" font-weight="700"><tspan x="0" y="0">Administration</tspan></text>
      <text id="Departments" transform="translate(-428 521.5)" fill="#636363" font-size="14" font-family="Objectivity-Bold, Objectivity" font-weight="700"><tspan x="0" y="0">Departments</tspan></text>
      <text id="User_list" data-name="User list" transform="translate(-262 520.5)" fill="#636363" font-size="14" font-family="Objectivity-Bold, Objectivity" font-weight="700"><tspan x="0" y="0">User list</tspan></text>
      <text id="Edit" transform="translate(-132 520.5)" fill="#636363" font-size="14" font-family="Objectivity-Bold, Objectivity" font-weight="700"><tspan x="0" y="0">Edit</tspan></text>
      <text id="Location" transform="translate(-581 521.5)" fill="#636363" font-size="14" font-family="Objectivity-Bold, Objectivity" font-weight="700"><tspan x="0" y="0">Location</tspan></text>
    </g>
  </g>
</svg>
