<svg xmlns="http://www.w3.org/2000/svg" width="23" height="14.636" viewBox="0 0 23 14.636">
  <path id="Icon_material-group" data-name="Icon material-group" d="M17.182,13.773a3.136,3.136,0,1,0-3.136-3.136A3.123,3.123,0,0,0,17.182,13.773Zm-8.364,0a3.136,3.136,0,1,0-3.136-3.136A3.123,3.123,0,0,0,8.818,13.773Zm0,2.091c-2.436,0-7.318,1.223-7.318,3.659v2.614H16.136V19.523C16.136,17.087,11.254,15.864,8.818,15.864Zm8.364,0c-.3,0-.648.021-1.014.052a4.412,4.412,0,0,1,2.06,3.607v2.614H24.5V19.523C24.5,17.087,19.618,15.864,17.182,15.864Z" transform="translate(-1.5 -7.5)" fill="#44546a"/>
</svg>
