<svg xmlns="http://www.w3.org/2000/svg" width="85.012" height="85.012" viewBox="0 0 85.012 85.012">
  <g id="Group_627" data-name="Group 627" transform="translate(-173.018 -32.721)">
    <ellipse id="Ellipse_96" data-name="Ellipse 96" cx="33" cy="38" rx="33" ry="38" transform="translate(182 36)" fill="#e8e8e8"/>
    <path id="Icon_awesome-exclamation-circle" data-name="Icon awesome-exclamation-circle" d="M85.575,43.069A42.506,42.506,0,1,1,43.069.563,42.5,42.5,0,0,1,85.575,43.069Zm-42.506,8.57a7.884,7.884,0,1,0,7.884,7.884A7.884,7.884,0,0,0,43.069,51.639ZM35.583,23.3l1.271,23.31a2.057,2.057,0,0,0,2.054,1.945h8.321a2.057,2.057,0,0,0,2.054-1.945L50.554,23.3A2.057,2.057,0,0,0,48.5,21.13H37.637A2.057,2.057,0,0,0,35.583,23.3Z" transform="translate(172.455 32.158)" fill="#db5f00"/>
  </g>
</svg>
