<svg id="WeUse_IOS" data-name="WeUse IOS" xmlns="http://www.w3.org/2000/svg" width="21.106" height="23.375" viewBox="0 0 21.106 23.375">
  <g id="Group_81" data-name="Group 81">
    <g id="Group_80" data-name="Group 80">
      <g id="Group_78" data-name="Group 78">
        <g id="Group_72" data-name="Group 72">
          <g id="Group_55" data-name="Group 55" transform="translate(2.765 20.89)">
            <path id="Path_21" data-name="Path 21" d="M9.72,41.83a1.24,1.24,0,1,1-1.24-1.24A1.246,1.246,0,0,1,9.72,41.83Z" transform="translate(-7.24 -40.59)" fill="#fff"/>
          </g>
          <g id="Group_57" data-name="Group 57" transform="translate(2.765 7.978)">
            <path id="Path_22" data-name="Path 22" d="M9.72,17.365A1.24,1.24,0,1,1,8.48,16.12,1.245,1.245,0,0,1,9.72,17.365Z" transform="translate(-7.24 -16.12)" fill="#fff"/>
            <g id="Group_56" data-name="Group 56" transform="translate(0)">
              <path id="cztPLD3QB" d="M9.72,17.365A1.24,1.24,0,1,1,8.48,16.12,1.245,1.245,0,0,1,9.72,17.365Z" transform="translate(-7.24 -16.12)" fill="#fff"/>
            </g>
          </g>
          <g id="Group_58" data-name="Group 58" transform="translate(10.727)">
            <path id="Path_23" data-name="Path 23" d="M24.815,2.24A1.243,1.243,0,1,1,23.57,1,1.246,1.246,0,0,1,24.815,2.24Z" transform="translate(-22.33 -1)" fill="#fff"/>
          </g>
          <g id="Group_59" data-name="Group 59" transform="translate(18.626 7.978)">
            <path id="Path_24" data-name="Path 24" d="M39.78,17.365a1.24,1.24,0,1,1-1.24-1.245A1.242,1.242,0,0,1,39.78,17.365Z" transform="translate(-37.3 -16.12)" fill="#fff"/>
          </g>
          <g id="Group_60" data-name="Group 60" transform="translate(18.626 20.89)">
            <path id="Path_25" data-name="Path 25" d="M39.78,41.83a1.24,1.24,0,1,1-1.24-1.24A1.243,1.243,0,0,1,39.78,41.83Z" transform="translate(-37.3 -40.59)" fill="#fff"/>
          </g>
          <g id="Group_61" data-name="Group 61" transform="translate(18.626 13.782)">
            <path id="Path_26" data-name="Path 26" d="M37.3,27.12h2.48v8.268H37.3Z" transform="translate(-37.3 -27.12)" fill="#fff"/>
          </g>
          <g id="Group_62" data-name="Group 62" transform="translate(18.626 12.289)">
            <path id="Path_27" data-name="Path 27" d="M39.78,25.535a1.24,1.24,0,1,1-1.24-1.245A1.242,1.242,0,0,1,39.78,25.535Z" transform="translate(-37.3 -24.29)" fill="#fff"/>
          </g>
          <g id="Group_63" data-name="Group 63" transform="translate(2.765 13.571)">
            <path id="Path_28" data-name="Path 28" d="M7.24,26.72H9.72v8.685H7.24Z" transform="translate(-7.24 -26.72)" fill="#fff"/>
          </g>
          <g id="Group_64" data-name="Group 64" transform="translate(2.765 12.289)">
            <path id="Path_29" data-name="Path 29" d="M9.72,25.535A1.24,1.24,0,1,1,8.48,24.29,1.245,1.245,0,0,1,9.72,25.535Z" transform="translate(-7.24 -24.29)" fill="#fff"/>
          </g>
          <g id="Group_65" data-name="Group 65" transform="translate(6.179 15.265)">
            <path id="Path_30" data-name="Path 30" d="M15.778,30.964a1.034,1.034,0,1,1-1.034-1.034A1.036,1.036,0,0,1,15.778,30.964Z" transform="translate(-13.71 -29.93)" fill="#fff"/>
          </g>
          <g id="Group_66" data-name="Group 66" transform="translate(3.393 12.611)">
            <path id="Path_31" data-name="Path 31" d="M12.873,27.7l-1.4,1.52-3.039-2.8,1.4-1.525Z" transform="translate(-8.43 -24.9)" fill="#fff"/>
          </g>
          <g id="Group_67" data-name="Group 67" transform="translate(0 15.265)">
            <path id="Path_32" data-name="Path 32" d="M2,30.964A1.034,1.034,0,1,0,3.034,29.93,1.036,1.036,0,0,0,2,30.964Z" transform="translate(-2 -29.93)" fill="#fff"/>
          </g>
          <g id="Group_68" data-name="Group 68" transform="translate(0.174 12.732)">
            <path id="Path_33" data-name="Path 33" d="M6.715,26.6,5.253,25.13,2.33,28.058,3.792,29.52Z" transform="translate(-2.33 -25.13)" fill="#fff"/>
          </g>
          <g id="Group_69" data-name="Group 69" transform="translate(3.952 20.89)">
            <path id="Path_34" data-name="Path 34" d="M9.49,40.59H25.42v2.485H9.49Z" transform="translate(-9.49 -40.59)" fill="#fff"/>
          </g>
          <g id="Group_70" data-name="Group 70" transform="translate(15.935 8.395)">
            <path id="Path_35" data-name="Path 35" d="M32.2,18.978V16.91h4.137v2.068Z" transform="translate(-32.2 -16.91)" fill="#fff"/>
          </g>
          <g id="Group_71" data-name="Group 71" transform="translate(11.049 0.354)">
            <path id="Path_36" data-name="Path 36" d="M22.94,3.427,24.7,1.67l8.184,8.189-1.752,1.752Z" transform="translate(-22.94 -1.67)" fill="#fff"/>
          </g>
        </g>
        <g id="Group_73" data-name="Group 73" transform="translate(19.027 5.023)">
          <path id="Path_37" data-name="Path 37" d="M38.06,10.52h2.068v4.132H38.06Z" transform="translate(-38.06 -10.52)" fill="#fff"/>
        </g>
        <g id="Group_75" data-name="Group 75" transform="translate(14.922 8.4)">
          <path id="Path_38" data-name="Path 38" d="M32.348,17.954a1.034,1.034,0,1,1-1.034-1.034A1.036,1.036,0,0,1,32.348,17.954Z" transform="translate(-30.28 -16.92)" fill="#fff"/>
          <g id="Group_74" data-name="Group 74">
            <path id="aEWDqBGuJ" d="M32.348,17.954a1.034,1.034,0,1,1-1.034-1.034A1.036,1.036,0,0,1,32.348,17.954Z" transform="translate(-30.28 -16.92)" fill="#fff"/>
          </g>
        </g>
        <g id="Group_77" data-name="Group 77" transform="translate(19.032 4.021)">
          <path id="Path_39" data-name="Path 39" d="M40.138,9.654A1.034,1.034,0,1,1,39.1,8.62,1.036,1.036,0,0,1,40.138,9.654Z" transform="translate(-38.07 -8.62)" fill="#fff"/>
          <g id="Group_76" data-name="Group 76">
            <path id="bbNaQAby" d="M40.138,9.654A1.034,1.034,0,1,1,39.1,8.62,1.036,1.036,0,0,1,40.138,9.654Z" transform="translate(-38.07 -8.62)" fill="#fff"/>
          </g>
        </g>
      </g>
      <g id="Group_79" data-name="Group 79" transform="translate(3.198 0.412)">
        <path id="Path_40" data-name="Path 40" d="M15.917,1.78l1.752,1.757L9.812,11.394,8.06,9.642Z" transform="translate(-8.06 -1.78)" fill="#fff"/>
      </g>
    </g>
  </g>
</svg>
