<svg width="344" height="344" xmlns="http://www.w3.org/2000/svg" xmlns:xlink="http://www.w3.org/1999/xlink" overflow="hidden"><defs><clipPath id="clip0"><rect x="471" y="239" width="344" height="344"/></clipPath></defs><g clip-path="url(#clip0)" transform="translate(-471 -239)"><path d="M813.981 410.99C813.981 505.369 737.36 581.99 642.981 581.99 548.605 581.99 471.981 505.369 471.981 410.99 471.981 316.614 548.605 239.99 642.981 239.99 737.36 239.99 813.981 316.614 813.981 410.99Z" fill="#17A754" fill-rule="evenodd"/><path d="M559.342 363.77 634.171 288.941C639.774 283.337 648.859 283.337 654.462 288.941L714.171 349.729 714.555 334.168C715.754 321.922 732.727 322.413 734.062 334.281L734 376.074C733.829 380.938 730.503 387.678 722.227 387.892L683.11 387.67C671.551 387.736 669.918 367.857 683.108 367.333L697.405 367.034 644.317 314.486 644.317 314.486 577.187 381.615C561.395 395.98 544.338 375.919 559.342 363.77Z" fill="#FFFFFF" fill-rule="evenodd"/><path d="M720.146 512.825 577.83 512.958C554.392 513.763 552.982 502.895 552.96 490.386L553.367 441.939 542.088 452.621C532.578 460.396 520.919 448.105 528.369 438.812L557.976 409.442C561.538 406.139 568.658 403.736 574.663 409.411L602.175 437.097C610.398 445.186 597.492 460.326 587.792 451.412L577.467 441.56 577.582 487.795C609.238 487.795 643.115 487.728 708.648 487.662L708.879 419.045C707.776 405.572 733.212 400.62 733.501 418.58L734 487.546C733.776 502.286 735.451 511.07 720.146 512.825Z" fill="#FFFFFF" fill-rule="evenodd"/></g></svg>