<svg xmlns="http://www.w3.org/2000/svg" width="805" height="398" viewBox="0 0 805 398">
  <g id="Group_615" data-name="Group 615" transform="translate(-470 -418)">
    <g id="Group_400" data-name="Group 400" transform="translate(142 -517)">
      <rect id="Rectangle_440" data-name="Rectangle 440" width="145" height="117" rx="8" transform="translate(328 935)" fill="#17a754"/>
      <g id="Group_401" data-name="Group 401" transform="translate(4 -8)">
        <text id="Name_WeUse_Green" data-name="Name
WeUse Green" transform="translate(485 960)" fill="#636363" font-size="14" font-family="Objectivity-Bold, Objectivity" font-weight="700"><tspan x="0" y="10">Name</tspan><tspan fill="#44546a" font-size="16" font-family="Objectivity-Regular, Objectivity" font-weight="400"><tspan x="0" y="29">WeUse Green</tspan></tspan></text>
        <text id="HEX_17A754" data-name="HEX
#17A754" transform="translate(485 1018)" fill="#636363" font-size="14" font-family="Objectivity-Bold, Objectivity" font-weight="700"><tspan x="0" y="0">HEX</tspan><tspan fill="#44546a" font-size="16" font-family="Objectivity-Regular, Objectivity" font-weight="400"><tspan x="0" y="19">#17A754</tspan></tspan></text>
      </g>
    </g>
    <rect id="Rectangle_440-2" data-name="Rectangle 440" width="161" height="117" transform="translate(631 606)" fill="#45b976"/>
    <path id="Rectangle_684" data-name="Rectangle 684" d="M8,0H161a0,0,0,0,1,0,0V117a0,0,0,0,1,0,0H8a8,8,0,0,1-8-8V8A8,8,0,0,1,8,0Z" transform="translate(470 606)" fill="#128643"/>
    <g id="Group_401-2" data-name="Group 401" transform="translate(146 -225)">
      <text id="Name_WeUse_Green-80" data-name="Name
WeUse Green-80" transform="translate(485 960)" fill="#636363" font-size="14" font-family="Objectivity-Bold, Objectivity" font-weight="700"><tspan x="0" y="10">Name</tspan><tspan fill="#44546a" font-size="16" font-family="Objectivity-Regular, Objectivity" font-weight="400"><tspan x="0" y="29">WeUse Green-80</tspan></tspan></text>
      <text id="HEX_45B976" data-name="HEX
#45B976" transform="translate(485 1018)" fill="#636363" font-size="14" font-family="Objectivity-Bold, Objectivity" font-weight="700"><tspan x="0" y="0">HEX</tspan><tspan fill="#44546a" font-size="16" font-family="Objectivity-Regular, Objectivity" font-weight="400"><tspan x="0" y="19">#45B976</tspan></tspan></text>
    </g>
    <g id="Group_551" data-name="Group 551" transform="translate(-15 -225)">
      <text id="Name_WeUse_Green-120" data-name="Name
WeUse Green-120" transform="translate(485 960)" fill="#636363" font-size="14" font-family="Objectivity-Bold, Objectivity" font-weight="700"><tspan x="0" y="10">Name</tspan><tspan fill="#44546a" font-size="16" font-family="Objectivity-Regular, Objectivity" font-weight="400"><tspan x="0" y="29">WeUse Green-120</tspan></tspan></text>
      <text id="HEX_128643" data-name="HEX
#128643" transform="translate(485 1018)" fill="#636363" font-size="14" font-family="Objectivity-Bold, Objectivity" font-weight="700"><tspan x="0" y="0">HEX</tspan><tspan fill="#44546a" font-size="16" font-family="Objectivity-Regular, Objectivity" font-weight="400"><tspan x="0" y="19">#128643</tspan></tspan></text>
    </g>
    <rect id="Rectangle_440-3" data-name="Rectangle 440" width="161" height="117" transform="translate(792 606)" fill="#74ca98"/>
    <g id="Group_401-3" data-name="Group 401" transform="translate(308 -225)">
      <text id="Name_WeUse_Green-60" data-name="Name
WeUse Green-60" transform="translate(485 960)" fill="#636363" font-size="14" font-family="Objectivity-Bold, Objectivity" font-weight="700"><tspan x="0" y="10">Name</tspan><tspan fill="#44546a" font-size="16" font-family="Objectivity-Regular, Objectivity" font-weight="400"><tspan x="0" y="29">WeUse Green-60</tspan></tspan></text>
      <text id="HEX_74CA98" data-name="HEX
#74CA98" transform="translate(485 1018)" fill="#636363" font-size="14" font-family="Objectivity-Bold, Objectivity" font-weight="700"><tspan x="0" y="0">HEX</tspan><tspan fill="#44546a" font-size="16" font-family="Objectivity-Regular, Objectivity" font-weight="400"><tspan x="0" y="19">#74CA98</tspan></tspan></text>
    </g>
    <rect id="Rectangle_440-4" data-name="Rectangle 440" width="161" height="117" transform="translate(953 606)" fill="#a2dcbb"/>
    <g id="Group_401-4" data-name="Group 401" transform="translate(468 -225)">
      <text id="Name_WeUse_Green-40" data-name="Name
WeUse Green-40" transform="translate(485 960)" fill="#636363" font-size="14" font-family="Objectivity-Bold, Objectivity" font-weight="700"><tspan x="0" y="10">Name</tspan><tspan fill="#44546a" font-size="16" font-family="Objectivity-Regular, Objectivity" font-weight="400"><tspan x="0" y="29">WeUse Green-40</tspan></tspan></text>
      <text id="HEX_A2DCBB" data-name="HEX
#A2DCBB" transform="translate(485 1018)" fill="#636363" font-size="14" font-family="Objectivity-Bold, Objectivity" font-weight="700"><tspan x="0" y="0">HEX</tspan><tspan fill="#44546a" font-size="16" font-family="Objectivity-Regular, Objectivity" font-weight="400"><tspan x="0" y="19">#A2DCBB</tspan></tspan></text>
    </g>
    <path id="Rectangle_440-5" data-name="Rectangle 440" d="M0,0H153a8,8,0,0,1,8,8V109a8,8,0,0,1-8,8H0a0,0,0,0,1,0,0V0A0,0,0,0,1,0,0Z" transform="translate(1114 606)" fill="#d1eddd"/>
    <g id="Group_401-5" data-name="Group 401" transform="translate(632 -225)">
      <text id="Name_WeUse_Green-20" data-name="Name
WeUse Green-20" transform="translate(485 960)" fill="#636363" font-size="14" font-family="Objectivity-Bold, Objectivity" font-weight="700"><tspan x="0" y="10">Name</tspan><tspan fill="#44546a" font-size="16" font-family="Objectivity-Regular, Objectivity" font-weight="400"><tspan x="0" y="29">WeUse Green-20</tspan></tspan></text>
      <text id="HEX_D1EDDD" data-name="HEX
#D1EDDD" transform="translate(485 1018)" fill="#636363" font-size="14" font-family="Objectivity-Bold, Objectivity" font-weight="700"><tspan x="0" y="0">HEX</tspan><tspan fill="#44546a" font-size="16" font-family="Objectivity-Regular, Objectivity" font-weight="400"><tspan x="0" y="19">#D1EDDD</tspan></tspan></text>
    </g>
    <text id="Shades" transform="translate(470 589)" fill="#636363" font-size="24" font-family="Objectivity-Medium, Objectivity" font-weight="500"><tspan x="0" y="0">Shades</tspan></text>
  </g>
</svg>
